%TF.GenerationSoftware,KiCad,Pcbnew,(5.1.10)-1*%
%TF.CreationDate,2022-05-06T17:00:31+02:00*%
%TF.ProjectId,LTE_HW,4c54455f-4857-42e6-9b69-6361645f7063,rev?*%
%TF.SameCoordinates,Original*%
%TF.FileFunction,Copper,L2,Bot*%
%TF.FilePolarity,Positive*%
%FSLAX46Y46*%
G04 Gerber Fmt 4.6, Leading zero omitted, Abs format (unit mm)*
G04 Created by KiCad (PCBNEW (5.1.10)-1) date 2022-05-06 17:00:31*
%MOMM*%
%LPD*%
G01*
G04 APERTURE LIST*
%TA.AperFunction,Profile*%
%ADD10C,0.050000*%
%TD*%
%TA.AperFunction,ComponentPad*%
%ADD11R,1.700000X1.700000*%
%TD*%
%TA.AperFunction,ComponentPad*%
%ADD12R,1.600000X1.600000*%
%TD*%
%TA.AperFunction,ComponentPad*%
%ADD13O,1.600000X1.600000*%
%TD*%
%TA.AperFunction,ComponentPad*%
%ADD14C,6.400000*%
%TD*%
%TA.AperFunction,ComponentPad*%
%ADD15C,0.800000*%
%TD*%
%TA.AperFunction,ComponentPad*%
%ADD16O,1.700000X1.950000*%
%TD*%
%TA.AperFunction,ComponentPad*%
%ADD17C,1.800000*%
%TD*%
%TA.AperFunction,WasherPad*%
%ADD18C,4.000000*%
%TD*%
%TA.AperFunction,ViaPad*%
%ADD19C,1.000000*%
%TD*%
%TA.AperFunction,Conductor*%
%ADD20C,0.500000*%
%TD*%
%TA.AperFunction,Conductor*%
%ADD21C,0.200000*%
%TD*%
%TA.AperFunction,Conductor*%
%ADD22C,0.254000*%
%TD*%
%TA.AperFunction,Conductor*%
%ADD23C,0.100000*%
%TD*%
G04 APERTURE END LIST*
D10*
X150000000Y-145000000D02*
G75*
G02*
X145000000Y-150000000I-5000000J0D01*
G01*
X145000000Y-76000000D02*
G75*
G02*
X150000000Y-81000000I0J-5000000D01*
G01*
X105000000Y-81000000D02*
G75*
G02*
X110000000Y-76000000I5000000J0D01*
G01*
X110000000Y-150000000D02*
G75*
G02*
X105000000Y-145000000I0J5000000D01*
G01*
X145000000Y-76000000D02*
X110000000Y-76000000D01*
X150000000Y-145000000D02*
X150000000Y-81000000D01*
X110000000Y-150000000D02*
X145000000Y-150000000D01*
X105000000Y-81000000D02*
X105000000Y-145000000D01*
D11*
%TO.P,TP2,1*%
%TO.N,REF_5V*%
X114000000Y-113000000D03*
%TD*%
%TO.P,TP1,1*%
%TO.N,5V*%
X120000000Y-113000000D03*
%TD*%
D12*
%TO.P,A1,1*%
%TO.N,Net-(A1-Pad1)*%
X109000000Y-106000000D03*
D13*
%TO.P,A1,17*%
%TO.N,Net-(A1-Pad17)*%
X124240000Y-139020000D03*
%TO.P,A1,2*%
%TO.N,Net-(A1-Pad2)*%
X109000000Y-108540000D03*
%TO.P,A1,18*%
%TO.N,Net-(A1-Pad18)*%
X124240000Y-136480000D03*
%TO.P,A1,3*%
%TO.N,Net-(A1-Pad3)*%
X109000000Y-111080000D03*
%TO.P,A1,19*%
%TO.N,A0*%
X124240000Y-133940000D03*
%TO.P,A1,4*%
%TO.N,REF_5V*%
X109000000Y-113620000D03*
%TO.P,A1,20*%
%TO.N,A1*%
X124240000Y-131400000D03*
%TO.P,A1,5*%
%TO.N,Net-(A1-Pad5)*%
X109000000Y-116160000D03*
%TO.P,A1,21*%
%TO.N,A2*%
X124240000Y-128860000D03*
%TO.P,A1,6*%
%TO.N,Net-(A1-Pad6)*%
X109000000Y-118700000D03*
%TO.P,A1,22*%
%TO.N,Net-(A1-Pad22)*%
X124240000Y-126320000D03*
%TO.P,A1,7*%
%TO.N,Net-(A1-Pad7)*%
X109000000Y-121240000D03*
%TO.P,A1,23*%
%TO.N,Net-(A1-Pad23)*%
X124240000Y-123780000D03*
%TO.P,A1,8*%
%TO.N,Net-(A1-Pad8)*%
X109000000Y-123780000D03*
%TO.P,A1,24*%
%TO.N,Net-(A1-Pad24)*%
X124240000Y-121240000D03*
%TO.P,A1,9*%
%TO.N,Net-(A1-Pad9)*%
X109000000Y-126320000D03*
%TO.P,A1,25*%
%TO.N,Net-(A1-Pad25)*%
X124240000Y-118700000D03*
%TO.P,A1,10*%
%TO.N,Net-(A1-Pad10)*%
X109000000Y-128860000D03*
%TO.P,A1,26*%
%TO.N,Net-(A1-Pad26)*%
X124240000Y-116160000D03*
%TO.P,A1,11*%
%TO.N,Net-(A1-Pad11)*%
X109000000Y-131400000D03*
%TO.P,A1,27*%
%TO.N,5V*%
X124240000Y-113620000D03*
%TO.P,A1,12*%
%TO.N,Net-(A1-Pad12)*%
X109000000Y-133940000D03*
%TO.P,A1,28*%
%TO.N,Net-(A1-Pad28)*%
X124240000Y-111080000D03*
%TO.P,A1,13*%
%TO.N,Net-(A1-Pad13)*%
X109000000Y-136480000D03*
%TO.P,A1,29*%
%TO.N,REF_5V*%
X124240000Y-108540000D03*
%TO.P,A1,14*%
%TO.N,Net-(A1-Pad14)*%
X109000000Y-139020000D03*
%TO.P,A1,30*%
%TO.N,Net-(A1-Pad30)*%
X124240000Y-106000000D03*
%TO.P,A1,15*%
%TO.N,Net-(A1-Pad15)*%
X109000000Y-141560000D03*
%TO.P,A1,16*%
%TO.N,Net-(A1-Pad16)*%
X124240000Y-141560000D03*
%TD*%
D14*
%TO.P,H1,1*%
%TO.N,REF_5V*%
X120000000Y-85000000D03*
D15*
X122400000Y-85000000D03*
X121697056Y-86697056D03*
X120000000Y-87400000D03*
X118302944Y-86697056D03*
X117600000Y-85000000D03*
X118302944Y-83302944D03*
X120000000Y-82600000D03*
X121697056Y-83302944D03*
%TD*%
%TO.P,J1,1*%
%TO.N,REF_5V*%
%TA.AperFunction,ComponentPad*%
G36*
G01*
X145850000Y-87275000D02*
X145850000Y-88725000D01*
G75*
G02*
X145600000Y-88975000I-250000J0D01*
G01*
X144400000Y-88975000D01*
G75*
G02*
X144150000Y-88725000I0J250000D01*
G01*
X144150000Y-87275000D01*
G75*
G02*
X144400000Y-87025000I250000J0D01*
G01*
X145600000Y-87025000D01*
G75*
G02*
X145850000Y-87275000I0J-250000D01*
G01*
G37*
%TD.AperFunction*%
D16*
%TO.P,J1,2*%
%TO.N,S0*%
X142500000Y-88000000D03*
%TO.P,J1,3*%
%TO.N,5V*%
X140000000Y-88000000D03*
%TD*%
D17*
%TO.P,RV1,3*%
%TO.N,REF_5V*%
X135000000Y-139000000D03*
%TO.P,RV1,2*%
%TO.N,A0*%
X135000000Y-141500000D03*
%TO.P,RV1,1*%
%TO.N,5V*%
X135000000Y-144000000D03*
D18*
%TO.P,RV1,*%
%TO.N,*%
X142000000Y-137100000D03*
X142000000Y-145900000D03*
%TD*%
%TO.P,RV2,*%
%TO.N,*%
X142000000Y-131900000D03*
X142000000Y-123100000D03*
D17*
%TO.P,RV2,1*%
%TO.N,5V*%
X135000000Y-130000000D03*
%TO.P,RV2,2*%
%TO.N,A1*%
X135000000Y-127500000D03*
%TO.P,RV2,3*%
%TO.N,REF_5V*%
X135000000Y-125000000D03*
%TD*%
%TO.P,RV3,3*%
%TO.N,REF_5V*%
X135000000Y-111000000D03*
%TO.P,RV3,2*%
%TO.N,A2*%
X135000000Y-113500000D03*
%TO.P,RV3,1*%
%TO.N,5V*%
X135000000Y-116000000D03*
D18*
%TO.P,RV3,*%
%TO.N,*%
X142000000Y-109100000D03*
X142000000Y-117900000D03*
%TD*%
D19*
%TO.N,REF_5V*%
X130000000Y-97000000D03*
%TO.N,Net-(A1-Pad5)*%
X120000000Y-101000000D03*
%TD*%
D20*
%TO.N,A0*%
X135000000Y-141500000D02*
X133500000Y-141500000D01*
X125940000Y-133940000D02*
X124240000Y-133940000D01*
X133500000Y-141500000D02*
X125940000Y-133940000D01*
D21*
%TO.N,REF_5V*%
X137000000Y-125000000D02*
X135000000Y-125000000D01*
X137000000Y-137000000D02*
X137000000Y-125000000D01*
X135000000Y-139000000D02*
X137000000Y-137000000D01*
X137000000Y-125000000D02*
X137000000Y-112000000D01*
X136000000Y-111000000D02*
X135000000Y-111000000D01*
X137000000Y-112000000D02*
X136000000Y-111000000D01*
X135000000Y-111000000D02*
X131000000Y-111000000D01*
X128540000Y-108540000D02*
X124240000Y-108540000D01*
X131000000Y-111000000D02*
X128540000Y-108540000D01*
X114000000Y-113000000D02*
X114000000Y-141000000D01*
X114000000Y-141000000D02*
X120000000Y-147000000D01*
X136000000Y-140000000D02*
X135000000Y-139000000D01*
X135000000Y-139000000D02*
X137000000Y-141000000D01*
X136000000Y-147000000D02*
X137000000Y-146000000D01*
X120000000Y-147000000D02*
X136000000Y-147000000D01*
X137000000Y-146000000D02*
X137000000Y-141000000D01*
X135000000Y-111000000D02*
X135000000Y-102000000D01*
X135000000Y-102000000D02*
X130000000Y-97000000D01*
D20*
%TO.N,A1*%
X124240000Y-131400000D02*
X128600000Y-131400000D01*
X132500000Y-127500000D02*
X135000000Y-127500000D01*
X128600000Y-131400000D02*
X132500000Y-127500000D01*
%TO.N,A2*%
X124240000Y-128860000D02*
X126140000Y-128860000D01*
X126140000Y-128860000D02*
X130000000Y-125000000D01*
X130000000Y-125000000D02*
X130000000Y-116000000D01*
X132500000Y-113500000D02*
X135000000Y-113500000D01*
X130000000Y-116000000D02*
X132500000Y-113500000D01*
%TO.N,5V*%
X120620000Y-113620000D02*
X120000000Y-113000000D01*
X122000000Y-113240000D02*
X122380000Y-113620000D01*
X122380000Y-113620000D02*
X120620000Y-113620000D01*
X124240000Y-113620000D02*
X122380000Y-113620000D01*
X122000000Y-102000000D02*
X136000000Y-88000000D01*
X140000000Y-88000000D02*
X136000000Y-88000000D01*
X122000000Y-102000000D02*
X122000000Y-113240000D01*
%TO.N,Net-(A1-Pad5)*%
X111000000Y-115000000D02*
X109840000Y-116160000D01*
X111000000Y-104000000D02*
X111000000Y-115000000D01*
X114000000Y-101000000D02*
X111000000Y-104000000D01*
X109840000Y-116160000D02*
X109000000Y-116160000D01*
X120000000Y-101000000D02*
X114000000Y-101000000D01*
%TD*%
D22*
%TO.N,REF_5V*%
X145768083Y-76731173D02*
X146511891Y-76934656D01*
X147207905Y-77266638D01*
X147834130Y-77716626D01*
X148370777Y-78270403D01*
X148800871Y-78910451D01*
X149110829Y-79616553D01*
X149292065Y-80371457D01*
X149340001Y-81024220D01*
X149340000Y-144970608D01*
X149268827Y-145768083D01*
X149065344Y-146511890D01*
X148733363Y-147207904D01*
X148283374Y-147834130D01*
X147729597Y-148370777D01*
X147089549Y-148800871D01*
X146383447Y-149110829D01*
X145628543Y-149292065D01*
X144975793Y-149340000D01*
X110029392Y-149340000D01*
X109231917Y-149268827D01*
X108488110Y-149065344D01*
X107792096Y-148733363D01*
X107165870Y-148283374D01*
X106629223Y-147729597D01*
X106199129Y-147089549D01*
X105889171Y-146383447D01*
X105710800Y-145640475D01*
X139365000Y-145640475D01*
X139365000Y-146159525D01*
X139466261Y-146668601D01*
X139664893Y-147148141D01*
X139953262Y-147579715D01*
X140320285Y-147946738D01*
X140751859Y-148235107D01*
X141231399Y-148433739D01*
X141740475Y-148535000D01*
X142259525Y-148535000D01*
X142768601Y-148433739D01*
X143248141Y-148235107D01*
X143679715Y-147946738D01*
X144046738Y-147579715D01*
X144335107Y-147148141D01*
X144533739Y-146668601D01*
X144635000Y-146159525D01*
X144635000Y-145640475D01*
X144533739Y-145131399D01*
X144335107Y-144651859D01*
X144046738Y-144220285D01*
X143679715Y-143853262D01*
X143248141Y-143564893D01*
X142768601Y-143366261D01*
X142259525Y-143265000D01*
X141740475Y-143265000D01*
X141231399Y-143366261D01*
X140751859Y-143564893D01*
X140320285Y-143853262D01*
X139953262Y-144220285D01*
X139664893Y-144651859D01*
X139466261Y-145131399D01*
X139365000Y-145640475D01*
X105710800Y-145640475D01*
X105707935Y-145628543D01*
X105660000Y-144975793D01*
X105660000Y-105200000D01*
X107561928Y-105200000D01*
X107561928Y-106800000D01*
X107574188Y-106924482D01*
X107610498Y-107044180D01*
X107669463Y-107154494D01*
X107748815Y-107251185D01*
X107845506Y-107330537D01*
X107955820Y-107389502D01*
X108075518Y-107425812D01*
X108083961Y-107426643D01*
X107885363Y-107625241D01*
X107728320Y-107860273D01*
X107620147Y-108121426D01*
X107565000Y-108398665D01*
X107565000Y-108681335D01*
X107620147Y-108958574D01*
X107728320Y-109219727D01*
X107885363Y-109454759D01*
X108085241Y-109654637D01*
X108317759Y-109810000D01*
X108085241Y-109965363D01*
X107885363Y-110165241D01*
X107728320Y-110400273D01*
X107620147Y-110661426D01*
X107565000Y-110938665D01*
X107565000Y-111221335D01*
X107620147Y-111498574D01*
X107728320Y-111759727D01*
X107885363Y-111994759D01*
X108085241Y-112194637D01*
X108320273Y-112351680D01*
X108330865Y-112356067D01*
X108144869Y-112467615D01*
X107936481Y-112656586D01*
X107768963Y-112882580D01*
X107648754Y-113136913D01*
X107608096Y-113270961D01*
X107730085Y-113493000D01*
X108873000Y-113493000D01*
X108873000Y-113473000D01*
X109127000Y-113473000D01*
X109127000Y-113493000D01*
X109147000Y-113493000D01*
X109147000Y-113747000D01*
X109127000Y-113747000D01*
X109127000Y-113767000D01*
X108873000Y-113767000D01*
X108873000Y-113747000D01*
X107730085Y-113747000D01*
X107608096Y-113969039D01*
X107648754Y-114103087D01*
X107768963Y-114357420D01*
X107936481Y-114583414D01*
X108144869Y-114772385D01*
X108330865Y-114883933D01*
X108320273Y-114888320D01*
X108085241Y-115045363D01*
X107885363Y-115245241D01*
X107728320Y-115480273D01*
X107620147Y-115741426D01*
X107565000Y-116018665D01*
X107565000Y-116301335D01*
X107620147Y-116578574D01*
X107728320Y-116839727D01*
X107885363Y-117074759D01*
X108085241Y-117274637D01*
X108317759Y-117430000D01*
X108085241Y-117585363D01*
X107885363Y-117785241D01*
X107728320Y-118020273D01*
X107620147Y-118281426D01*
X107565000Y-118558665D01*
X107565000Y-118841335D01*
X107620147Y-119118574D01*
X107728320Y-119379727D01*
X107885363Y-119614759D01*
X108085241Y-119814637D01*
X108317759Y-119970000D01*
X108085241Y-120125363D01*
X107885363Y-120325241D01*
X107728320Y-120560273D01*
X107620147Y-120821426D01*
X107565000Y-121098665D01*
X107565000Y-121381335D01*
X107620147Y-121658574D01*
X107728320Y-121919727D01*
X107885363Y-122154759D01*
X108085241Y-122354637D01*
X108317759Y-122510000D01*
X108085241Y-122665363D01*
X107885363Y-122865241D01*
X107728320Y-123100273D01*
X107620147Y-123361426D01*
X107565000Y-123638665D01*
X107565000Y-123921335D01*
X107620147Y-124198574D01*
X107728320Y-124459727D01*
X107885363Y-124694759D01*
X108085241Y-124894637D01*
X108317759Y-125050000D01*
X108085241Y-125205363D01*
X107885363Y-125405241D01*
X107728320Y-125640273D01*
X107620147Y-125901426D01*
X107565000Y-126178665D01*
X107565000Y-126461335D01*
X107620147Y-126738574D01*
X107728320Y-126999727D01*
X107885363Y-127234759D01*
X108085241Y-127434637D01*
X108317759Y-127590000D01*
X108085241Y-127745363D01*
X107885363Y-127945241D01*
X107728320Y-128180273D01*
X107620147Y-128441426D01*
X107565000Y-128718665D01*
X107565000Y-129001335D01*
X107620147Y-129278574D01*
X107728320Y-129539727D01*
X107885363Y-129774759D01*
X108085241Y-129974637D01*
X108317759Y-130130000D01*
X108085241Y-130285363D01*
X107885363Y-130485241D01*
X107728320Y-130720273D01*
X107620147Y-130981426D01*
X107565000Y-131258665D01*
X107565000Y-131541335D01*
X107620147Y-131818574D01*
X107728320Y-132079727D01*
X107885363Y-132314759D01*
X108085241Y-132514637D01*
X108317759Y-132670000D01*
X108085241Y-132825363D01*
X107885363Y-133025241D01*
X107728320Y-133260273D01*
X107620147Y-133521426D01*
X107565000Y-133798665D01*
X107565000Y-134081335D01*
X107620147Y-134358574D01*
X107728320Y-134619727D01*
X107885363Y-134854759D01*
X108085241Y-135054637D01*
X108317759Y-135210000D01*
X108085241Y-135365363D01*
X107885363Y-135565241D01*
X107728320Y-135800273D01*
X107620147Y-136061426D01*
X107565000Y-136338665D01*
X107565000Y-136621335D01*
X107620147Y-136898574D01*
X107728320Y-137159727D01*
X107885363Y-137394759D01*
X108085241Y-137594637D01*
X108317759Y-137750000D01*
X108085241Y-137905363D01*
X107885363Y-138105241D01*
X107728320Y-138340273D01*
X107620147Y-138601426D01*
X107565000Y-138878665D01*
X107565000Y-139161335D01*
X107620147Y-139438574D01*
X107728320Y-139699727D01*
X107885363Y-139934759D01*
X108085241Y-140134637D01*
X108317759Y-140290000D01*
X108085241Y-140445363D01*
X107885363Y-140645241D01*
X107728320Y-140880273D01*
X107620147Y-141141426D01*
X107565000Y-141418665D01*
X107565000Y-141701335D01*
X107620147Y-141978574D01*
X107728320Y-142239727D01*
X107885363Y-142474759D01*
X108085241Y-142674637D01*
X108320273Y-142831680D01*
X108581426Y-142939853D01*
X108858665Y-142995000D01*
X109141335Y-142995000D01*
X109418574Y-142939853D01*
X109679727Y-142831680D01*
X109914759Y-142674637D01*
X110114637Y-142474759D01*
X110271680Y-142239727D01*
X110379853Y-141978574D01*
X110435000Y-141701335D01*
X110435000Y-141418665D01*
X110379853Y-141141426D01*
X110271680Y-140880273D01*
X110114637Y-140645241D01*
X109914759Y-140445363D01*
X109682241Y-140290000D01*
X109914759Y-140134637D01*
X110114637Y-139934759D01*
X110271680Y-139699727D01*
X110379853Y-139438574D01*
X110435000Y-139161335D01*
X110435000Y-138878665D01*
X110379853Y-138601426D01*
X110271680Y-138340273D01*
X110114637Y-138105241D01*
X109914759Y-137905363D01*
X109682241Y-137750000D01*
X109914759Y-137594637D01*
X110114637Y-137394759D01*
X110271680Y-137159727D01*
X110379853Y-136898574D01*
X110435000Y-136621335D01*
X110435000Y-136338665D01*
X110379853Y-136061426D01*
X110271680Y-135800273D01*
X110114637Y-135565241D01*
X109914759Y-135365363D01*
X109682241Y-135210000D01*
X109914759Y-135054637D01*
X110114637Y-134854759D01*
X110271680Y-134619727D01*
X110379853Y-134358574D01*
X110435000Y-134081335D01*
X110435000Y-133798665D01*
X110379853Y-133521426D01*
X110271680Y-133260273D01*
X110114637Y-133025241D01*
X109914759Y-132825363D01*
X109682241Y-132670000D01*
X109914759Y-132514637D01*
X110114637Y-132314759D01*
X110271680Y-132079727D01*
X110379853Y-131818574D01*
X110435000Y-131541335D01*
X110435000Y-131258665D01*
X110379853Y-130981426D01*
X110271680Y-130720273D01*
X110114637Y-130485241D01*
X109914759Y-130285363D01*
X109682241Y-130130000D01*
X109914759Y-129974637D01*
X110114637Y-129774759D01*
X110271680Y-129539727D01*
X110379853Y-129278574D01*
X110435000Y-129001335D01*
X110435000Y-128718665D01*
X110379853Y-128441426D01*
X110271680Y-128180273D01*
X110114637Y-127945241D01*
X109914759Y-127745363D01*
X109682241Y-127590000D01*
X109914759Y-127434637D01*
X110114637Y-127234759D01*
X110271680Y-126999727D01*
X110379853Y-126738574D01*
X110435000Y-126461335D01*
X110435000Y-126178665D01*
X110379853Y-125901426D01*
X110271680Y-125640273D01*
X110114637Y-125405241D01*
X109914759Y-125205363D01*
X109682241Y-125050000D01*
X109914759Y-124894637D01*
X110114637Y-124694759D01*
X110271680Y-124459727D01*
X110379853Y-124198574D01*
X110435000Y-123921335D01*
X110435000Y-123638665D01*
X110379853Y-123361426D01*
X110271680Y-123100273D01*
X110114637Y-122865241D01*
X109914759Y-122665363D01*
X109682241Y-122510000D01*
X109914759Y-122354637D01*
X110114637Y-122154759D01*
X110271680Y-121919727D01*
X110379853Y-121658574D01*
X110435000Y-121381335D01*
X110435000Y-121098665D01*
X110379853Y-120821426D01*
X110271680Y-120560273D01*
X110114637Y-120325241D01*
X109914759Y-120125363D01*
X109682241Y-119970000D01*
X109914759Y-119814637D01*
X110114637Y-119614759D01*
X110271680Y-119379727D01*
X110379853Y-119118574D01*
X110435000Y-118841335D01*
X110435000Y-118558665D01*
X110379853Y-118281426D01*
X110271680Y-118020273D01*
X110114637Y-117785241D01*
X109914759Y-117585363D01*
X109682241Y-117430000D01*
X109914759Y-117274637D01*
X110114637Y-117074759D01*
X110176021Y-116982891D01*
X110180313Y-116981589D01*
X110334059Y-116899411D01*
X110468817Y-116788817D01*
X110496534Y-116755044D01*
X111595049Y-115656530D01*
X111628817Y-115628817D01*
X111681229Y-115564954D01*
X111739411Y-115494059D01*
X111787038Y-115404954D01*
X111821589Y-115340313D01*
X111872195Y-115173490D01*
X111885000Y-115043477D01*
X111885000Y-115043469D01*
X111889281Y-115000000D01*
X111885000Y-114956531D01*
X111885000Y-113850000D01*
X112511928Y-113850000D01*
X112524188Y-113974482D01*
X112560498Y-114094180D01*
X112619463Y-114204494D01*
X112698815Y-114301185D01*
X112795506Y-114380537D01*
X112905820Y-114439502D01*
X113025518Y-114475812D01*
X113150000Y-114488072D01*
X113714250Y-114485000D01*
X113873000Y-114326250D01*
X113873000Y-113127000D01*
X114127000Y-113127000D01*
X114127000Y-114326250D01*
X114285750Y-114485000D01*
X114850000Y-114488072D01*
X114974482Y-114475812D01*
X115094180Y-114439502D01*
X115204494Y-114380537D01*
X115301185Y-114301185D01*
X115380537Y-114204494D01*
X115439502Y-114094180D01*
X115475812Y-113974482D01*
X115488072Y-113850000D01*
X115485000Y-113285750D01*
X115326250Y-113127000D01*
X114127000Y-113127000D01*
X113873000Y-113127000D01*
X112673750Y-113127000D01*
X112515000Y-113285750D01*
X112511928Y-113850000D01*
X111885000Y-113850000D01*
X111885000Y-112150000D01*
X112511928Y-112150000D01*
X112515000Y-112714250D01*
X112673750Y-112873000D01*
X113873000Y-112873000D01*
X113873000Y-111673750D01*
X114127000Y-111673750D01*
X114127000Y-112873000D01*
X115326250Y-112873000D01*
X115485000Y-112714250D01*
X115488072Y-112150000D01*
X118511928Y-112150000D01*
X118511928Y-113850000D01*
X118524188Y-113974482D01*
X118560498Y-114094180D01*
X118619463Y-114204494D01*
X118698815Y-114301185D01*
X118795506Y-114380537D01*
X118905820Y-114439502D01*
X119025518Y-114475812D01*
X119150000Y-114488072D01*
X120432919Y-114488072D01*
X120446510Y-114492195D01*
X120576523Y-114505000D01*
X120576533Y-114505000D01*
X120619999Y-114509281D01*
X120663465Y-114505000D01*
X122336533Y-114505000D01*
X122379999Y-114509281D01*
X122423465Y-114505000D01*
X123105479Y-114505000D01*
X123125363Y-114534759D01*
X123325241Y-114734637D01*
X123557759Y-114890000D01*
X123325241Y-115045363D01*
X123125363Y-115245241D01*
X122968320Y-115480273D01*
X122860147Y-115741426D01*
X122805000Y-116018665D01*
X122805000Y-116301335D01*
X122860147Y-116578574D01*
X122968320Y-116839727D01*
X123125363Y-117074759D01*
X123325241Y-117274637D01*
X123557759Y-117430000D01*
X123325241Y-117585363D01*
X123125363Y-117785241D01*
X122968320Y-118020273D01*
X122860147Y-118281426D01*
X122805000Y-118558665D01*
X122805000Y-118841335D01*
X122860147Y-119118574D01*
X122968320Y-119379727D01*
X123125363Y-119614759D01*
X123325241Y-119814637D01*
X123557759Y-119970000D01*
X123325241Y-120125363D01*
X123125363Y-120325241D01*
X122968320Y-120560273D01*
X122860147Y-120821426D01*
X122805000Y-121098665D01*
X122805000Y-121381335D01*
X122860147Y-121658574D01*
X122968320Y-121919727D01*
X123125363Y-122154759D01*
X123325241Y-122354637D01*
X123557759Y-122510000D01*
X123325241Y-122665363D01*
X123125363Y-122865241D01*
X122968320Y-123100273D01*
X122860147Y-123361426D01*
X122805000Y-123638665D01*
X122805000Y-123921335D01*
X122860147Y-124198574D01*
X122968320Y-124459727D01*
X123125363Y-124694759D01*
X123325241Y-124894637D01*
X123557759Y-125050000D01*
X123325241Y-125205363D01*
X123125363Y-125405241D01*
X122968320Y-125640273D01*
X122860147Y-125901426D01*
X122805000Y-126178665D01*
X122805000Y-126461335D01*
X122860147Y-126738574D01*
X122968320Y-126999727D01*
X123125363Y-127234759D01*
X123325241Y-127434637D01*
X123557759Y-127590000D01*
X123325241Y-127745363D01*
X123125363Y-127945241D01*
X122968320Y-128180273D01*
X122860147Y-128441426D01*
X122805000Y-128718665D01*
X122805000Y-129001335D01*
X122860147Y-129278574D01*
X122968320Y-129539727D01*
X123125363Y-129774759D01*
X123325241Y-129974637D01*
X123557759Y-130130000D01*
X123325241Y-130285363D01*
X123125363Y-130485241D01*
X122968320Y-130720273D01*
X122860147Y-130981426D01*
X122805000Y-131258665D01*
X122805000Y-131541335D01*
X122860147Y-131818574D01*
X122968320Y-132079727D01*
X123125363Y-132314759D01*
X123325241Y-132514637D01*
X123557759Y-132670000D01*
X123325241Y-132825363D01*
X123125363Y-133025241D01*
X122968320Y-133260273D01*
X122860147Y-133521426D01*
X122805000Y-133798665D01*
X122805000Y-134081335D01*
X122860147Y-134358574D01*
X122968320Y-134619727D01*
X123125363Y-134854759D01*
X123325241Y-135054637D01*
X123557759Y-135210000D01*
X123325241Y-135365363D01*
X123125363Y-135565241D01*
X122968320Y-135800273D01*
X122860147Y-136061426D01*
X122805000Y-136338665D01*
X122805000Y-136621335D01*
X122860147Y-136898574D01*
X122968320Y-137159727D01*
X123125363Y-137394759D01*
X123325241Y-137594637D01*
X123557759Y-137750000D01*
X123325241Y-137905363D01*
X123125363Y-138105241D01*
X122968320Y-138340273D01*
X122860147Y-138601426D01*
X122805000Y-138878665D01*
X122805000Y-139161335D01*
X122860147Y-139438574D01*
X122968320Y-139699727D01*
X123125363Y-139934759D01*
X123325241Y-140134637D01*
X123557759Y-140290000D01*
X123325241Y-140445363D01*
X123125363Y-140645241D01*
X122968320Y-140880273D01*
X122860147Y-141141426D01*
X122805000Y-141418665D01*
X122805000Y-141701335D01*
X122860147Y-141978574D01*
X122968320Y-142239727D01*
X123125363Y-142474759D01*
X123325241Y-142674637D01*
X123560273Y-142831680D01*
X123821426Y-142939853D01*
X124098665Y-142995000D01*
X124381335Y-142995000D01*
X124658574Y-142939853D01*
X124919727Y-142831680D01*
X125154759Y-142674637D01*
X125354637Y-142474759D01*
X125511680Y-142239727D01*
X125619853Y-141978574D01*
X125675000Y-141701335D01*
X125675000Y-141418665D01*
X125619853Y-141141426D01*
X125511680Y-140880273D01*
X125354637Y-140645241D01*
X125154759Y-140445363D01*
X124922241Y-140290000D01*
X125154759Y-140134637D01*
X125354637Y-139934759D01*
X125511680Y-139699727D01*
X125619853Y-139438574D01*
X125675000Y-139161335D01*
X125675000Y-138878665D01*
X125619853Y-138601426D01*
X125511680Y-138340273D01*
X125354637Y-138105241D01*
X125154759Y-137905363D01*
X124922241Y-137750000D01*
X125154759Y-137594637D01*
X125354637Y-137394759D01*
X125511680Y-137159727D01*
X125619853Y-136898574D01*
X125675000Y-136621335D01*
X125675000Y-136338665D01*
X125619853Y-136061426D01*
X125511680Y-135800273D01*
X125354637Y-135565241D01*
X125154759Y-135365363D01*
X124922241Y-135210000D01*
X125154759Y-135054637D01*
X125354637Y-134854759D01*
X125374521Y-134825000D01*
X125573422Y-134825000D01*
X132843470Y-142095049D01*
X132871183Y-142128817D01*
X132904951Y-142156530D01*
X132904953Y-142156532D01*
X133005941Y-142239411D01*
X133159686Y-142321589D01*
X133326510Y-142372195D01*
X133456523Y-142385000D01*
X133456531Y-142385000D01*
X133500000Y-142389281D01*
X133543469Y-142385000D01*
X133745210Y-142385000D01*
X133807688Y-142478505D01*
X134021495Y-142692312D01*
X134107831Y-142750000D01*
X134021495Y-142807688D01*
X133807688Y-143021495D01*
X133639701Y-143272905D01*
X133523989Y-143552257D01*
X133465000Y-143848816D01*
X133465000Y-144151184D01*
X133523989Y-144447743D01*
X133639701Y-144727095D01*
X133807688Y-144978505D01*
X134021495Y-145192312D01*
X134272905Y-145360299D01*
X134552257Y-145476011D01*
X134848816Y-145535000D01*
X135151184Y-145535000D01*
X135447743Y-145476011D01*
X135727095Y-145360299D01*
X135978505Y-145192312D01*
X136192312Y-144978505D01*
X136360299Y-144727095D01*
X136476011Y-144447743D01*
X136535000Y-144151184D01*
X136535000Y-143848816D01*
X136476011Y-143552257D01*
X136360299Y-143272905D01*
X136192312Y-143021495D01*
X135978505Y-142807688D01*
X135892169Y-142750000D01*
X135978505Y-142692312D01*
X136192312Y-142478505D01*
X136360299Y-142227095D01*
X136476011Y-141947743D01*
X136535000Y-141651184D01*
X136535000Y-141348816D01*
X136476011Y-141052257D01*
X136360299Y-140772905D01*
X136192312Y-140521495D01*
X135978505Y-140307688D01*
X135835690Y-140212262D01*
X135884475Y-140064080D01*
X135000000Y-139179605D01*
X134115525Y-140064080D01*
X134164310Y-140212262D01*
X134021495Y-140307688D01*
X133807688Y-140521495D01*
X133793824Y-140542245D01*
X132318132Y-139066553D01*
X133459009Y-139066553D01*
X133501603Y-139365907D01*
X133601778Y-139651199D01*
X133681739Y-139800792D01*
X133935920Y-139884475D01*
X134820395Y-139000000D01*
X135179605Y-139000000D01*
X136064080Y-139884475D01*
X136318261Y-139800792D01*
X136449158Y-139528225D01*
X136524365Y-139235358D01*
X136540991Y-138933447D01*
X136498397Y-138634093D01*
X136398222Y-138348801D01*
X136318261Y-138199208D01*
X136064080Y-138115525D01*
X135179605Y-139000000D01*
X134820395Y-139000000D01*
X133935920Y-138115525D01*
X133681739Y-138199208D01*
X133550842Y-138471775D01*
X133475635Y-138764642D01*
X133459009Y-139066553D01*
X132318132Y-139066553D01*
X131187499Y-137935920D01*
X134115525Y-137935920D01*
X135000000Y-138820395D01*
X135884475Y-137935920D01*
X135800792Y-137681739D01*
X135528225Y-137550842D01*
X135235358Y-137475635D01*
X134933447Y-137459009D01*
X134634093Y-137501603D01*
X134348801Y-137601778D01*
X134199208Y-137681739D01*
X134115525Y-137935920D01*
X131187499Y-137935920D01*
X126596534Y-133344956D01*
X126568817Y-133311183D01*
X126434059Y-133200589D01*
X126280313Y-133118411D01*
X126113490Y-133067805D01*
X125983477Y-133055000D01*
X125983469Y-133055000D01*
X125940000Y-133050719D01*
X125896531Y-133055000D01*
X125374521Y-133055000D01*
X125354637Y-133025241D01*
X125154759Y-132825363D01*
X124922241Y-132670000D01*
X125154759Y-132514637D01*
X125354637Y-132314759D01*
X125374521Y-132285000D01*
X128556531Y-132285000D01*
X128600000Y-132289281D01*
X128643469Y-132285000D01*
X128643477Y-132285000D01*
X128773490Y-132272195D01*
X128940313Y-132221589D01*
X129094059Y-132139411D01*
X129228817Y-132028817D01*
X129256534Y-131995044D01*
X129611103Y-131640475D01*
X139365000Y-131640475D01*
X139365000Y-132159525D01*
X139466261Y-132668601D01*
X139664893Y-133148141D01*
X139953262Y-133579715D01*
X140320285Y-133946738D01*
X140751859Y-134235107D01*
X141231399Y-134433739D01*
X141564517Y-134500000D01*
X141231399Y-134566261D01*
X140751859Y-134764893D01*
X140320285Y-135053262D01*
X139953262Y-135420285D01*
X139664893Y-135851859D01*
X139466261Y-136331399D01*
X139365000Y-136840475D01*
X139365000Y-137359525D01*
X139466261Y-137868601D01*
X139664893Y-138348141D01*
X139953262Y-138779715D01*
X140320285Y-139146738D01*
X140751859Y-139435107D01*
X141231399Y-139633739D01*
X141740475Y-139735000D01*
X142259525Y-139735000D01*
X142768601Y-139633739D01*
X143248141Y-139435107D01*
X143679715Y-139146738D01*
X144046738Y-138779715D01*
X144335107Y-138348141D01*
X144533739Y-137868601D01*
X144635000Y-137359525D01*
X144635000Y-136840475D01*
X144533739Y-136331399D01*
X144335107Y-135851859D01*
X144046738Y-135420285D01*
X143679715Y-135053262D01*
X143248141Y-134764893D01*
X142768601Y-134566261D01*
X142435483Y-134500000D01*
X142768601Y-134433739D01*
X143248141Y-134235107D01*
X143679715Y-133946738D01*
X144046738Y-133579715D01*
X144335107Y-133148141D01*
X144533739Y-132668601D01*
X144635000Y-132159525D01*
X144635000Y-131640475D01*
X144533739Y-131131399D01*
X144335107Y-130651859D01*
X144046738Y-130220285D01*
X143679715Y-129853262D01*
X143248141Y-129564893D01*
X142768601Y-129366261D01*
X142259525Y-129265000D01*
X141740475Y-129265000D01*
X141231399Y-129366261D01*
X140751859Y-129564893D01*
X140320285Y-129853262D01*
X139953262Y-130220285D01*
X139664893Y-130651859D01*
X139466261Y-131131399D01*
X139365000Y-131640475D01*
X129611103Y-131640475D01*
X132866579Y-128385000D01*
X133745210Y-128385000D01*
X133807688Y-128478505D01*
X134021495Y-128692312D01*
X134107831Y-128750000D01*
X134021495Y-128807688D01*
X133807688Y-129021495D01*
X133639701Y-129272905D01*
X133523989Y-129552257D01*
X133465000Y-129848816D01*
X133465000Y-130151184D01*
X133523989Y-130447743D01*
X133639701Y-130727095D01*
X133807688Y-130978505D01*
X134021495Y-131192312D01*
X134272905Y-131360299D01*
X134552257Y-131476011D01*
X134848816Y-131535000D01*
X135151184Y-131535000D01*
X135447743Y-131476011D01*
X135727095Y-131360299D01*
X135978505Y-131192312D01*
X136192312Y-130978505D01*
X136360299Y-130727095D01*
X136476011Y-130447743D01*
X136535000Y-130151184D01*
X136535000Y-129848816D01*
X136476011Y-129552257D01*
X136360299Y-129272905D01*
X136192312Y-129021495D01*
X135978505Y-128807688D01*
X135892169Y-128750000D01*
X135978505Y-128692312D01*
X136192312Y-128478505D01*
X136360299Y-128227095D01*
X136476011Y-127947743D01*
X136535000Y-127651184D01*
X136535000Y-127348816D01*
X136476011Y-127052257D01*
X136360299Y-126772905D01*
X136192312Y-126521495D01*
X135978505Y-126307688D01*
X135835690Y-126212262D01*
X135884475Y-126064080D01*
X135000000Y-125179605D01*
X134115525Y-126064080D01*
X134164310Y-126212262D01*
X134021495Y-126307688D01*
X133807688Y-126521495D01*
X133745210Y-126615000D01*
X132543469Y-126615000D01*
X132500000Y-126610719D01*
X132456531Y-126615000D01*
X132456523Y-126615000D01*
X132326510Y-126627805D01*
X132159687Y-126678411D01*
X132047129Y-126738574D01*
X132005941Y-126760589D01*
X131904953Y-126843468D01*
X131904951Y-126843470D01*
X131871183Y-126871183D01*
X131843470Y-126904951D01*
X128233422Y-130515000D01*
X125374521Y-130515000D01*
X125354637Y-130485241D01*
X125154759Y-130285363D01*
X124922241Y-130130000D01*
X125154759Y-129974637D01*
X125354637Y-129774759D01*
X125374521Y-129745000D01*
X126096531Y-129745000D01*
X126140000Y-129749281D01*
X126183469Y-129745000D01*
X126183477Y-129745000D01*
X126313490Y-129732195D01*
X126480313Y-129681589D01*
X126634059Y-129599411D01*
X126768817Y-129488817D01*
X126796534Y-129455044D01*
X130595050Y-125656529D01*
X130628817Y-125628817D01*
X130739411Y-125494059D01*
X130821589Y-125340313D01*
X130872195Y-125173490D01*
X130882727Y-125066553D01*
X133459009Y-125066553D01*
X133501603Y-125365907D01*
X133601778Y-125651199D01*
X133681739Y-125800792D01*
X133935920Y-125884475D01*
X134820395Y-125000000D01*
X135179605Y-125000000D01*
X136064080Y-125884475D01*
X136318261Y-125800792D01*
X136449158Y-125528225D01*
X136524365Y-125235358D01*
X136540991Y-124933447D01*
X136498397Y-124634093D01*
X136398222Y-124348801D01*
X136318261Y-124199208D01*
X136064080Y-124115525D01*
X135179605Y-125000000D01*
X134820395Y-125000000D01*
X133935920Y-124115525D01*
X133681739Y-124199208D01*
X133550842Y-124471775D01*
X133475635Y-124764642D01*
X133459009Y-125066553D01*
X130882727Y-125066553D01*
X130885000Y-125043477D01*
X130885000Y-125043467D01*
X130889281Y-125000001D01*
X130885000Y-124956535D01*
X130885000Y-123935920D01*
X134115525Y-123935920D01*
X135000000Y-124820395D01*
X135884475Y-123935920D01*
X135800792Y-123681739D01*
X135528225Y-123550842D01*
X135235358Y-123475635D01*
X134933447Y-123459009D01*
X134634093Y-123501603D01*
X134348801Y-123601778D01*
X134199208Y-123681739D01*
X134115525Y-123935920D01*
X130885000Y-123935920D01*
X130885000Y-117640475D01*
X139365000Y-117640475D01*
X139365000Y-118159525D01*
X139466261Y-118668601D01*
X139664893Y-119148141D01*
X139953262Y-119579715D01*
X140320285Y-119946738D01*
X140751859Y-120235107D01*
X141231399Y-120433739D01*
X141564517Y-120500000D01*
X141231399Y-120566261D01*
X140751859Y-120764893D01*
X140320285Y-121053262D01*
X139953262Y-121420285D01*
X139664893Y-121851859D01*
X139466261Y-122331399D01*
X139365000Y-122840475D01*
X139365000Y-123359525D01*
X139466261Y-123868601D01*
X139664893Y-124348141D01*
X139953262Y-124779715D01*
X140320285Y-125146738D01*
X140751859Y-125435107D01*
X141231399Y-125633739D01*
X141740475Y-125735000D01*
X142259525Y-125735000D01*
X142768601Y-125633739D01*
X143248141Y-125435107D01*
X143679715Y-125146738D01*
X144046738Y-124779715D01*
X144335107Y-124348141D01*
X144533739Y-123868601D01*
X144635000Y-123359525D01*
X144635000Y-122840475D01*
X144533739Y-122331399D01*
X144335107Y-121851859D01*
X144046738Y-121420285D01*
X143679715Y-121053262D01*
X143248141Y-120764893D01*
X142768601Y-120566261D01*
X142435483Y-120500000D01*
X142768601Y-120433739D01*
X143248141Y-120235107D01*
X143679715Y-119946738D01*
X144046738Y-119579715D01*
X144335107Y-119148141D01*
X144533739Y-118668601D01*
X144635000Y-118159525D01*
X144635000Y-117640475D01*
X144533739Y-117131399D01*
X144335107Y-116651859D01*
X144046738Y-116220285D01*
X143679715Y-115853262D01*
X143248141Y-115564893D01*
X142768601Y-115366261D01*
X142259525Y-115265000D01*
X141740475Y-115265000D01*
X141231399Y-115366261D01*
X140751859Y-115564893D01*
X140320285Y-115853262D01*
X139953262Y-116220285D01*
X139664893Y-116651859D01*
X139466261Y-117131399D01*
X139365000Y-117640475D01*
X130885000Y-117640475D01*
X130885000Y-116366578D01*
X132866579Y-114385000D01*
X133745210Y-114385000D01*
X133807688Y-114478505D01*
X134021495Y-114692312D01*
X134107831Y-114750000D01*
X134021495Y-114807688D01*
X133807688Y-115021495D01*
X133639701Y-115272905D01*
X133523989Y-115552257D01*
X133465000Y-115848816D01*
X133465000Y-116151184D01*
X133523989Y-116447743D01*
X133639701Y-116727095D01*
X133807688Y-116978505D01*
X134021495Y-117192312D01*
X134272905Y-117360299D01*
X134552257Y-117476011D01*
X134848816Y-117535000D01*
X135151184Y-117535000D01*
X135447743Y-117476011D01*
X135727095Y-117360299D01*
X135978505Y-117192312D01*
X136192312Y-116978505D01*
X136360299Y-116727095D01*
X136476011Y-116447743D01*
X136535000Y-116151184D01*
X136535000Y-115848816D01*
X136476011Y-115552257D01*
X136360299Y-115272905D01*
X136192312Y-115021495D01*
X135978505Y-114807688D01*
X135892169Y-114750000D01*
X135978505Y-114692312D01*
X136192312Y-114478505D01*
X136360299Y-114227095D01*
X136476011Y-113947743D01*
X136535000Y-113651184D01*
X136535000Y-113348816D01*
X136476011Y-113052257D01*
X136360299Y-112772905D01*
X136192312Y-112521495D01*
X135978505Y-112307688D01*
X135835690Y-112212262D01*
X135884475Y-112064080D01*
X135000000Y-111179605D01*
X134115525Y-112064080D01*
X134164310Y-112212262D01*
X134021495Y-112307688D01*
X133807688Y-112521495D01*
X133745210Y-112615000D01*
X132543469Y-112615000D01*
X132500000Y-112610719D01*
X132456531Y-112615000D01*
X132456523Y-112615000D01*
X132326510Y-112627805D01*
X132159687Y-112678411D01*
X132005941Y-112760589D01*
X131904953Y-112843468D01*
X131904951Y-112843470D01*
X131871183Y-112871183D01*
X131843470Y-112904951D01*
X129404951Y-115343471D01*
X129371184Y-115371183D01*
X129343471Y-115404951D01*
X129343468Y-115404954D01*
X129260590Y-115505941D01*
X129178412Y-115659687D01*
X129127805Y-115826510D01*
X129110719Y-116000000D01*
X129115001Y-116043479D01*
X129115000Y-124633421D01*
X125773422Y-127975000D01*
X125374521Y-127975000D01*
X125354637Y-127945241D01*
X125154759Y-127745363D01*
X124922241Y-127590000D01*
X125154759Y-127434637D01*
X125354637Y-127234759D01*
X125511680Y-126999727D01*
X125619853Y-126738574D01*
X125675000Y-126461335D01*
X125675000Y-126178665D01*
X125619853Y-125901426D01*
X125511680Y-125640273D01*
X125354637Y-125405241D01*
X125154759Y-125205363D01*
X124922241Y-125050000D01*
X125154759Y-124894637D01*
X125354637Y-124694759D01*
X125511680Y-124459727D01*
X125619853Y-124198574D01*
X125675000Y-123921335D01*
X125675000Y-123638665D01*
X125619853Y-123361426D01*
X125511680Y-123100273D01*
X125354637Y-122865241D01*
X125154759Y-122665363D01*
X124922241Y-122510000D01*
X125154759Y-122354637D01*
X125354637Y-122154759D01*
X125511680Y-121919727D01*
X125619853Y-121658574D01*
X125675000Y-121381335D01*
X125675000Y-121098665D01*
X125619853Y-120821426D01*
X125511680Y-120560273D01*
X125354637Y-120325241D01*
X125154759Y-120125363D01*
X124922241Y-119970000D01*
X125154759Y-119814637D01*
X125354637Y-119614759D01*
X125511680Y-119379727D01*
X125619853Y-119118574D01*
X125675000Y-118841335D01*
X125675000Y-118558665D01*
X125619853Y-118281426D01*
X125511680Y-118020273D01*
X125354637Y-117785241D01*
X125154759Y-117585363D01*
X124922241Y-117430000D01*
X125154759Y-117274637D01*
X125354637Y-117074759D01*
X125511680Y-116839727D01*
X125619853Y-116578574D01*
X125675000Y-116301335D01*
X125675000Y-116018665D01*
X125619853Y-115741426D01*
X125511680Y-115480273D01*
X125354637Y-115245241D01*
X125154759Y-115045363D01*
X124922241Y-114890000D01*
X125154759Y-114734637D01*
X125354637Y-114534759D01*
X125511680Y-114299727D01*
X125619853Y-114038574D01*
X125675000Y-113761335D01*
X125675000Y-113478665D01*
X125619853Y-113201426D01*
X125511680Y-112940273D01*
X125354637Y-112705241D01*
X125154759Y-112505363D01*
X124922241Y-112350000D01*
X125154759Y-112194637D01*
X125354637Y-111994759D01*
X125511680Y-111759727D01*
X125619853Y-111498574D01*
X125675000Y-111221335D01*
X125675000Y-111066553D01*
X133459009Y-111066553D01*
X133501603Y-111365907D01*
X133601778Y-111651199D01*
X133681739Y-111800792D01*
X133935920Y-111884475D01*
X134820395Y-111000000D01*
X135179605Y-111000000D01*
X136064080Y-111884475D01*
X136318261Y-111800792D01*
X136449158Y-111528225D01*
X136524365Y-111235358D01*
X136540991Y-110933447D01*
X136498397Y-110634093D01*
X136398222Y-110348801D01*
X136318261Y-110199208D01*
X136064080Y-110115525D01*
X135179605Y-111000000D01*
X134820395Y-111000000D01*
X133935920Y-110115525D01*
X133681739Y-110199208D01*
X133550842Y-110471775D01*
X133475635Y-110764642D01*
X133459009Y-111066553D01*
X125675000Y-111066553D01*
X125675000Y-110938665D01*
X125619853Y-110661426D01*
X125511680Y-110400273D01*
X125354637Y-110165241D01*
X125154759Y-109965363D01*
X125110695Y-109935920D01*
X134115525Y-109935920D01*
X135000000Y-110820395D01*
X135884475Y-109935920D01*
X135800792Y-109681739D01*
X135528225Y-109550842D01*
X135235358Y-109475635D01*
X134933447Y-109459009D01*
X134634093Y-109501603D01*
X134348801Y-109601778D01*
X134199208Y-109681739D01*
X134115525Y-109935920D01*
X125110695Y-109935920D01*
X124919727Y-109808320D01*
X124909135Y-109803933D01*
X125095131Y-109692385D01*
X125303519Y-109503414D01*
X125471037Y-109277420D01*
X125591246Y-109023087D01*
X125631904Y-108889039D01*
X125605223Y-108840475D01*
X139365000Y-108840475D01*
X139365000Y-109359525D01*
X139466261Y-109868601D01*
X139664893Y-110348141D01*
X139953262Y-110779715D01*
X140320285Y-111146738D01*
X140751859Y-111435107D01*
X141231399Y-111633739D01*
X141740475Y-111735000D01*
X142259525Y-111735000D01*
X142768601Y-111633739D01*
X143248141Y-111435107D01*
X143679715Y-111146738D01*
X144046738Y-110779715D01*
X144335107Y-110348141D01*
X144533739Y-109868601D01*
X144635000Y-109359525D01*
X144635000Y-108840475D01*
X144533739Y-108331399D01*
X144335107Y-107851859D01*
X144046738Y-107420285D01*
X143679715Y-107053262D01*
X143248141Y-106764893D01*
X142768601Y-106566261D01*
X142259525Y-106465000D01*
X141740475Y-106465000D01*
X141231399Y-106566261D01*
X140751859Y-106764893D01*
X140320285Y-107053262D01*
X139953262Y-107420285D01*
X139664893Y-107851859D01*
X139466261Y-108331399D01*
X139365000Y-108840475D01*
X125605223Y-108840475D01*
X125509915Y-108667000D01*
X124367000Y-108667000D01*
X124367000Y-108687000D01*
X124113000Y-108687000D01*
X124113000Y-108667000D01*
X124093000Y-108667000D01*
X124093000Y-108413000D01*
X124113000Y-108413000D01*
X124113000Y-108393000D01*
X124367000Y-108393000D01*
X124367000Y-108413000D01*
X125509915Y-108413000D01*
X125631904Y-108190961D01*
X125591246Y-108056913D01*
X125471037Y-107802580D01*
X125303519Y-107576586D01*
X125095131Y-107387615D01*
X124909135Y-107276067D01*
X124919727Y-107271680D01*
X125154759Y-107114637D01*
X125354637Y-106914759D01*
X125511680Y-106679727D01*
X125619853Y-106418574D01*
X125675000Y-106141335D01*
X125675000Y-105858665D01*
X125619853Y-105581426D01*
X125511680Y-105320273D01*
X125354637Y-105085241D01*
X125154759Y-104885363D01*
X124919727Y-104728320D01*
X124658574Y-104620147D01*
X124381335Y-104565000D01*
X124098665Y-104565000D01*
X123821426Y-104620147D01*
X123560273Y-104728320D01*
X123325241Y-104885363D01*
X123125363Y-105085241D01*
X122968320Y-105320273D01*
X122885000Y-105521425D01*
X122885000Y-103338967D01*
X138365000Y-103338967D01*
X138365000Y-103661033D01*
X138427832Y-103976912D01*
X138551082Y-104274463D01*
X138730013Y-104542252D01*
X138957748Y-104769987D01*
X139225537Y-104948918D01*
X139523088Y-105072168D01*
X139838967Y-105135000D01*
X140161033Y-105135000D01*
X140476912Y-105072168D01*
X140774463Y-104948918D01*
X141042252Y-104769987D01*
X141269987Y-104542252D01*
X141448918Y-104274463D01*
X141572168Y-103976912D01*
X141635000Y-103661033D01*
X141635000Y-103338967D01*
X141572168Y-103023088D01*
X141448918Y-102725537D01*
X141269987Y-102457748D01*
X141042252Y-102230013D01*
X140774463Y-102051082D01*
X140476912Y-101927832D01*
X140161033Y-101865000D01*
X139838967Y-101865000D01*
X139523088Y-101927832D01*
X139225537Y-102051082D01*
X138957748Y-102230013D01*
X138730013Y-102457748D01*
X138551082Y-102725537D01*
X138427832Y-103023088D01*
X138365000Y-103338967D01*
X122885000Y-103338967D01*
X122885000Y-102366578D01*
X130912611Y-94338967D01*
X138365000Y-94338967D01*
X138365000Y-94661033D01*
X138427832Y-94976912D01*
X138551082Y-95274463D01*
X138730013Y-95542252D01*
X138957748Y-95769987D01*
X139225537Y-95948918D01*
X139523088Y-96072168D01*
X139838967Y-96135000D01*
X140161033Y-96135000D01*
X140476912Y-96072168D01*
X140774463Y-95948918D01*
X141042252Y-95769987D01*
X141269987Y-95542252D01*
X141448918Y-95274463D01*
X141572168Y-94976912D01*
X141635000Y-94661033D01*
X141635000Y-94338967D01*
X141572168Y-94023088D01*
X141448918Y-93725537D01*
X141269987Y-93457748D01*
X141042252Y-93230013D01*
X140774463Y-93051082D01*
X140476912Y-92927832D01*
X140161033Y-92865000D01*
X139838967Y-92865000D01*
X139523088Y-92927832D01*
X139225537Y-93051082D01*
X138957748Y-93230013D01*
X138730013Y-93457748D01*
X138551082Y-93725537D01*
X138427832Y-94023088D01*
X138365000Y-94338967D01*
X130912611Y-94338967D01*
X136366579Y-88885000D01*
X138722406Y-88885000D01*
X138759294Y-88954013D01*
X138944866Y-89180134D01*
X139170986Y-89365706D01*
X139428966Y-89503599D01*
X139708889Y-89588513D01*
X140000000Y-89617185D01*
X140291110Y-89588513D01*
X140571033Y-89503599D01*
X140829013Y-89365706D01*
X141055134Y-89180134D01*
X141240706Y-88954014D01*
X141250000Y-88936626D01*
X141259294Y-88954013D01*
X141444866Y-89180134D01*
X141670986Y-89365706D01*
X141928966Y-89503599D01*
X142208889Y-89588513D01*
X142500000Y-89617185D01*
X142791110Y-89588513D01*
X143071033Y-89503599D01*
X143329013Y-89365706D01*
X143549945Y-89184392D01*
X143560498Y-89219180D01*
X143619463Y-89329494D01*
X143698815Y-89426185D01*
X143795506Y-89505537D01*
X143905820Y-89564502D01*
X144025518Y-89600812D01*
X144150000Y-89613072D01*
X144714250Y-89610000D01*
X144873000Y-89451250D01*
X144873000Y-88127000D01*
X145127000Y-88127000D01*
X145127000Y-89451250D01*
X145285750Y-89610000D01*
X145850000Y-89613072D01*
X145974482Y-89600812D01*
X146094180Y-89564502D01*
X146204494Y-89505537D01*
X146301185Y-89426185D01*
X146380537Y-89329494D01*
X146439502Y-89219180D01*
X146475812Y-89099482D01*
X146488072Y-88975000D01*
X146485000Y-88285750D01*
X146326250Y-88127000D01*
X145127000Y-88127000D01*
X144873000Y-88127000D01*
X144853000Y-88127000D01*
X144853000Y-87873000D01*
X144873000Y-87873000D01*
X144873000Y-86548750D01*
X145127000Y-86548750D01*
X145127000Y-87873000D01*
X146326250Y-87873000D01*
X146485000Y-87714250D01*
X146488072Y-87025000D01*
X146475812Y-86900518D01*
X146439502Y-86780820D01*
X146380537Y-86670506D01*
X146301185Y-86573815D01*
X146204494Y-86494463D01*
X146094180Y-86435498D01*
X145974482Y-86399188D01*
X145850000Y-86386928D01*
X145285750Y-86390000D01*
X145127000Y-86548750D01*
X144873000Y-86548750D01*
X144714250Y-86390000D01*
X144150000Y-86386928D01*
X144025518Y-86399188D01*
X143905820Y-86435498D01*
X143795506Y-86494463D01*
X143698815Y-86573815D01*
X143619463Y-86670506D01*
X143560498Y-86780820D01*
X143549945Y-86815608D01*
X143329014Y-86634294D01*
X143071034Y-86496401D01*
X142791111Y-86411487D01*
X142500000Y-86382815D01*
X142208890Y-86411487D01*
X141928967Y-86496401D01*
X141670987Y-86634294D01*
X141444866Y-86819866D01*
X141259294Y-87045986D01*
X141250000Y-87063374D01*
X141240706Y-87045986D01*
X141055134Y-86819866D01*
X140829014Y-86634294D01*
X140571034Y-86496401D01*
X140291111Y-86411487D01*
X140000000Y-86382815D01*
X139708890Y-86411487D01*
X139428967Y-86496401D01*
X139170987Y-86634294D01*
X138944866Y-86819866D01*
X138759294Y-87045986D01*
X138722405Y-87115000D01*
X136043469Y-87115000D01*
X136000000Y-87110719D01*
X135956531Y-87115000D01*
X135956523Y-87115000D01*
X135826510Y-87127805D01*
X135659687Y-87178411D01*
X135581140Y-87220395D01*
X135505941Y-87260589D01*
X135404953Y-87343468D01*
X135404951Y-87343470D01*
X135371183Y-87371183D01*
X135343470Y-87404951D01*
X121404956Y-101343466D01*
X121371183Y-101371183D01*
X121260589Y-101505942D01*
X121178411Y-101659688D01*
X121127805Y-101826511D01*
X121115000Y-101956524D01*
X121115000Y-101956531D01*
X121110719Y-102000000D01*
X121115000Y-102043469D01*
X121115001Y-111571627D01*
X121094180Y-111560498D01*
X120974482Y-111524188D01*
X120850000Y-111511928D01*
X119150000Y-111511928D01*
X119025518Y-111524188D01*
X118905820Y-111560498D01*
X118795506Y-111619463D01*
X118698815Y-111698815D01*
X118619463Y-111795506D01*
X118560498Y-111905820D01*
X118524188Y-112025518D01*
X118511928Y-112150000D01*
X115488072Y-112150000D01*
X115475812Y-112025518D01*
X115439502Y-111905820D01*
X115380537Y-111795506D01*
X115301185Y-111698815D01*
X115204494Y-111619463D01*
X115094180Y-111560498D01*
X114974482Y-111524188D01*
X114850000Y-111511928D01*
X114285750Y-111515000D01*
X114127000Y-111673750D01*
X113873000Y-111673750D01*
X113714250Y-111515000D01*
X113150000Y-111511928D01*
X113025518Y-111524188D01*
X112905820Y-111560498D01*
X112795506Y-111619463D01*
X112698815Y-111698815D01*
X112619463Y-111795506D01*
X112560498Y-111905820D01*
X112524188Y-112025518D01*
X112511928Y-112150000D01*
X111885000Y-112150000D01*
X111885000Y-104366578D01*
X114366579Y-101885000D01*
X119281550Y-101885000D01*
X119462376Y-102005824D01*
X119668933Y-102091383D01*
X119888212Y-102135000D01*
X120111788Y-102135000D01*
X120331067Y-102091383D01*
X120537624Y-102005824D01*
X120723520Y-101881612D01*
X120881612Y-101723520D01*
X121005824Y-101537624D01*
X121091383Y-101331067D01*
X121135000Y-101111788D01*
X121135000Y-100888212D01*
X121091383Y-100668933D01*
X121005824Y-100462376D01*
X120881612Y-100276480D01*
X120723520Y-100118388D01*
X120537624Y-99994176D01*
X120331067Y-99908617D01*
X120111788Y-99865000D01*
X119888212Y-99865000D01*
X119668933Y-99908617D01*
X119462376Y-99994176D01*
X119281550Y-100115000D01*
X114043469Y-100115000D01*
X114000000Y-100110719D01*
X113956531Y-100115000D01*
X113956523Y-100115000D01*
X113826510Y-100127805D01*
X113659686Y-100178411D01*
X113505941Y-100260589D01*
X113404953Y-100343468D01*
X113404951Y-100343470D01*
X113371183Y-100371183D01*
X113343470Y-100404951D01*
X110404956Y-103343466D01*
X110371183Y-103371183D01*
X110260589Y-103505942D01*
X110178411Y-103659688D01*
X110127805Y-103826511D01*
X110115000Y-103956524D01*
X110115000Y-103956531D01*
X110110719Y-104000000D01*
X110115000Y-104043469D01*
X110115000Y-104648353D01*
X110044180Y-104610498D01*
X109924482Y-104574188D01*
X109800000Y-104561928D01*
X108200000Y-104561928D01*
X108075518Y-104574188D01*
X107955820Y-104610498D01*
X107845506Y-104669463D01*
X107748815Y-104748815D01*
X107669463Y-104845506D01*
X107610498Y-104955820D01*
X107574188Y-105075518D01*
X107561928Y-105200000D01*
X105660000Y-105200000D01*
X105660000Y-87700881D01*
X117478724Y-87700881D01*
X117838912Y-88190548D01*
X118502882Y-88550849D01*
X119224385Y-88774694D01*
X119975695Y-88853480D01*
X120727938Y-88784178D01*
X121452208Y-88569452D01*
X122120670Y-88217555D01*
X122161088Y-88190548D01*
X122521276Y-87700881D01*
X120000000Y-85179605D01*
X117478724Y-87700881D01*
X105660000Y-87700881D01*
X105660000Y-84975695D01*
X116146520Y-84975695D01*
X116215822Y-85727938D01*
X116430548Y-86452208D01*
X116782445Y-87120670D01*
X116809452Y-87161088D01*
X117299119Y-87521276D01*
X119820395Y-85000000D01*
X120179605Y-85000000D01*
X122700881Y-87521276D01*
X123190548Y-87161088D01*
X123550849Y-86497118D01*
X123774694Y-85775615D01*
X123853480Y-85024305D01*
X123784178Y-84272062D01*
X123569452Y-83547792D01*
X123217555Y-82879330D01*
X123190548Y-82838912D01*
X122700881Y-82478724D01*
X120179605Y-85000000D01*
X119820395Y-85000000D01*
X117299119Y-82478724D01*
X116809452Y-82838912D01*
X116449151Y-83502882D01*
X116225306Y-84224385D01*
X116146520Y-84975695D01*
X105660000Y-84975695D01*
X105660000Y-82299119D01*
X117478724Y-82299119D01*
X120000000Y-84820395D01*
X122521276Y-82299119D01*
X122161088Y-81809452D01*
X121497118Y-81449151D01*
X120775615Y-81225306D01*
X120024305Y-81146520D01*
X119272062Y-81215822D01*
X118547792Y-81430548D01*
X117879330Y-81782445D01*
X117838912Y-81809452D01*
X117478724Y-82299119D01*
X105660000Y-82299119D01*
X105660000Y-81029392D01*
X105731173Y-80231917D01*
X105934656Y-79488109D01*
X106266638Y-78792095D01*
X106716626Y-78165870D01*
X107270403Y-77629223D01*
X107910451Y-77199129D01*
X108616553Y-76889171D01*
X109371457Y-76707935D01*
X110024207Y-76660000D01*
X144970608Y-76660000D01*
X145768083Y-76731173D01*
%TA.AperFunction,Conductor*%
D23*
G36*
X145768083Y-76731173D02*
G01*
X146511891Y-76934656D01*
X147207905Y-77266638D01*
X147834130Y-77716626D01*
X148370777Y-78270403D01*
X148800871Y-78910451D01*
X149110829Y-79616553D01*
X149292065Y-80371457D01*
X149340001Y-81024220D01*
X149340000Y-144970608D01*
X149268827Y-145768083D01*
X149065344Y-146511890D01*
X148733363Y-147207904D01*
X148283374Y-147834130D01*
X147729597Y-148370777D01*
X147089549Y-148800871D01*
X146383447Y-149110829D01*
X145628543Y-149292065D01*
X144975793Y-149340000D01*
X110029392Y-149340000D01*
X109231917Y-149268827D01*
X108488110Y-149065344D01*
X107792096Y-148733363D01*
X107165870Y-148283374D01*
X106629223Y-147729597D01*
X106199129Y-147089549D01*
X105889171Y-146383447D01*
X105710800Y-145640475D01*
X139365000Y-145640475D01*
X139365000Y-146159525D01*
X139466261Y-146668601D01*
X139664893Y-147148141D01*
X139953262Y-147579715D01*
X140320285Y-147946738D01*
X140751859Y-148235107D01*
X141231399Y-148433739D01*
X141740475Y-148535000D01*
X142259525Y-148535000D01*
X142768601Y-148433739D01*
X143248141Y-148235107D01*
X143679715Y-147946738D01*
X144046738Y-147579715D01*
X144335107Y-147148141D01*
X144533739Y-146668601D01*
X144635000Y-146159525D01*
X144635000Y-145640475D01*
X144533739Y-145131399D01*
X144335107Y-144651859D01*
X144046738Y-144220285D01*
X143679715Y-143853262D01*
X143248141Y-143564893D01*
X142768601Y-143366261D01*
X142259525Y-143265000D01*
X141740475Y-143265000D01*
X141231399Y-143366261D01*
X140751859Y-143564893D01*
X140320285Y-143853262D01*
X139953262Y-144220285D01*
X139664893Y-144651859D01*
X139466261Y-145131399D01*
X139365000Y-145640475D01*
X105710800Y-145640475D01*
X105707935Y-145628543D01*
X105660000Y-144975793D01*
X105660000Y-105200000D01*
X107561928Y-105200000D01*
X107561928Y-106800000D01*
X107574188Y-106924482D01*
X107610498Y-107044180D01*
X107669463Y-107154494D01*
X107748815Y-107251185D01*
X107845506Y-107330537D01*
X107955820Y-107389502D01*
X108075518Y-107425812D01*
X108083961Y-107426643D01*
X107885363Y-107625241D01*
X107728320Y-107860273D01*
X107620147Y-108121426D01*
X107565000Y-108398665D01*
X107565000Y-108681335D01*
X107620147Y-108958574D01*
X107728320Y-109219727D01*
X107885363Y-109454759D01*
X108085241Y-109654637D01*
X108317759Y-109810000D01*
X108085241Y-109965363D01*
X107885363Y-110165241D01*
X107728320Y-110400273D01*
X107620147Y-110661426D01*
X107565000Y-110938665D01*
X107565000Y-111221335D01*
X107620147Y-111498574D01*
X107728320Y-111759727D01*
X107885363Y-111994759D01*
X108085241Y-112194637D01*
X108320273Y-112351680D01*
X108330865Y-112356067D01*
X108144869Y-112467615D01*
X107936481Y-112656586D01*
X107768963Y-112882580D01*
X107648754Y-113136913D01*
X107608096Y-113270961D01*
X107730085Y-113493000D01*
X108873000Y-113493000D01*
X108873000Y-113473000D01*
X109127000Y-113473000D01*
X109127000Y-113493000D01*
X109147000Y-113493000D01*
X109147000Y-113747000D01*
X109127000Y-113747000D01*
X109127000Y-113767000D01*
X108873000Y-113767000D01*
X108873000Y-113747000D01*
X107730085Y-113747000D01*
X107608096Y-113969039D01*
X107648754Y-114103087D01*
X107768963Y-114357420D01*
X107936481Y-114583414D01*
X108144869Y-114772385D01*
X108330865Y-114883933D01*
X108320273Y-114888320D01*
X108085241Y-115045363D01*
X107885363Y-115245241D01*
X107728320Y-115480273D01*
X107620147Y-115741426D01*
X107565000Y-116018665D01*
X107565000Y-116301335D01*
X107620147Y-116578574D01*
X107728320Y-116839727D01*
X107885363Y-117074759D01*
X108085241Y-117274637D01*
X108317759Y-117430000D01*
X108085241Y-117585363D01*
X107885363Y-117785241D01*
X107728320Y-118020273D01*
X107620147Y-118281426D01*
X107565000Y-118558665D01*
X107565000Y-118841335D01*
X107620147Y-119118574D01*
X107728320Y-119379727D01*
X107885363Y-119614759D01*
X108085241Y-119814637D01*
X108317759Y-119970000D01*
X108085241Y-120125363D01*
X107885363Y-120325241D01*
X107728320Y-120560273D01*
X107620147Y-120821426D01*
X107565000Y-121098665D01*
X107565000Y-121381335D01*
X107620147Y-121658574D01*
X107728320Y-121919727D01*
X107885363Y-122154759D01*
X108085241Y-122354637D01*
X108317759Y-122510000D01*
X108085241Y-122665363D01*
X107885363Y-122865241D01*
X107728320Y-123100273D01*
X107620147Y-123361426D01*
X107565000Y-123638665D01*
X107565000Y-123921335D01*
X107620147Y-124198574D01*
X107728320Y-124459727D01*
X107885363Y-124694759D01*
X108085241Y-124894637D01*
X108317759Y-125050000D01*
X108085241Y-125205363D01*
X107885363Y-125405241D01*
X107728320Y-125640273D01*
X107620147Y-125901426D01*
X107565000Y-126178665D01*
X107565000Y-126461335D01*
X107620147Y-126738574D01*
X107728320Y-126999727D01*
X107885363Y-127234759D01*
X108085241Y-127434637D01*
X108317759Y-127590000D01*
X108085241Y-127745363D01*
X107885363Y-127945241D01*
X107728320Y-128180273D01*
X107620147Y-128441426D01*
X107565000Y-128718665D01*
X107565000Y-129001335D01*
X107620147Y-129278574D01*
X107728320Y-129539727D01*
X107885363Y-129774759D01*
X108085241Y-129974637D01*
X108317759Y-130130000D01*
X108085241Y-130285363D01*
X107885363Y-130485241D01*
X107728320Y-130720273D01*
X107620147Y-130981426D01*
X107565000Y-131258665D01*
X107565000Y-131541335D01*
X107620147Y-131818574D01*
X107728320Y-132079727D01*
X107885363Y-132314759D01*
X108085241Y-132514637D01*
X108317759Y-132670000D01*
X108085241Y-132825363D01*
X107885363Y-133025241D01*
X107728320Y-133260273D01*
X107620147Y-133521426D01*
X107565000Y-133798665D01*
X107565000Y-134081335D01*
X107620147Y-134358574D01*
X107728320Y-134619727D01*
X107885363Y-134854759D01*
X108085241Y-135054637D01*
X108317759Y-135210000D01*
X108085241Y-135365363D01*
X107885363Y-135565241D01*
X107728320Y-135800273D01*
X107620147Y-136061426D01*
X107565000Y-136338665D01*
X107565000Y-136621335D01*
X107620147Y-136898574D01*
X107728320Y-137159727D01*
X107885363Y-137394759D01*
X108085241Y-137594637D01*
X108317759Y-137750000D01*
X108085241Y-137905363D01*
X107885363Y-138105241D01*
X107728320Y-138340273D01*
X107620147Y-138601426D01*
X107565000Y-138878665D01*
X107565000Y-139161335D01*
X107620147Y-139438574D01*
X107728320Y-139699727D01*
X107885363Y-139934759D01*
X108085241Y-140134637D01*
X108317759Y-140290000D01*
X108085241Y-140445363D01*
X107885363Y-140645241D01*
X107728320Y-140880273D01*
X107620147Y-141141426D01*
X107565000Y-141418665D01*
X107565000Y-141701335D01*
X107620147Y-141978574D01*
X107728320Y-142239727D01*
X107885363Y-142474759D01*
X108085241Y-142674637D01*
X108320273Y-142831680D01*
X108581426Y-142939853D01*
X108858665Y-142995000D01*
X109141335Y-142995000D01*
X109418574Y-142939853D01*
X109679727Y-142831680D01*
X109914759Y-142674637D01*
X110114637Y-142474759D01*
X110271680Y-142239727D01*
X110379853Y-141978574D01*
X110435000Y-141701335D01*
X110435000Y-141418665D01*
X110379853Y-141141426D01*
X110271680Y-140880273D01*
X110114637Y-140645241D01*
X109914759Y-140445363D01*
X109682241Y-140290000D01*
X109914759Y-140134637D01*
X110114637Y-139934759D01*
X110271680Y-139699727D01*
X110379853Y-139438574D01*
X110435000Y-139161335D01*
X110435000Y-138878665D01*
X110379853Y-138601426D01*
X110271680Y-138340273D01*
X110114637Y-138105241D01*
X109914759Y-137905363D01*
X109682241Y-137750000D01*
X109914759Y-137594637D01*
X110114637Y-137394759D01*
X110271680Y-137159727D01*
X110379853Y-136898574D01*
X110435000Y-136621335D01*
X110435000Y-136338665D01*
X110379853Y-136061426D01*
X110271680Y-135800273D01*
X110114637Y-135565241D01*
X109914759Y-135365363D01*
X109682241Y-135210000D01*
X109914759Y-135054637D01*
X110114637Y-134854759D01*
X110271680Y-134619727D01*
X110379853Y-134358574D01*
X110435000Y-134081335D01*
X110435000Y-133798665D01*
X110379853Y-133521426D01*
X110271680Y-133260273D01*
X110114637Y-133025241D01*
X109914759Y-132825363D01*
X109682241Y-132670000D01*
X109914759Y-132514637D01*
X110114637Y-132314759D01*
X110271680Y-132079727D01*
X110379853Y-131818574D01*
X110435000Y-131541335D01*
X110435000Y-131258665D01*
X110379853Y-130981426D01*
X110271680Y-130720273D01*
X110114637Y-130485241D01*
X109914759Y-130285363D01*
X109682241Y-130130000D01*
X109914759Y-129974637D01*
X110114637Y-129774759D01*
X110271680Y-129539727D01*
X110379853Y-129278574D01*
X110435000Y-129001335D01*
X110435000Y-128718665D01*
X110379853Y-128441426D01*
X110271680Y-128180273D01*
X110114637Y-127945241D01*
X109914759Y-127745363D01*
X109682241Y-127590000D01*
X109914759Y-127434637D01*
X110114637Y-127234759D01*
X110271680Y-126999727D01*
X110379853Y-126738574D01*
X110435000Y-126461335D01*
X110435000Y-126178665D01*
X110379853Y-125901426D01*
X110271680Y-125640273D01*
X110114637Y-125405241D01*
X109914759Y-125205363D01*
X109682241Y-125050000D01*
X109914759Y-124894637D01*
X110114637Y-124694759D01*
X110271680Y-124459727D01*
X110379853Y-124198574D01*
X110435000Y-123921335D01*
X110435000Y-123638665D01*
X110379853Y-123361426D01*
X110271680Y-123100273D01*
X110114637Y-122865241D01*
X109914759Y-122665363D01*
X109682241Y-122510000D01*
X109914759Y-122354637D01*
X110114637Y-122154759D01*
X110271680Y-121919727D01*
X110379853Y-121658574D01*
X110435000Y-121381335D01*
X110435000Y-121098665D01*
X110379853Y-120821426D01*
X110271680Y-120560273D01*
X110114637Y-120325241D01*
X109914759Y-120125363D01*
X109682241Y-119970000D01*
X109914759Y-119814637D01*
X110114637Y-119614759D01*
X110271680Y-119379727D01*
X110379853Y-119118574D01*
X110435000Y-118841335D01*
X110435000Y-118558665D01*
X110379853Y-118281426D01*
X110271680Y-118020273D01*
X110114637Y-117785241D01*
X109914759Y-117585363D01*
X109682241Y-117430000D01*
X109914759Y-117274637D01*
X110114637Y-117074759D01*
X110176021Y-116982891D01*
X110180313Y-116981589D01*
X110334059Y-116899411D01*
X110468817Y-116788817D01*
X110496534Y-116755044D01*
X111595049Y-115656530D01*
X111628817Y-115628817D01*
X111681229Y-115564954D01*
X111739411Y-115494059D01*
X111787038Y-115404954D01*
X111821589Y-115340313D01*
X111872195Y-115173490D01*
X111885000Y-115043477D01*
X111885000Y-115043469D01*
X111889281Y-115000000D01*
X111885000Y-114956531D01*
X111885000Y-113850000D01*
X112511928Y-113850000D01*
X112524188Y-113974482D01*
X112560498Y-114094180D01*
X112619463Y-114204494D01*
X112698815Y-114301185D01*
X112795506Y-114380537D01*
X112905820Y-114439502D01*
X113025518Y-114475812D01*
X113150000Y-114488072D01*
X113714250Y-114485000D01*
X113873000Y-114326250D01*
X113873000Y-113127000D01*
X114127000Y-113127000D01*
X114127000Y-114326250D01*
X114285750Y-114485000D01*
X114850000Y-114488072D01*
X114974482Y-114475812D01*
X115094180Y-114439502D01*
X115204494Y-114380537D01*
X115301185Y-114301185D01*
X115380537Y-114204494D01*
X115439502Y-114094180D01*
X115475812Y-113974482D01*
X115488072Y-113850000D01*
X115485000Y-113285750D01*
X115326250Y-113127000D01*
X114127000Y-113127000D01*
X113873000Y-113127000D01*
X112673750Y-113127000D01*
X112515000Y-113285750D01*
X112511928Y-113850000D01*
X111885000Y-113850000D01*
X111885000Y-112150000D01*
X112511928Y-112150000D01*
X112515000Y-112714250D01*
X112673750Y-112873000D01*
X113873000Y-112873000D01*
X113873000Y-111673750D01*
X114127000Y-111673750D01*
X114127000Y-112873000D01*
X115326250Y-112873000D01*
X115485000Y-112714250D01*
X115488072Y-112150000D01*
X118511928Y-112150000D01*
X118511928Y-113850000D01*
X118524188Y-113974482D01*
X118560498Y-114094180D01*
X118619463Y-114204494D01*
X118698815Y-114301185D01*
X118795506Y-114380537D01*
X118905820Y-114439502D01*
X119025518Y-114475812D01*
X119150000Y-114488072D01*
X120432919Y-114488072D01*
X120446510Y-114492195D01*
X120576523Y-114505000D01*
X120576533Y-114505000D01*
X120619999Y-114509281D01*
X120663465Y-114505000D01*
X122336533Y-114505000D01*
X122379999Y-114509281D01*
X122423465Y-114505000D01*
X123105479Y-114505000D01*
X123125363Y-114534759D01*
X123325241Y-114734637D01*
X123557759Y-114890000D01*
X123325241Y-115045363D01*
X123125363Y-115245241D01*
X122968320Y-115480273D01*
X122860147Y-115741426D01*
X122805000Y-116018665D01*
X122805000Y-116301335D01*
X122860147Y-116578574D01*
X122968320Y-116839727D01*
X123125363Y-117074759D01*
X123325241Y-117274637D01*
X123557759Y-117430000D01*
X123325241Y-117585363D01*
X123125363Y-117785241D01*
X122968320Y-118020273D01*
X122860147Y-118281426D01*
X122805000Y-118558665D01*
X122805000Y-118841335D01*
X122860147Y-119118574D01*
X122968320Y-119379727D01*
X123125363Y-119614759D01*
X123325241Y-119814637D01*
X123557759Y-119970000D01*
X123325241Y-120125363D01*
X123125363Y-120325241D01*
X122968320Y-120560273D01*
X122860147Y-120821426D01*
X122805000Y-121098665D01*
X122805000Y-121381335D01*
X122860147Y-121658574D01*
X122968320Y-121919727D01*
X123125363Y-122154759D01*
X123325241Y-122354637D01*
X123557759Y-122510000D01*
X123325241Y-122665363D01*
X123125363Y-122865241D01*
X122968320Y-123100273D01*
X122860147Y-123361426D01*
X122805000Y-123638665D01*
X122805000Y-123921335D01*
X122860147Y-124198574D01*
X122968320Y-124459727D01*
X123125363Y-124694759D01*
X123325241Y-124894637D01*
X123557759Y-125050000D01*
X123325241Y-125205363D01*
X123125363Y-125405241D01*
X122968320Y-125640273D01*
X122860147Y-125901426D01*
X122805000Y-126178665D01*
X122805000Y-126461335D01*
X122860147Y-126738574D01*
X122968320Y-126999727D01*
X123125363Y-127234759D01*
X123325241Y-127434637D01*
X123557759Y-127590000D01*
X123325241Y-127745363D01*
X123125363Y-127945241D01*
X122968320Y-128180273D01*
X122860147Y-128441426D01*
X122805000Y-128718665D01*
X122805000Y-129001335D01*
X122860147Y-129278574D01*
X122968320Y-129539727D01*
X123125363Y-129774759D01*
X123325241Y-129974637D01*
X123557759Y-130130000D01*
X123325241Y-130285363D01*
X123125363Y-130485241D01*
X122968320Y-130720273D01*
X122860147Y-130981426D01*
X122805000Y-131258665D01*
X122805000Y-131541335D01*
X122860147Y-131818574D01*
X122968320Y-132079727D01*
X123125363Y-132314759D01*
X123325241Y-132514637D01*
X123557759Y-132670000D01*
X123325241Y-132825363D01*
X123125363Y-133025241D01*
X122968320Y-133260273D01*
X122860147Y-133521426D01*
X122805000Y-133798665D01*
X122805000Y-134081335D01*
X122860147Y-134358574D01*
X122968320Y-134619727D01*
X123125363Y-134854759D01*
X123325241Y-135054637D01*
X123557759Y-135210000D01*
X123325241Y-135365363D01*
X123125363Y-135565241D01*
X122968320Y-135800273D01*
X122860147Y-136061426D01*
X122805000Y-136338665D01*
X122805000Y-136621335D01*
X122860147Y-136898574D01*
X122968320Y-137159727D01*
X123125363Y-137394759D01*
X123325241Y-137594637D01*
X123557759Y-137750000D01*
X123325241Y-137905363D01*
X123125363Y-138105241D01*
X122968320Y-138340273D01*
X122860147Y-138601426D01*
X122805000Y-138878665D01*
X122805000Y-139161335D01*
X122860147Y-139438574D01*
X122968320Y-139699727D01*
X123125363Y-139934759D01*
X123325241Y-140134637D01*
X123557759Y-140290000D01*
X123325241Y-140445363D01*
X123125363Y-140645241D01*
X122968320Y-140880273D01*
X122860147Y-141141426D01*
X122805000Y-141418665D01*
X122805000Y-141701335D01*
X122860147Y-141978574D01*
X122968320Y-142239727D01*
X123125363Y-142474759D01*
X123325241Y-142674637D01*
X123560273Y-142831680D01*
X123821426Y-142939853D01*
X124098665Y-142995000D01*
X124381335Y-142995000D01*
X124658574Y-142939853D01*
X124919727Y-142831680D01*
X125154759Y-142674637D01*
X125354637Y-142474759D01*
X125511680Y-142239727D01*
X125619853Y-141978574D01*
X125675000Y-141701335D01*
X125675000Y-141418665D01*
X125619853Y-141141426D01*
X125511680Y-140880273D01*
X125354637Y-140645241D01*
X125154759Y-140445363D01*
X124922241Y-140290000D01*
X125154759Y-140134637D01*
X125354637Y-139934759D01*
X125511680Y-139699727D01*
X125619853Y-139438574D01*
X125675000Y-139161335D01*
X125675000Y-138878665D01*
X125619853Y-138601426D01*
X125511680Y-138340273D01*
X125354637Y-138105241D01*
X125154759Y-137905363D01*
X124922241Y-137750000D01*
X125154759Y-137594637D01*
X125354637Y-137394759D01*
X125511680Y-137159727D01*
X125619853Y-136898574D01*
X125675000Y-136621335D01*
X125675000Y-136338665D01*
X125619853Y-136061426D01*
X125511680Y-135800273D01*
X125354637Y-135565241D01*
X125154759Y-135365363D01*
X124922241Y-135210000D01*
X125154759Y-135054637D01*
X125354637Y-134854759D01*
X125374521Y-134825000D01*
X125573422Y-134825000D01*
X132843470Y-142095049D01*
X132871183Y-142128817D01*
X132904951Y-142156530D01*
X132904953Y-142156532D01*
X133005941Y-142239411D01*
X133159686Y-142321589D01*
X133326510Y-142372195D01*
X133456523Y-142385000D01*
X133456531Y-142385000D01*
X133500000Y-142389281D01*
X133543469Y-142385000D01*
X133745210Y-142385000D01*
X133807688Y-142478505D01*
X134021495Y-142692312D01*
X134107831Y-142750000D01*
X134021495Y-142807688D01*
X133807688Y-143021495D01*
X133639701Y-143272905D01*
X133523989Y-143552257D01*
X133465000Y-143848816D01*
X133465000Y-144151184D01*
X133523989Y-144447743D01*
X133639701Y-144727095D01*
X133807688Y-144978505D01*
X134021495Y-145192312D01*
X134272905Y-145360299D01*
X134552257Y-145476011D01*
X134848816Y-145535000D01*
X135151184Y-145535000D01*
X135447743Y-145476011D01*
X135727095Y-145360299D01*
X135978505Y-145192312D01*
X136192312Y-144978505D01*
X136360299Y-144727095D01*
X136476011Y-144447743D01*
X136535000Y-144151184D01*
X136535000Y-143848816D01*
X136476011Y-143552257D01*
X136360299Y-143272905D01*
X136192312Y-143021495D01*
X135978505Y-142807688D01*
X135892169Y-142750000D01*
X135978505Y-142692312D01*
X136192312Y-142478505D01*
X136360299Y-142227095D01*
X136476011Y-141947743D01*
X136535000Y-141651184D01*
X136535000Y-141348816D01*
X136476011Y-141052257D01*
X136360299Y-140772905D01*
X136192312Y-140521495D01*
X135978505Y-140307688D01*
X135835690Y-140212262D01*
X135884475Y-140064080D01*
X135000000Y-139179605D01*
X134115525Y-140064080D01*
X134164310Y-140212262D01*
X134021495Y-140307688D01*
X133807688Y-140521495D01*
X133793824Y-140542245D01*
X132318132Y-139066553D01*
X133459009Y-139066553D01*
X133501603Y-139365907D01*
X133601778Y-139651199D01*
X133681739Y-139800792D01*
X133935920Y-139884475D01*
X134820395Y-139000000D01*
X135179605Y-139000000D01*
X136064080Y-139884475D01*
X136318261Y-139800792D01*
X136449158Y-139528225D01*
X136524365Y-139235358D01*
X136540991Y-138933447D01*
X136498397Y-138634093D01*
X136398222Y-138348801D01*
X136318261Y-138199208D01*
X136064080Y-138115525D01*
X135179605Y-139000000D01*
X134820395Y-139000000D01*
X133935920Y-138115525D01*
X133681739Y-138199208D01*
X133550842Y-138471775D01*
X133475635Y-138764642D01*
X133459009Y-139066553D01*
X132318132Y-139066553D01*
X131187499Y-137935920D01*
X134115525Y-137935920D01*
X135000000Y-138820395D01*
X135884475Y-137935920D01*
X135800792Y-137681739D01*
X135528225Y-137550842D01*
X135235358Y-137475635D01*
X134933447Y-137459009D01*
X134634093Y-137501603D01*
X134348801Y-137601778D01*
X134199208Y-137681739D01*
X134115525Y-137935920D01*
X131187499Y-137935920D01*
X126596534Y-133344956D01*
X126568817Y-133311183D01*
X126434059Y-133200589D01*
X126280313Y-133118411D01*
X126113490Y-133067805D01*
X125983477Y-133055000D01*
X125983469Y-133055000D01*
X125940000Y-133050719D01*
X125896531Y-133055000D01*
X125374521Y-133055000D01*
X125354637Y-133025241D01*
X125154759Y-132825363D01*
X124922241Y-132670000D01*
X125154759Y-132514637D01*
X125354637Y-132314759D01*
X125374521Y-132285000D01*
X128556531Y-132285000D01*
X128600000Y-132289281D01*
X128643469Y-132285000D01*
X128643477Y-132285000D01*
X128773490Y-132272195D01*
X128940313Y-132221589D01*
X129094059Y-132139411D01*
X129228817Y-132028817D01*
X129256534Y-131995044D01*
X129611103Y-131640475D01*
X139365000Y-131640475D01*
X139365000Y-132159525D01*
X139466261Y-132668601D01*
X139664893Y-133148141D01*
X139953262Y-133579715D01*
X140320285Y-133946738D01*
X140751859Y-134235107D01*
X141231399Y-134433739D01*
X141564517Y-134500000D01*
X141231399Y-134566261D01*
X140751859Y-134764893D01*
X140320285Y-135053262D01*
X139953262Y-135420285D01*
X139664893Y-135851859D01*
X139466261Y-136331399D01*
X139365000Y-136840475D01*
X139365000Y-137359525D01*
X139466261Y-137868601D01*
X139664893Y-138348141D01*
X139953262Y-138779715D01*
X140320285Y-139146738D01*
X140751859Y-139435107D01*
X141231399Y-139633739D01*
X141740475Y-139735000D01*
X142259525Y-139735000D01*
X142768601Y-139633739D01*
X143248141Y-139435107D01*
X143679715Y-139146738D01*
X144046738Y-138779715D01*
X144335107Y-138348141D01*
X144533739Y-137868601D01*
X144635000Y-137359525D01*
X144635000Y-136840475D01*
X144533739Y-136331399D01*
X144335107Y-135851859D01*
X144046738Y-135420285D01*
X143679715Y-135053262D01*
X143248141Y-134764893D01*
X142768601Y-134566261D01*
X142435483Y-134500000D01*
X142768601Y-134433739D01*
X143248141Y-134235107D01*
X143679715Y-133946738D01*
X144046738Y-133579715D01*
X144335107Y-133148141D01*
X144533739Y-132668601D01*
X144635000Y-132159525D01*
X144635000Y-131640475D01*
X144533739Y-131131399D01*
X144335107Y-130651859D01*
X144046738Y-130220285D01*
X143679715Y-129853262D01*
X143248141Y-129564893D01*
X142768601Y-129366261D01*
X142259525Y-129265000D01*
X141740475Y-129265000D01*
X141231399Y-129366261D01*
X140751859Y-129564893D01*
X140320285Y-129853262D01*
X139953262Y-130220285D01*
X139664893Y-130651859D01*
X139466261Y-131131399D01*
X139365000Y-131640475D01*
X129611103Y-131640475D01*
X132866579Y-128385000D01*
X133745210Y-128385000D01*
X133807688Y-128478505D01*
X134021495Y-128692312D01*
X134107831Y-128750000D01*
X134021495Y-128807688D01*
X133807688Y-129021495D01*
X133639701Y-129272905D01*
X133523989Y-129552257D01*
X133465000Y-129848816D01*
X133465000Y-130151184D01*
X133523989Y-130447743D01*
X133639701Y-130727095D01*
X133807688Y-130978505D01*
X134021495Y-131192312D01*
X134272905Y-131360299D01*
X134552257Y-131476011D01*
X134848816Y-131535000D01*
X135151184Y-131535000D01*
X135447743Y-131476011D01*
X135727095Y-131360299D01*
X135978505Y-131192312D01*
X136192312Y-130978505D01*
X136360299Y-130727095D01*
X136476011Y-130447743D01*
X136535000Y-130151184D01*
X136535000Y-129848816D01*
X136476011Y-129552257D01*
X136360299Y-129272905D01*
X136192312Y-129021495D01*
X135978505Y-128807688D01*
X135892169Y-128750000D01*
X135978505Y-128692312D01*
X136192312Y-128478505D01*
X136360299Y-128227095D01*
X136476011Y-127947743D01*
X136535000Y-127651184D01*
X136535000Y-127348816D01*
X136476011Y-127052257D01*
X136360299Y-126772905D01*
X136192312Y-126521495D01*
X135978505Y-126307688D01*
X135835690Y-126212262D01*
X135884475Y-126064080D01*
X135000000Y-125179605D01*
X134115525Y-126064080D01*
X134164310Y-126212262D01*
X134021495Y-126307688D01*
X133807688Y-126521495D01*
X133745210Y-126615000D01*
X132543469Y-126615000D01*
X132500000Y-126610719D01*
X132456531Y-126615000D01*
X132456523Y-126615000D01*
X132326510Y-126627805D01*
X132159687Y-126678411D01*
X132047129Y-126738574D01*
X132005941Y-126760589D01*
X131904953Y-126843468D01*
X131904951Y-126843470D01*
X131871183Y-126871183D01*
X131843470Y-126904951D01*
X128233422Y-130515000D01*
X125374521Y-130515000D01*
X125354637Y-130485241D01*
X125154759Y-130285363D01*
X124922241Y-130130000D01*
X125154759Y-129974637D01*
X125354637Y-129774759D01*
X125374521Y-129745000D01*
X126096531Y-129745000D01*
X126140000Y-129749281D01*
X126183469Y-129745000D01*
X126183477Y-129745000D01*
X126313490Y-129732195D01*
X126480313Y-129681589D01*
X126634059Y-129599411D01*
X126768817Y-129488817D01*
X126796534Y-129455044D01*
X130595050Y-125656529D01*
X130628817Y-125628817D01*
X130739411Y-125494059D01*
X130821589Y-125340313D01*
X130872195Y-125173490D01*
X130882727Y-125066553D01*
X133459009Y-125066553D01*
X133501603Y-125365907D01*
X133601778Y-125651199D01*
X133681739Y-125800792D01*
X133935920Y-125884475D01*
X134820395Y-125000000D01*
X135179605Y-125000000D01*
X136064080Y-125884475D01*
X136318261Y-125800792D01*
X136449158Y-125528225D01*
X136524365Y-125235358D01*
X136540991Y-124933447D01*
X136498397Y-124634093D01*
X136398222Y-124348801D01*
X136318261Y-124199208D01*
X136064080Y-124115525D01*
X135179605Y-125000000D01*
X134820395Y-125000000D01*
X133935920Y-124115525D01*
X133681739Y-124199208D01*
X133550842Y-124471775D01*
X133475635Y-124764642D01*
X133459009Y-125066553D01*
X130882727Y-125066553D01*
X130885000Y-125043477D01*
X130885000Y-125043467D01*
X130889281Y-125000001D01*
X130885000Y-124956535D01*
X130885000Y-123935920D01*
X134115525Y-123935920D01*
X135000000Y-124820395D01*
X135884475Y-123935920D01*
X135800792Y-123681739D01*
X135528225Y-123550842D01*
X135235358Y-123475635D01*
X134933447Y-123459009D01*
X134634093Y-123501603D01*
X134348801Y-123601778D01*
X134199208Y-123681739D01*
X134115525Y-123935920D01*
X130885000Y-123935920D01*
X130885000Y-117640475D01*
X139365000Y-117640475D01*
X139365000Y-118159525D01*
X139466261Y-118668601D01*
X139664893Y-119148141D01*
X139953262Y-119579715D01*
X140320285Y-119946738D01*
X140751859Y-120235107D01*
X141231399Y-120433739D01*
X141564517Y-120500000D01*
X141231399Y-120566261D01*
X140751859Y-120764893D01*
X140320285Y-121053262D01*
X139953262Y-121420285D01*
X139664893Y-121851859D01*
X139466261Y-122331399D01*
X139365000Y-122840475D01*
X139365000Y-123359525D01*
X139466261Y-123868601D01*
X139664893Y-124348141D01*
X139953262Y-124779715D01*
X140320285Y-125146738D01*
X140751859Y-125435107D01*
X141231399Y-125633739D01*
X141740475Y-125735000D01*
X142259525Y-125735000D01*
X142768601Y-125633739D01*
X143248141Y-125435107D01*
X143679715Y-125146738D01*
X144046738Y-124779715D01*
X144335107Y-124348141D01*
X144533739Y-123868601D01*
X144635000Y-123359525D01*
X144635000Y-122840475D01*
X144533739Y-122331399D01*
X144335107Y-121851859D01*
X144046738Y-121420285D01*
X143679715Y-121053262D01*
X143248141Y-120764893D01*
X142768601Y-120566261D01*
X142435483Y-120500000D01*
X142768601Y-120433739D01*
X143248141Y-120235107D01*
X143679715Y-119946738D01*
X144046738Y-119579715D01*
X144335107Y-119148141D01*
X144533739Y-118668601D01*
X144635000Y-118159525D01*
X144635000Y-117640475D01*
X144533739Y-117131399D01*
X144335107Y-116651859D01*
X144046738Y-116220285D01*
X143679715Y-115853262D01*
X143248141Y-115564893D01*
X142768601Y-115366261D01*
X142259525Y-115265000D01*
X141740475Y-115265000D01*
X141231399Y-115366261D01*
X140751859Y-115564893D01*
X140320285Y-115853262D01*
X139953262Y-116220285D01*
X139664893Y-116651859D01*
X139466261Y-117131399D01*
X139365000Y-117640475D01*
X130885000Y-117640475D01*
X130885000Y-116366578D01*
X132866579Y-114385000D01*
X133745210Y-114385000D01*
X133807688Y-114478505D01*
X134021495Y-114692312D01*
X134107831Y-114750000D01*
X134021495Y-114807688D01*
X133807688Y-115021495D01*
X133639701Y-115272905D01*
X133523989Y-115552257D01*
X133465000Y-115848816D01*
X133465000Y-116151184D01*
X133523989Y-116447743D01*
X133639701Y-116727095D01*
X133807688Y-116978505D01*
X134021495Y-117192312D01*
X134272905Y-117360299D01*
X134552257Y-117476011D01*
X134848816Y-117535000D01*
X135151184Y-117535000D01*
X135447743Y-117476011D01*
X135727095Y-117360299D01*
X135978505Y-117192312D01*
X136192312Y-116978505D01*
X136360299Y-116727095D01*
X136476011Y-116447743D01*
X136535000Y-116151184D01*
X136535000Y-115848816D01*
X136476011Y-115552257D01*
X136360299Y-115272905D01*
X136192312Y-115021495D01*
X135978505Y-114807688D01*
X135892169Y-114750000D01*
X135978505Y-114692312D01*
X136192312Y-114478505D01*
X136360299Y-114227095D01*
X136476011Y-113947743D01*
X136535000Y-113651184D01*
X136535000Y-113348816D01*
X136476011Y-113052257D01*
X136360299Y-112772905D01*
X136192312Y-112521495D01*
X135978505Y-112307688D01*
X135835690Y-112212262D01*
X135884475Y-112064080D01*
X135000000Y-111179605D01*
X134115525Y-112064080D01*
X134164310Y-112212262D01*
X134021495Y-112307688D01*
X133807688Y-112521495D01*
X133745210Y-112615000D01*
X132543469Y-112615000D01*
X132500000Y-112610719D01*
X132456531Y-112615000D01*
X132456523Y-112615000D01*
X132326510Y-112627805D01*
X132159687Y-112678411D01*
X132005941Y-112760589D01*
X131904953Y-112843468D01*
X131904951Y-112843470D01*
X131871183Y-112871183D01*
X131843470Y-112904951D01*
X129404951Y-115343471D01*
X129371184Y-115371183D01*
X129343471Y-115404951D01*
X129343468Y-115404954D01*
X129260590Y-115505941D01*
X129178412Y-115659687D01*
X129127805Y-115826510D01*
X129110719Y-116000000D01*
X129115001Y-116043479D01*
X129115000Y-124633421D01*
X125773422Y-127975000D01*
X125374521Y-127975000D01*
X125354637Y-127945241D01*
X125154759Y-127745363D01*
X124922241Y-127590000D01*
X125154759Y-127434637D01*
X125354637Y-127234759D01*
X125511680Y-126999727D01*
X125619853Y-126738574D01*
X125675000Y-126461335D01*
X125675000Y-126178665D01*
X125619853Y-125901426D01*
X125511680Y-125640273D01*
X125354637Y-125405241D01*
X125154759Y-125205363D01*
X124922241Y-125050000D01*
X125154759Y-124894637D01*
X125354637Y-124694759D01*
X125511680Y-124459727D01*
X125619853Y-124198574D01*
X125675000Y-123921335D01*
X125675000Y-123638665D01*
X125619853Y-123361426D01*
X125511680Y-123100273D01*
X125354637Y-122865241D01*
X125154759Y-122665363D01*
X124922241Y-122510000D01*
X125154759Y-122354637D01*
X125354637Y-122154759D01*
X125511680Y-121919727D01*
X125619853Y-121658574D01*
X125675000Y-121381335D01*
X125675000Y-121098665D01*
X125619853Y-120821426D01*
X125511680Y-120560273D01*
X125354637Y-120325241D01*
X125154759Y-120125363D01*
X124922241Y-119970000D01*
X125154759Y-119814637D01*
X125354637Y-119614759D01*
X125511680Y-119379727D01*
X125619853Y-119118574D01*
X125675000Y-118841335D01*
X125675000Y-118558665D01*
X125619853Y-118281426D01*
X125511680Y-118020273D01*
X125354637Y-117785241D01*
X125154759Y-117585363D01*
X124922241Y-117430000D01*
X125154759Y-117274637D01*
X125354637Y-117074759D01*
X125511680Y-116839727D01*
X125619853Y-116578574D01*
X125675000Y-116301335D01*
X125675000Y-116018665D01*
X125619853Y-115741426D01*
X125511680Y-115480273D01*
X125354637Y-115245241D01*
X125154759Y-115045363D01*
X124922241Y-114890000D01*
X125154759Y-114734637D01*
X125354637Y-114534759D01*
X125511680Y-114299727D01*
X125619853Y-114038574D01*
X125675000Y-113761335D01*
X125675000Y-113478665D01*
X125619853Y-113201426D01*
X125511680Y-112940273D01*
X125354637Y-112705241D01*
X125154759Y-112505363D01*
X124922241Y-112350000D01*
X125154759Y-112194637D01*
X125354637Y-111994759D01*
X125511680Y-111759727D01*
X125619853Y-111498574D01*
X125675000Y-111221335D01*
X125675000Y-111066553D01*
X133459009Y-111066553D01*
X133501603Y-111365907D01*
X133601778Y-111651199D01*
X133681739Y-111800792D01*
X133935920Y-111884475D01*
X134820395Y-111000000D01*
X135179605Y-111000000D01*
X136064080Y-111884475D01*
X136318261Y-111800792D01*
X136449158Y-111528225D01*
X136524365Y-111235358D01*
X136540991Y-110933447D01*
X136498397Y-110634093D01*
X136398222Y-110348801D01*
X136318261Y-110199208D01*
X136064080Y-110115525D01*
X135179605Y-111000000D01*
X134820395Y-111000000D01*
X133935920Y-110115525D01*
X133681739Y-110199208D01*
X133550842Y-110471775D01*
X133475635Y-110764642D01*
X133459009Y-111066553D01*
X125675000Y-111066553D01*
X125675000Y-110938665D01*
X125619853Y-110661426D01*
X125511680Y-110400273D01*
X125354637Y-110165241D01*
X125154759Y-109965363D01*
X125110695Y-109935920D01*
X134115525Y-109935920D01*
X135000000Y-110820395D01*
X135884475Y-109935920D01*
X135800792Y-109681739D01*
X135528225Y-109550842D01*
X135235358Y-109475635D01*
X134933447Y-109459009D01*
X134634093Y-109501603D01*
X134348801Y-109601778D01*
X134199208Y-109681739D01*
X134115525Y-109935920D01*
X125110695Y-109935920D01*
X124919727Y-109808320D01*
X124909135Y-109803933D01*
X125095131Y-109692385D01*
X125303519Y-109503414D01*
X125471037Y-109277420D01*
X125591246Y-109023087D01*
X125631904Y-108889039D01*
X125605223Y-108840475D01*
X139365000Y-108840475D01*
X139365000Y-109359525D01*
X139466261Y-109868601D01*
X139664893Y-110348141D01*
X139953262Y-110779715D01*
X140320285Y-111146738D01*
X140751859Y-111435107D01*
X141231399Y-111633739D01*
X141740475Y-111735000D01*
X142259525Y-111735000D01*
X142768601Y-111633739D01*
X143248141Y-111435107D01*
X143679715Y-111146738D01*
X144046738Y-110779715D01*
X144335107Y-110348141D01*
X144533739Y-109868601D01*
X144635000Y-109359525D01*
X144635000Y-108840475D01*
X144533739Y-108331399D01*
X144335107Y-107851859D01*
X144046738Y-107420285D01*
X143679715Y-107053262D01*
X143248141Y-106764893D01*
X142768601Y-106566261D01*
X142259525Y-106465000D01*
X141740475Y-106465000D01*
X141231399Y-106566261D01*
X140751859Y-106764893D01*
X140320285Y-107053262D01*
X139953262Y-107420285D01*
X139664893Y-107851859D01*
X139466261Y-108331399D01*
X139365000Y-108840475D01*
X125605223Y-108840475D01*
X125509915Y-108667000D01*
X124367000Y-108667000D01*
X124367000Y-108687000D01*
X124113000Y-108687000D01*
X124113000Y-108667000D01*
X124093000Y-108667000D01*
X124093000Y-108413000D01*
X124113000Y-108413000D01*
X124113000Y-108393000D01*
X124367000Y-108393000D01*
X124367000Y-108413000D01*
X125509915Y-108413000D01*
X125631904Y-108190961D01*
X125591246Y-108056913D01*
X125471037Y-107802580D01*
X125303519Y-107576586D01*
X125095131Y-107387615D01*
X124909135Y-107276067D01*
X124919727Y-107271680D01*
X125154759Y-107114637D01*
X125354637Y-106914759D01*
X125511680Y-106679727D01*
X125619853Y-106418574D01*
X125675000Y-106141335D01*
X125675000Y-105858665D01*
X125619853Y-105581426D01*
X125511680Y-105320273D01*
X125354637Y-105085241D01*
X125154759Y-104885363D01*
X124919727Y-104728320D01*
X124658574Y-104620147D01*
X124381335Y-104565000D01*
X124098665Y-104565000D01*
X123821426Y-104620147D01*
X123560273Y-104728320D01*
X123325241Y-104885363D01*
X123125363Y-105085241D01*
X122968320Y-105320273D01*
X122885000Y-105521425D01*
X122885000Y-103338967D01*
X138365000Y-103338967D01*
X138365000Y-103661033D01*
X138427832Y-103976912D01*
X138551082Y-104274463D01*
X138730013Y-104542252D01*
X138957748Y-104769987D01*
X139225537Y-104948918D01*
X139523088Y-105072168D01*
X139838967Y-105135000D01*
X140161033Y-105135000D01*
X140476912Y-105072168D01*
X140774463Y-104948918D01*
X141042252Y-104769987D01*
X141269987Y-104542252D01*
X141448918Y-104274463D01*
X141572168Y-103976912D01*
X141635000Y-103661033D01*
X141635000Y-103338967D01*
X141572168Y-103023088D01*
X141448918Y-102725537D01*
X141269987Y-102457748D01*
X141042252Y-102230013D01*
X140774463Y-102051082D01*
X140476912Y-101927832D01*
X140161033Y-101865000D01*
X139838967Y-101865000D01*
X139523088Y-101927832D01*
X139225537Y-102051082D01*
X138957748Y-102230013D01*
X138730013Y-102457748D01*
X138551082Y-102725537D01*
X138427832Y-103023088D01*
X138365000Y-103338967D01*
X122885000Y-103338967D01*
X122885000Y-102366578D01*
X130912611Y-94338967D01*
X138365000Y-94338967D01*
X138365000Y-94661033D01*
X138427832Y-94976912D01*
X138551082Y-95274463D01*
X138730013Y-95542252D01*
X138957748Y-95769987D01*
X139225537Y-95948918D01*
X139523088Y-96072168D01*
X139838967Y-96135000D01*
X140161033Y-96135000D01*
X140476912Y-96072168D01*
X140774463Y-95948918D01*
X141042252Y-95769987D01*
X141269987Y-95542252D01*
X141448918Y-95274463D01*
X141572168Y-94976912D01*
X141635000Y-94661033D01*
X141635000Y-94338967D01*
X141572168Y-94023088D01*
X141448918Y-93725537D01*
X141269987Y-93457748D01*
X141042252Y-93230013D01*
X140774463Y-93051082D01*
X140476912Y-92927832D01*
X140161033Y-92865000D01*
X139838967Y-92865000D01*
X139523088Y-92927832D01*
X139225537Y-93051082D01*
X138957748Y-93230013D01*
X138730013Y-93457748D01*
X138551082Y-93725537D01*
X138427832Y-94023088D01*
X138365000Y-94338967D01*
X130912611Y-94338967D01*
X136366579Y-88885000D01*
X138722406Y-88885000D01*
X138759294Y-88954013D01*
X138944866Y-89180134D01*
X139170986Y-89365706D01*
X139428966Y-89503599D01*
X139708889Y-89588513D01*
X140000000Y-89617185D01*
X140291110Y-89588513D01*
X140571033Y-89503599D01*
X140829013Y-89365706D01*
X141055134Y-89180134D01*
X141240706Y-88954014D01*
X141250000Y-88936626D01*
X141259294Y-88954013D01*
X141444866Y-89180134D01*
X141670986Y-89365706D01*
X141928966Y-89503599D01*
X142208889Y-89588513D01*
X142500000Y-89617185D01*
X142791110Y-89588513D01*
X143071033Y-89503599D01*
X143329013Y-89365706D01*
X143549945Y-89184392D01*
X143560498Y-89219180D01*
X143619463Y-89329494D01*
X143698815Y-89426185D01*
X143795506Y-89505537D01*
X143905820Y-89564502D01*
X144025518Y-89600812D01*
X144150000Y-89613072D01*
X144714250Y-89610000D01*
X144873000Y-89451250D01*
X144873000Y-88127000D01*
X145127000Y-88127000D01*
X145127000Y-89451250D01*
X145285750Y-89610000D01*
X145850000Y-89613072D01*
X145974482Y-89600812D01*
X146094180Y-89564502D01*
X146204494Y-89505537D01*
X146301185Y-89426185D01*
X146380537Y-89329494D01*
X146439502Y-89219180D01*
X146475812Y-89099482D01*
X146488072Y-88975000D01*
X146485000Y-88285750D01*
X146326250Y-88127000D01*
X145127000Y-88127000D01*
X144873000Y-88127000D01*
X144853000Y-88127000D01*
X144853000Y-87873000D01*
X144873000Y-87873000D01*
X144873000Y-86548750D01*
X145127000Y-86548750D01*
X145127000Y-87873000D01*
X146326250Y-87873000D01*
X146485000Y-87714250D01*
X146488072Y-87025000D01*
X146475812Y-86900518D01*
X146439502Y-86780820D01*
X146380537Y-86670506D01*
X146301185Y-86573815D01*
X146204494Y-86494463D01*
X146094180Y-86435498D01*
X145974482Y-86399188D01*
X145850000Y-86386928D01*
X145285750Y-86390000D01*
X145127000Y-86548750D01*
X144873000Y-86548750D01*
X144714250Y-86390000D01*
X144150000Y-86386928D01*
X144025518Y-86399188D01*
X143905820Y-86435498D01*
X143795506Y-86494463D01*
X143698815Y-86573815D01*
X143619463Y-86670506D01*
X143560498Y-86780820D01*
X143549945Y-86815608D01*
X143329014Y-86634294D01*
X143071034Y-86496401D01*
X142791111Y-86411487D01*
X142500000Y-86382815D01*
X142208890Y-86411487D01*
X141928967Y-86496401D01*
X141670987Y-86634294D01*
X141444866Y-86819866D01*
X141259294Y-87045986D01*
X141250000Y-87063374D01*
X141240706Y-87045986D01*
X141055134Y-86819866D01*
X140829014Y-86634294D01*
X140571034Y-86496401D01*
X140291111Y-86411487D01*
X140000000Y-86382815D01*
X139708890Y-86411487D01*
X139428967Y-86496401D01*
X139170987Y-86634294D01*
X138944866Y-86819866D01*
X138759294Y-87045986D01*
X138722405Y-87115000D01*
X136043469Y-87115000D01*
X136000000Y-87110719D01*
X135956531Y-87115000D01*
X135956523Y-87115000D01*
X135826510Y-87127805D01*
X135659687Y-87178411D01*
X135581140Y-87220395D01*
X135505941Y-87260589D01*
X135404953Y-87343468D01*
X135404951Y-87343470D01*
X135371183Y-87371183D01*
X135343470Y-87404951D01*
X121404956Y-101343466D01*
X121371183Y-101371183D01*
X121260589Y-101505942D01*
X121178411Y-101659688D01*
X121127805Y-101826511D01*
X121115000Y-101956524D01*
X121115000Y-101956531D01*
X121110719Y-102000000D01*
X121115000Y-102043469D01*
X121115001Y-111571627D01*
X121094180Y-111560498D01*
X120974482Y-111524188D01*
X120850000Y-111511928D01*
X119150000Y-111511928D01*
X119025518Y-111524188D01*
X118905820Y-111560498D01*
X118795506Y-111619463D01*
X118698815Y-111698815D01*
X118619463Y-111795506D01*
X118560498Y-111905820D01*
X118524188Y-112025518D01*
X118511928Y-112150000D01*
X115488072Y-112150000D01*
X115475812Y-112025518D01*
X115439502Y-111905820D01*
X115380537Y-111795506D01*
X115301185Y-111698815D01*
X115204494Y-111619463D01*
X115094180Y-111560498D01*
X114974482Y-111524188D01*
X114850000Y-111511928D01*
X114285750Y-111515000D01*
X114127000Y-111673750D01*
X113873000Y-111673750D01*
X113714250Y-111515000D01*
X113150000Y-111511928D01*
X113025518Y-111524188D01*
X112905820Y-111560498D01*
X112795506Y-111619463D01*
X112698815Y-111698815D01*
X112619463Y-111795506D01*
X112560498Y-111905820D01*
X112524188Y-112025518D01*
X112511928Y-112150000D01*
X111885000Y-112150000D01*
X111885000Y-104366578D01*
X114366579Y-101885000D01*
X119281550Y-101885000D01*
X119462376Y-102005824D01*
X119668933Y-102091383D01*
X119888212Y-102135000D01*
X120111788Y-102135000D01*
X120331067Y-102091383D01*
X120537624Y-102005824D01*
X120723520Y-101881612D01*
X120881612Y-101723520D01*
X121005824Y-101537624D01*
X121091383Y-101331067D01*
X121135000Y-101111788D01*
X121135000Y-100888212D01*
X121091383Y-100668933D01*
X121005824Y-100462376D01*
X120881612Y-100276480D01*
X120723520Y-100118388D01*
X120537624Y-99994176D01*
X120331067Y-99908617D01*
X120111788Y-99865000D01*
X119888212Y-99865000D01*
X119668933Y-99908617D01*
X119462376Y-99994176D01*
X119281550Y-100115000D01*
X114043469Y-100115000D01*
X114000000Y-100110719D01*
X113956531Y-100115000D01*
X113956523Y-100115000D01*
X113826510Y-100127805D01*
X113659686Y-100178411D01*
X113505941Y-100260589D01*
X113404953Y-100343468D01*
X113404951Y-100343470D01*
X113371183Y-100371183D01*
X113343470Y-100404951D01*
X110404956Y-103343466D01*
X110371183Y-103371183D01*
X110260589Y-103505942D01*
X110178411Y-103659688D01*
X110127805Y-103826511D01*
X110115000Y-103956524D01*
X110115000Y-103956531D01*
X110110719Y-104000000D01*
X110115000Y-104043469D01*
X110115000Y-104648353D01*
X110044180Y-104610498D01*
X109924482Y-104574188D01*
X109800000Y-104561928D01*
X108200000Y-104561928D01*
X108075518Y-104574188D01*
X107955820Y-104610498D01*
X107845506Y-104669463D01*
X107748815Y-104748815D01*
X107669463Y-104845506D01*
X107610498Y-104955820D01*
X107574188Y-105075518D01*
X107561928Y-105200000D01*
X105660000Y-105200000D01*
X105660000Y-87700881D01*
X117478724Y-87700881D01*
X117838912Y-88190548D01*
X118502882Y-88550849D01*
X119224385Y-88774694D01*
X119975695Y-88853480D01*
X120727938Y-88784178D01*
X121452208Y-88569452D01*
X122120670Y-88217555D01*
X122161088Y-88190548D01*
X122521276Y-87700881D01*
X120000000Y-85179605D01*
X117478724Y-87700881D01*
X105660000Y-87700881D01*
X105660000Y-84975695D01*
X116146520Y-84975695D01*
X116215822Y-85727938D01*
X116430548Y-86452208D01*
X116782445Y-87120670D01*
X116809452Y-87161088D01*
X117299119Y-87521276D01*
X119820395Y-85000000D01*
X120179605Y-85000000D01*
X122700881Y-87521276D01*
X123190548Y-87161088D01*
X123550849Y-86497118D01*
X123774694Y-85775615D01*
X123853480Y-85024305D01*
X123784178Y-84272062D01*
X123569452Y-83547792D01*
X123217555Y-82879330D01*
X123190548Y-82838912D01*
X122700881Y-82478724D01*
X120179605Y-85000000D01*
X119820395Y-85000000D01*
X117299119Y-82478724D01*
X116809452Y-82838912D01*
X116449151Y-83502882D01*
X116225306Y-84224385D01*
X116146520Y-84975695D01*
X105660000Y-84975695D01*
X105660000Y-82299119D01*
X117478724Y-82299119D01*
X120000000Y-84820395D01*
X122521276Y-82299119D01*
X122161088Y-81809452D01*
X121497118Y-81449151D01*
X120775615Y-81225306D01*
X120024305Y-81146520D01*
X119272062Y-81215822D01*
X118547792Y-81430548D01*
X117879330Y-81782445D01*
X117838912Y-81809452D01*
X117478724Y-82299119D01*
X105660000Y-82299119D01*
X105660000Y-81029392D01*
X105731173Y-80231917D01*
X105934656Y-79488109D01*
X106266638Y-78792095D01*
X106716626Y-78165870D01*
X107270403Y-77629223D01*
X107910451Y-77199129D01*
X108616553Y-76889171D01*
X109371457Y-76707935D01*
X110024207Y-76660000D01*
X144970608Y-76660000D01*
X145768083Y-76731173D01*
G37*
%TD.AperFunction*%
%TD*%
M02*
