%TF.GenerationSoftware,KiCad,Pcbnew,(5.1.10)-1*%
%TF.CreationDate,2022-05-06T17:00:31+02:00*%
%TF.ProjectId,LTE_HW,4c54455f-4857-42e6-9b69-6361645f7063,rev?*%
%TF.SameCoordinates,Original*%
%TF.FileFunction,Legend,Top*%
%TF.FilePolarity,Positive*%
%FSLAX46Y46*%
G04 Gerber Fmt 4.6, Leading zero omitted, Abs format (unit mm)*
G04 Created by KiCad (PCBNEW (5.1.10)-1) date 2022-05-06 17:00:31*
%MOMM*%
%LPD*%
G01*
G04 APERTURE LIST*
%TA.AperFunction,Profile*%
%ADD10C,0.050000*%
%TD*%
%ADD11C,0.750000*%
%ADD12C,0.150000*%
%ADD13C,0.120000*%
G04 APERTURE END LIST*
D10*
X150000000Y-145000000D02*
G75*
G02*
X145000000Y-150000000I-5000000J0D01*
G01*
X145000000Y-76000000D02*
G75*
G02*
X150000000Y-81000000I0J-5000000D01*
G01*
X105000000Y-81000000D02*
G75*
G02*
X110000000Y-76000000I5000000J0D01*
G01*
X110000000Y-150000000D02*
G75*
G02*
X105000000Y-145000000I0J5000000D01*
G01*
D11*
X128357142Y-131071428D02*
X131357142Y-130071428D01*
X128357142Y-129071428D01*
X131214285Y-126928571D02*
X131357142Y-127214285D01*
X131357142Y-127785714D01*
X131214285Y-128071428D01*
X130928571Y-128214285D01*
X129785714Y-128214285D01*
X129500000Y-128071428D01*
X129357142Y-127785714D01*
X129357142Y-127214285D01*
X129500000Y-126928571D01*
X129785714Y-126785714D01*
X130071428Y-126785714D01*
X130357142Y-128214285D01*
X131357142Y-125500000D02*
X129357142Y-125500000D01*
X129928571Y-125500000D02*
X129642857Y-125357142D01*
X129500000Y-125214285D01*
X129357142Y-124928571D01*
X129357142Y-124642857D01*
X129357142Y-124071428D02*
X129357142Y-122928571D01*
X128357142Y-123642857D02*
X130928571Y-123642857D01*
X131214285Y-123500000D01*
X131357142Y-123214285D01*
X131357142Y-122928571D01*
X129785714Y-117214285D02*
X129928571Y-116785714D01*
X130071428Y-116642857D01*
X130357142Y-116500000D01*
X130785714Y-116500000D01*
X131071428Y-116642857D01*
X131214285Y-116785714D01*
X131357142Y-117071428D01*
X131357142Y-118214285D01*
X128357142Y-118214285D01*
X128357142Y-117214285D01*
X128500000Y-116928571D01*
X128642857Y-116785714D01*
X128928571Y-116642857D01*
X129214285Y-116642857D01*
X129500000Y-116785714D01*
X129642857Y-116928571D01*
X129785714Y-117214285D01*
X129785714Y-118214285D01*
X131357142Y-114785714D02*
X131214285Y-115071428D01*
X130928571Y-115214285D01*
X128357142Y-115214285D01*
X131214285Y-112500000D02*
X131357142Y-112785714D01*
X131357142Y-113357142D01*
X131214285Y-113642857D01*
X130928571Y-113785714D01*
X129785714Y-113785714D01*
X129500000Y-113642857D01*
X129357142Y-113357142D01*
X129357142Y-112785714D01*
X129500000Y-112500000D01*
X129785714Y-112357142D01*
X130071428Y-112357142D01*
X130357142Y-113785714D01*
X129357142Y-109785714D02*
X131357142Y-109785714D01*
X129357142Y-111071428D02*
X130928571Y-111071428D01*
X131214285Y-110928571D01*
X131357142Y-110642857D01*
X131357142Y-110214285D01*
X131214285Y-109928571D01*
X131071428Y-109785714D01*
X131357142Y-145428571D02*
X129928571Y-146428571D01*
X131357142Y-147142857D02*
X128357142Y-147142857D01*
X128357142Y-146000000D01*
X128500000Y-145714285D01*
X128642857Y-145571428D01*
X128928571Y-145428571D01*
X129357142Y-145428571D01*
X129642857Y-145571428D01*
X129785714Y-145714285D01*
X129928571Y-146000000D01*
X129928571Y-147142857D01*
X131357142Y-143714285D02*
X131214285Y-144000000D01*
X131071428Y-144142857D01*
X130785714Y-144285714D01*
X129928571Y-144285714D01*
X129642857Y-144142857D01*
X129500000Y-144000000D01*
X129357142Y-143714285D01*
X129357142Y-143285714D01*
X129500000Y-143000000D01*
X129642857Y-142857142D01*
X129928571Y-142714285D01*
X130785714Y-142714285D01*
X131071428Y-142857142D01*
X131214285Y-143000000D01*
X131357142Y-143285714D01*
X131357142Y-143714285D01*
X129357142Y-140142857D02*
X131357142Y-140142857D01*
X129357142Y-141428571D02*
X130928571Y-141428571D01*
X131214285Y-141285714D01*
X131357142Y-141000000D01*
X131357142Y-140571428D01*
X131214285Y-140285714D01*
X131071428Y-140142857D01*
X129357142Y-137428571D02*
X131785714Y-137428571D01*
X132071428Y-137571428D01*
X132214285Y-137714285D01*
X132357142Y-138000000D01*
X132357142Y-138428571D01*
X132214285Y-138714285D01*
X131214285Y-137428571D02*
X131357142Y-137714285D01*
X131357142Y-138285714D01*
X131214285Y-138571428D01*
X131071428Y-138714285D01*
X130785714Y-138857142D01*
X129928571Y-138857142D01*
X129642857Y-138714285D01*
X129500000Y-138571428D01*
X129357142Y-138285714D01*
X129357142Y-137714285D01*
X129500000Y-137428571D01*
X131214285Y-134857142D02*
X131357142Y-135142857D01*
X131357142Y-135714285D01*
X131214285Y-136000000D01*
X130928571Y-136142857D01*
X129785714Y-136142857D01*
X129500000Y-136000000D01*
X129357142Y-135714285D01*
X129357142Y-135142857D01*
X129500000Y-134857142D01*
X129785714Y-134714285D01*
X130071428Y-134714285D01*
X130357142Y-136142857D01*
D10*
X145000000Y-76000000D02*
X110000000Y-76000000D01*
X150000000Y-145000000D02*
X150000000Y-81000000D01*
X110000000Y-150000000D02*
X145000000Y-150000000D01*
X105000000Y-81000000D02*
X105000000Y-145000000D01*
D12*
X109214285Y-97627380D02*
X108738095Y-97627380D01*
X108738095Y-96627380D01*
X109928571Y-97579761D02*
X109833333Y-97627380D01*
X109642857Y-97627380D01*
X109547619Y-97579761D01*
X109500000Y-97484523D01*
X109500000Y-97103571D01*
X109547619Y-97008333D01*
X109642857Y-96960714D01*
X109833333Y-96960714D01*
X109928571Y-97008333D01*
X109976190Y-97103571D01*
X109976190Y-97198809D01*
X109500000Y-97294047D01*
X111023809Y-96627380D02*
X111595238Y-96627380D01*
X111309523Y-97627380D02*
X111309523Y-96627380D01*
X112357142Y-96960714D02*
X112357142Y-97627380D01*
X111928571Y-96960714D02*
X111928571Y-97484523D01*
X111976190Y-97579761D01*
X112071428Y-97627380D01*
X112214285Y-97627380D01*
X112309523Y-97579761D01*
X112357142Y-97532142D01*
X112690476Y-96960714D02*
X113071428Y-96960714D01*
X112833333Y-96627380D02*
X112833333Y-97484523D01*
X112880952Y-97579761D01*
X112976190Y-97627380D01*
X113071428Y-97627380D01*
X113547619Y-97627380D02*
X113452380Y-97579761D01*
X113404761Y-97532142D01*
X113357142Y-97436904D01*
X113357142Y-97151190D01*
X113404761Y-97055952D01*
X113452380Y-97008333D01*
X113547619Y-96960714D01*
X113690476Y-96960714D01*
X113785714Y-97008333D01*
X113833333Y-97055952D01*
X113880952Y-97151190D01*
X113880952Y-97436904D01*
X113833333Y-97532142D01*
X113785714Y-97579761D01*
X113690476Y-97627380D01*
X113547619Y-97627380D01*
X115071428Y-97103571D02*
X115404761Y-97103571D01*
X115547619Y-97627380D02*
X115071428Y-97627380D01*
X115071428Y-96627380D01*
X115547619Y-96627380D01*
X116404761Y-97579761D02*
X116309523Y-97627380D01*
X116119047Y-97627380D01*
X116023809Y-97579761D01*
X115976190Y-97532142D01*
X115928571Y-97436904D01*
X115928571Y-97151190D01*
X115976190Y-97055952D01*
X116023809Y-97008333D01*
X116119047Y-96960714D01*
X116309523Y-96960714D01*
X116404761Y-97008333D01*
X116976190Y-97627380D02*
X116880952Y-97579761D01*
X116833333Y-97484523D01*
X116833333Y-96627380D01*
X117785714Y-97627380D02*
X117785714Y-97103571D01*
X117738095Y-97008333D01*
X117642857Y-96960714D01*
X117452380Y-96960714D01*
X117357142Y-97008333D01*
X117785714Y-97579761D02*
X117690476Y-97627380D01*
X117452380Y-97627380D01*
X117357142Y-97579761D01*
X117309523Y-97484523D01*
X117309523Y-97389285D01*
X117357142Y-97294047D01*
X117452380Y-97246428D01*
X117690476Y-97246428D01*
X117785714Y-97198809D01*
X118261904Y-97627380D02*
X118261904Y-96960714D01*
X118261904Y-96627380D02*
X118214285Y-96675000D01*
X118261904Y-96722619D01*
X118309523Y-96675000D01*
X118261904Y-96627380D01*
X118261904Y-96722619D01*
X118738095Y-97627380D02*
X118738095Y-96960714D01*
X118738095Y-97151190D02*
X118785714Y-97055952D01*
X118833333Y-97008333D01*
X118928571Y-96960714D01*
X119023809Y-96960714D01*
X119785714Y-97627380D02*
X119785714Y-97103571D01*
X119738095Y-97008333D01*
X119642857Y-96960714D01*
X119452380Y-96960714D01*
X119357142Y-97008333D01*
X119785714Y-97579761D02*
X119690476Y-97627380D01*
X119452380Y-97627380D01*
X119357142Y-97579761D01*
X119309523Y-97484523D01*
X119309523Y-97389285D01*
X119357142Y-97294047D01*
X119452380Y-97246428D01*
X119690476Y-97246428D01*
X119785714Y-97198809D01*
X120261904Y-96960714D02*
X120261904Y-97627380D01*
X120261904Y-97055952D02*
X120309523Y-97008333D01*
X120404761Y-96960714D01*
X120547619Y-96960714D01*
X120642857Y-97008333D01*
X120690476Y-97103571D01*
X120690476Y-97627380D01*
X121023809Y-96960714D02*
X121404761Y-96960714D01*
X121166666Y-96627380D02*
X121166666Y-97484523D01*
X121214285Y-97579761D01*
X121309523Y-97627380D01*
X121404761Y-97627380D01*
X110619047Y-98372619D02*
X110666666Y-98325000D01*
X110761904Y-98277380D01*
X111000000Y-98277380D01*
X111095238Y-98325000D01*
X111142857Y-98372619D01*
X111190476Y-98467857D01*
X111190476Y-98563095D01*
X111142857Y-98705952D01*
X110571428Y-99277380D01*
X111190476Y-99277380D01*
X111809523Y-98277380D02*
X111904761Y-98277380D01*
X112000000Y-98325000D01*
X112047619Y-98372619D01*
X112095238Y-98467857D01*
X112142857Y-98658333D01*
X112142857Y-98896428D01*
X112095238Y-99086904D01*
X112047619Y-99182142D01*
X112000000Y-99229761D01*
X111904761Y-99277380D01*
X111809523Y-99277380D01*
X111714285Y-99229761D01*
X111666666Y-99182142D01*
X111619047Y-99086904D01*
X111571428Y-98896428D01*
X111571428Y-98658333D01*
X111619047Y-98467857D01*
X111666666Y-98372619D01*
X111714285Y-98325000D01*
X111809523Y-98277380D01*
X112523809Y-98372619D02*
X112571428Y-98325000D01*
X112666666Y-98277380D01*
X112904761Y-98277380D01*
X113000000Y-98325000D01*
X113047619Y-98372619D01*
X113095238Y-98467857D01*
X113095238Y-98563095D01*
X113047619Y-98705952D01*
X112476190Y-99277380D01*
X113095238Y-99277380D01*
X113476190Y-98372619D02*
X113523809Y-98325000D01*
X113619047Y-98277380D01*
X113857142Y-98277380D01*
X113952380Y-98325000D01*
X114000000Y-98372619D01*
X114047619Y-98467857D01*
X114047619Y-98563095D01*
X114000000Y-98705952D01*
X113428571Y-99277380D01*
X114047619Y-99277380D01*
X115428571Y-98277380D02*
X115523809Y-98277380D01*
X115619047Y-98325000D01*
X115666666Y-98372619D01*
X115714285Y-98467857D01*
X115761904Y-98658333D01*
X115761904Y-98896428D01*
X115714285Y-99086904D01*
X115666666Y-99182142D01*
X115619047Y-99229761D01*
X115523809Y-99277380D01*
X115428571Y-99277380D01*
X115333333Y-99229761D01*
X115285714Y-99182142D01*
X115238095Y-99086904D01*
X115190476Y-98896428D01*
X115190476Y-98658333D01*
X115238095Y-98467857D01*
X115285714Y-98372619D01*
X115333333Y-98325000D01*
X115428571Y-98277380D01*
X116666666Y-98277380D02*
X116190476Y-98277380D01*
X116142857Y-98753571D01*
X116190476Y-98705952D01*
X116285714Y-98658333D01*
X116523809Y-98658333D01*
X116619047Y-98705952D01*
X116666666Y-98753571D01*
X116714285Y-98848809D01*
X116714285Y-99086904D01*
X116666666Y-99182142D01*
X116619047Y-99229761D01*
X116523809Y-99277380D01*
X116285714Y-99277380D01*
X116190476Y-99229761D01*
X116142857Y-99182142D01*
X118095238Y-98277380D02*
X118190476Y-98277380D01*
X118285714Y-98325000D01*
X118333333Y-98372619D01*
X118380952Y-98467857D01*
X118428571Y-98658333D01*
X118428571Y-98896428D01*
X118380952Y-99086904D01*
X118333333Y-99182142D01*
X118285714Y-99229761D01*
X118190476Y-99277380D01*
X118095238Y-99277380D01*
X118000000Y-99229761D01*
X117952380Y-99182142D01*
X117904761Y-99086904D01*
X117857142Y-98896428D01*
X117857142Y-98658333D01*
X117904761Y-98467857D01*
X117952380Y-98372619D01*
X118000000Y-98325000D01*
X118095238Y-98277380D01*
X119285714Y-98277380D02*
X119095238Y-98277380D01*
X119000000Y-98325000D01*
X118952380Y-98372619D01*
X118857142Y-98515476D01*
X118809523Y-98705952D01*
X118809523Y-99086904D01*
X118857142Y-99182142D01*
X118904761Y-99229761D01*
X119000000Y-99277380D01*
X119190476Y-99277380D01*
X119285714Y-99229761D01*
X119333333Y-99182142D01*
X119380952Y-99086904D01*
X119380952Y-98848809D01*
X119333333Y-98753571D01*
X119285714Y-98705952D01*
X119190476Y-98658333D01*
X119000000Y-98658333D01*
X118904761Y-98705952D01*
X118857142Y-98753571D01*
X118809523Y-98848809D01*
D13*
%TO.C,A1*%
X125640000Y-102060000D02*
X107600000Y-102060000D01*
X125640000Y-145500000D02*
X125640000Y-102060000D01*
X107600000Y-145500000D02*
X125640000Y-145500000D01*
X110270000Y-142830000D02*
X107600000Y-142830000D01*
X110270000Y-107270000D02*
X110270000Y-142830000D01*
X110270000Y-107270000D02*
X107600000Y-107270000D01*
X122970000Y-142830000D02*
X125640000Y-142830000D01*
X122970000Y-104730000D02*
X122970000Y-142830000D01*
X122970000Y-104730000D02*
X125640000Y-104730000D01*
X107600000Y-102060000D02*
X107600000Y-104730000D01*
X107600000Y-107270000D02*
X107600000Y-145500000D01*
X110270000Y-104730000D02*
X107600000Y-104730000D01*
X110270000Y-107270000D02*
X110270000Y-104730000D01*
%TO.C,J1*%
X144700000Y-90100000D02*
X145000000Y-89500000D01*
X145300000Y-90100000D02*
X144700000Y-90100000D01*
X145000000Y-89500000D02*
X145300000Y-90100000D01*
X139750000Y-84800000D02*
X140250000Y-84800000D01*
X139750000Y-79300000D02*
X139750000Y-84800000D01*
X140250000Y-79300000D02*
X139750000Y-79300000D01*
X140250000Y-84800000D02*
X140250000Y-79300000D01*
X142250000Y-84800000D02*
X142750000Y-84800000D01*
X142250000Y-79300000D02*
X142250000Y-84800000D01*
X142750000Y-79300000D02*
X142250000Y-79300000D01*
X142750000Y-84800000D02*
X142750000Y-79300000D01*
X144750000Y-84800000D02*
X145250000Y-84800000D01*
X144750000Y-79300000D02*
X144750000Y-84800000D01*
X145250000Y-79300000D02*
X144750000Y-79300000D01*
X145250000Y-84800000D02*
X145250000Y-79300000D01*
X138860000Y-85910000D02*
X142500000Y-85910000D01*
X138860000Y-90410000D02*
X138860000Y-85910000D01*
X137440000Y-90410000D02*
X138860000Y-90410000D01*
X137440000Y-78690000D02*
X137440000Y-90410000D01*
X142500000Y-78690000D02*
X137440000Y-78690000D01*
X146140000Y-85910000D02*
X142500000Y-85910000D01*
X146140000Y-90410000D02*
X146140000Y-85910000D01*
X147560000Y-90410000D02*
X146140000Y-90410000D01*
X147560000Y-78690000D02*
X147560000Y-90410000D01*
X142500000Y-78690000D02*
X147560000Y-78690000D01*
%TO.C,R1*%
X123296267Y-92490000D02*
X122953733Y-92490000D01*
X123296267Y-93510000D02*
X122953733Y-93510000D01*
%TO.C,SW1*%
X133800000Y-97450000D02*
X133800000Y-100550000D01*
X133800000Y-103600000D02*
X135400000Y-105150000D01*
X133800000Y-94400000D02*
X135400000Y-92850000D01*
X144600000Y-92850000D02*
X146200000Y-94400000D01*
X146200000Y-97450000D02*
X146200000Y-100550000D01*
X144600000Y-105150000D02*
X146200000Y-103600000D01*
X135400000Y-92850000D02*
X144600000Y-92850000D01*
X135400000Y-105150000D02*
X144600000Y-105150000D01*
X133800000Y-95550000D02*
X133800000Y-94400000D01*
X146200000Y-95550000D02*
X146200000Y-94400000D01*
X146200000Y-102450000D02*
X146200000Y-103600000D01*
X133800000Y-102450000D02*
X133800000Y-103600000D01*
%TO.C,RV1*%
X135880000Y-136479000D02*
X139817000Y-136479000D01*
X144184000Y-136479000D02*
X148120000Y-136479000D01*
X135880000Y-146520000D02*
X139817000Y-146520000D01*
X144184000Y-146520000D02*
X148120000Y-146520000D01*
X135880000Y-136479000D02*
X135880000Y-138129000D01*
X135880000Y-139871000D02*
X135880000Y-140630000D01*
X135880000Y-142371000D02*
X135880000Y-143130000D01*
X135880000Y-144870000D02*
X135880000Y-146520000D01*
X148120000Y-136479000D02*
X148120000Y-146520000D01*
%TO.C,RV2*%
X148120000Y-122479000D02*
X148120000Y-132520000D01*
X135880000Y-130870000D02*
X135880000Y-132520000D01*
X135880000Y-128371000D02*
X135880000Y-129130000D01*
X135880000Y-125871000D02*
X135880000Y-126630000D01*
X135880000Y-122479000D02*
X135880000Y-124129000D01*
X144184000Y-132520000D02*
X148120000Y-132520000D01*
X135880000Y-132520000D02*
X139817000Y-132520000D01*
X144184000Y-122479000D02*
X148120000Y-122479000D01*
X135880000Y-122479000D02*
X139817000Y-122479000D01*
%TO.C,RV3*%
X135880000Y-108479000D02*
X139817000Y-108479000D01*
X144184000Y-108479000D02*
X148120000Y-108479000D01*
X135880000Y-118520000D02*
X139817000Y-118520000D01*
X144184000Y-118520000D02*
X148120000Y-118520000D01*
X135880000Y-108479000D02*
X135880000Y-110129000D01*
X135880000Y-111871000D02*
X135880000Y-112630000D01*
X135880000Y-114371000D02*
X135880000Y-115130000D01*
X135880000Y-116870000D02*
X135880000Y-118520000D01*
X148120000Y-108479000D02*
X148120000Y-118520000D01*
%TD*%
%TO.C,A1*%
D12*
X123285714Y-103166666D02*
X123761904Y-103166666D01*
X123190476Y-103452380D02*
X123523809Y-102452380D01*
X123857142Y-103452380D01*
X124714285Y-103452380D02*
X124142857Y-103452380D01*
X124428571Y-103452380D02*
X124428571Y-102452380D01*
X124333333Y-102595238D01*
X124238095Y-102690476D01*
X124142857Y-102738095D01*
%TO.C,J1*%
X142666666Y-89452380D02*
X142666666Y-90166666D01*
X142619047Y-90309523D01*
X142523809Y-90404761D01*
X142380952Y-90452380D01*
X142285714Y-90452380D01*
X143666666Y-90452380D02*
X143095238Y-90452380D01*
X143380952Y-90452380D02*
X143380952Y-89452380D01*
X143285714Y-89595238D01*
X143190476Y-89690476D01*
X143095238Y-89738095D01*
%TO.C,R1*%
X122958333Y-94882380D02*
X122625000Y-94406190D01*
X122386904Y-94882380D02*
X122386904Y-93882380D01*
X122767857Y-93882380D01*
X122863095Y-93930000D01*
X122910714Y-93977619D01*
X122958333Y-94072857D01*
X122958333Y-94215714D01*
X122910714Y-94310952D01*
X122863095Y-94358571D01*
X122767857Y-94406190D01*
X122386904Y-94406190D01*
X123910714Y-94882380D02*
X123339285Y-94882380D01*
X123625000Y-94882380D02*
X123625000Y-93882380D01*
X123529761Y-94025238D01*
X123434523Y-94120476D01*
X123339285Y-94168095D01*
%TO.C,SW1*%
X138666666Y-92104761D02*
X138809523Y-92152380D01*
X139047619Y-92152380D01*
X139142857Y-92104761D01*
X139190476Y-92057142D01*
X139238095Y-91961904D01*
X139238095Y-91866666D01*
X139190476Y-91771428D01*
X139142857Y-91723809D01*
X139047619Y-91676190D01*
X138857142Y-91628571D01*
X138761904Y-91580952D01*
X138714285Y-91533333D01*
X138666666Y-91438095D01*
X138666666Y-91342857D01*
X138714285Y-91247619D01*
X138761904Y-91200000D01*
X138857142Y-91152380D01*
X139095238Y-91152380D01*
X139238095Y-91200000D01*
X139571428Y-91152380D02*
X139809523Y-92152380D01*
X140000000Y-91438095D01*
X140190476Y-92152380D01*
X140428571Y-91152380D01*
X141333333Y-92152380D02*
X140761904Y-92152380D01*
X141047619Y-92152380D02*
X141047619Y-91152380D01*
X140952380Y-91295238D01*
X140857142Y-91390476D01*
X140761904Y-91438095D01*
%TO.C,RV1*%
X138452380Y-143595238D02*
X137976190Y-143928571D01*
X138452380Y-144166666D02*
X137452380Y-144166666D01*
X137452380Y-143785714D01*
X137500000Y-143690476D01*
X137547619Y-143642857D01*
X137642857Y-143595238D01*
X137785714Y-143595238D01*
X137880952Y-143642857D01*
X137928571Y-143690476D01*
X137976190Y-143785714D01*
X137976190Y-144166666D01*
X137452380Y-143309523D02*
X138452380Y-142976190D01*
X137452380Y-142642857D01*
X138452380Y-141785714D02*
X138452380Y-142357142D01*
X138452380Y-142071428D02*
X137452380Y-142071428D01*
X137595238Y-142166666D01*
X137690476Y-142261904D01*
X137738095Y-142357142D01*
%TO.C,RV2*%
X138452380Y-128595238D02*
X137976190Y-128928571D01*
X138452380Y-129166666D02*
X137452380Y-129166666D01*
X137452380Y-128785714D01*
X137500000Y-128690476D01*
X137547619Y-128642857D01*
X137642857Y-128595238D01*
X137785714Y-128595238D01*
X137880952Y-128642857D01*
X137928571Y-128690476D01*
X137976190Y-128785714D01*
X137976190Y-129166666D01*
X137452380Y-128309523D02*
X138452380Y-127976190D01*
X137452380Y-127642857D01*
X137547619Y-127357142D02*
X137500000Y-127309523D01*
X137452380Y-127214285D01*
X137452380Y-126976190D01*
X137500000Y-126880952D01*
X137547619Y-126833333D01*
X137642857Y-126785714D01*
X137738095Y-126785714D01*
X137880952Y-126833333D01*
X138452380Y-127404761D01*
X138452380Y-126785714D01*
%TO.C,RV3*%
X138452380Y-114595238D02*
X137976190Y-114928571D01*
X138452380Y-115166666D02*
X137452380Y-115166666D01*
X137452380Y-114785714D01*
X137500000Y-114690476D01*
X137547619Y-114642857D01*
X137642857Y-114595238D01*
X137785714Y-114595238D01*
X137880952Y-114642857D01*
X137928571Y-114690476D01*
X137976190Y-114785714D01*
X137976190Y-115166666D01*
X137452380Y-114309523D02*
X138452380Y-113976190D01*
X137452380Y-113642857D01*
X137452380Y-113404761D02*
X137452380Y-112785714D01*
X137833333Y-113119047D01*
X137833333Y-112976190D01*
X137880952Y-112880952D01*
X137928571Y-112833333D01*
X138023809Y-112785714D01*
X138261904Y-112785714D01*
X138357142Y-112833333D01*
X138404761Y-112880952D01*
X138452380Y-112976190D01*
X138452380Y-113261904D01*
X138404761Y-113357142D01*
X138357142Y-113404761D01*
%TD*%
M02*
