%TF.GenerationSoftware,KiCad,Pcbnew,(5.1.10)-1*%
%TF.CreationDate,2022-05-06T17:00:31+02:00*%
%TF.ProjectId,LTE_HW,4c54455f-4857-42e6-9b69-6361645f7063,rev?*%
%TF.SameCoordinates,Original*%
%TF.FileFunction,Soldermask,Top*%
%TF.FilePolarity,Negative*%
%FSLAX46Y46*%
G04 Gerber Fmt 4.6, Leading zero omitted, Abs format (unit mm)*
G04 Created by KiCad (PCBNEW (5.1.10)-1) date 2022-05-06 17:00:31*
%MOMM*%
%LPD*%
G01*
G04 APERTURE LIST*
%TA.AperFunction,Profile*%
%ADD10C,0.050000*%
%TD*%
%ADD11O,1.700000X1.700000*%
%ADD12C,6.500000*%
%ADD13C,0.900000*%
%ADD14O,1.800000X2.050000*%
%ADD15C,2.100000*%
%ADD16C,1.900000*%
%ADD17C,4.100000*%
G04 APERTURE END LIST*
D10*
X150000000Y-145000000D02*
G75*
G02*
X145000000Y-150000000I-5000000J0D01*
G01*
X145000000Y-76000000D02*
G75*
G02*
X150000000Y-81000000I0J-5000000D01*
G01*
X105000000Y-81000000D02*
G75*
G02*
X110000000Y-76000000I5000000J0D01*
G01*
X110000000Y-150000000D02*
G75*
G02*
X105000000Y-145000000I0J5000000D01*
G01*
X145000000Y-76000000D02*
X110000000Y-76000000D01*
X150000000Y-145000000D02*
X150000000Y-81000000D01*
X110000000Y-150000000D02*
X145000000Y-150000000D01*
X105000000Y-81000000D02*
X105000000Y-145000000D01*
%TO.C,TP2*%
G36*
G01*
X113100000Y-113850000D02*
X113100000Y-112150000D01*
G75*
G02*
X113150000Y-112100000I50000J0D01*
G01*
X114850000Y-112100000D01*
G75*
G02*
X114900000Y-112150000I0J-50000D01*
G01*
X114900000Y-113850000D01*
G75*
G02*
X114850000Y-113900000I-50000J0D01*
G01*
X113150000Y-113900000D01*
G75*
G02*
X113100000Y-113850000I0J50000D01*
G01*
G37*
%TD*%
%TO.C,TP1*%
G36*
G01*
X119100000Y-113850000D02*
X119100000Y-112150000D01*
G75*
G02*
X119150000Y-112100000I50000J0D01*
G01*
X120850000Y-112100000D01*
G75*
G02*
X120900000Y-112150000I0J-50000D01*
G01*
X120900000Y-113850000D01*
G75*
G02*
X120850000Y-113900000I-50000J0D01*
G01*
X119150000Y-113900000D01*
G75*
G02*
X119100000Y-113850000I0J50000D01*
G01*
G37*
%TD*%
%TO.C,A1*%
G36*
G01*
X108150000Y-106800000D02*
X108150000Y-105200000D01*
G75*
G02*
X108200000Y-105150000I50000J0D01*
G01*
X109800000Y-105150000D01*
G75*
G02*
X109850000Y-105200000I0J-50000D01*
G01*
X109850000Y-106800000D01*
G75*
G02*
X109800000Y-106850000I-50000J0D01*
G01*
X108200000Y-106850000D01*
G75*
G02*
X108150000Y-106800000I0J50000D01*
G01*
G37*
D11*
X124240000Y-139020000D03*
X109000000Y-108540000D03*
X124240000Y-136480000D03*
X109000000Y-111080000D03*
X124240000Y-133940000D03*
X109000000Y-113620000D03*
X124240000Y-131400000D03*
X109000000Y-116160000D03*
X124240000Y-128860000D03*
X109000000Y-118700000D03*
X124240000Y-126320000D03*
X109000000Y-121240000D03*
X124240000Y-123780000D03*
X109000000Y-123780000D03*
X124240000Y-121240000D03*
X109000000Y-126320000D03*
X124240000Y-118700000D03*
X109000000Y-128860000D03*
X124240000Y-116160000D03*
X109000000Y-131400000D03*
X124240000Y-113620000D03*
X109000000Y-133940000D03*
X124240000Y-111080000D03*
X109000000Y-136480000D03*
X124240000Y-108540000D03*
X109000000Y-139020000D03*
X124240000Y-106000000D03*
X109000000Y-141560000D03*
X124240000Y-141560000D03*
%TD*%
D12*
%TO.C,H1*%
X120000000Y-85000000D03*
D13*
X122400000Y-85000000D03*
X121697056Y-86697056D03*
X120000000Y-87400000D03*
X118302944Y-86697056D03*
X117600000Y-85000000D03*
X118302944Y-83302944D03*
X120000000Y-82600000D03*
X121697056Y-83302944D03*
%TD*%
%TO.C,J1*%
G36*
G01*
X145900000Y-87239705D02*
X145900000Y-88760295D01*
G75*
G02*
X145635295Y-89025000I-264705J0D01*
G01*
X144364705Y-89025000D01*
G75*
G02*
X144100000Y-88760295I0J264705D01*
G01*
X144100000Y-87239705D01*
G75*
G02*
X144364705Y-86975000I264705J0D01*
G01*
X145635295Y-86975000D01*
G75*
G02*
X145900000Y-87239705I0J-264705D01*
G01*
G37*
D14*
X142500000Y-88000000D03*
X140000000Y-88000000D03*
%TD*%
%TO.C,R1*%
G36*
G01*
X124575000Y-92737500D02*
X124575000Y-93262500D01*
G75*
G02*
X124312500Y-93525000I-262500J0D01*
G01*
X123687500Y-93525000D01*
G75*
G02*
X123425000Y-93262500I0J262500D01*
G01*
X123425000Y-92737500D01*
G75*
G02*
X123687500Y-92475000I262500J0D01*
G01*
X124312500Y-92475000D01*
G75*
G02*
X124575000Y-92737500I0J-262500D01*
G01*
G37*
G36*
G01*
X122825000Y-92737500D02*
X122825000Y-93262500D01*
G75*
G02*
X122562500Y-93525000I-262500J0D01*
G01*
X121937500Y-93525000D01*
G75*
G02*
X121675000Y-93262500I0J262500D01*
G01*
X121675000Y-92737500D01*
G75*
G02*
X121937500Y-92475000I262500J0D01*
G01*
X122562500Y-92475000D01*
G75*
G02*
X122825000Y-92737500I0J-262500D01*
G01*
G37*
%TD*%
%TO.C,SW1*%
G36*
G01*
X146100000Y-102250000D02*
X146100000Y-100750000D01*
G75*
G02*
X146150000Y-100700000I50000J0D01*
G01*
X148150000Y-100700000D01*
G75*
G02*
X148200000Y-100750000I0J-50000D01*
G01*
X148200000Y-102250000D01*
G75*
G02*
X148150000Y-102300000I-50000J0D01*
G01*
X146150000Y-102300000D01*
G75*
G02*
X146100000Y-102250000I0J50000D01*
G01*
G37*
G36*
G01*
X131800000Y-102250000D02*
X131800000Y-100750000D01*
G75*
G02*
X131850000Y-100700000I50000J0D01*
G01*
X133850000Y-100700000D01*
G75*
G02*
X133900000Y-100750000I0J-50000D01*
G01*
X133900000Y-102250000D01*
G75*
G02*
X133850000Y-102300000I-50000J0D01*
G01*
X131850000Y-102300000D01*
G75*
G02*
X131800000Y-102250000I0J50000D01*
G01*
G37*
G36*
G01*
X131800000Y-97250000D02*
X131800000Y-95750000D01*
G75*
G02*
X131850000Y-95700000I50000J0D01*
G01*
X133850000Y-95700000D01*
G75*
G02*
X133900000Y-95750000I0J-50000D01*
G01*
X133900000Y-97250000D01*
G75*
G02*
X133850000Y-97300000I-50000J0D01*
G01*
X131850000Y-97300000D01*
G75*
G02*
X131800000Y-97250000I0J50000D01*
G01*
G37*
G36*
G01*
X146100000Y-97250000D02*
X146100000Y-95750000D01*
G75*
G02*
X146150000Y-95700000I50000J0D01*
G01*
X148150000Y-95700000D01*
G75*
G02*
X148200000Y-95750000I0J-50000D01*
G01*
X148200000Y-97250000D01*
G75*
G02*
X148150000Y-97300000I-50000J0D01*
G01*
X146150000Y-97300000D01*
G75*
G02*
X146100000Y-97250000I0J50000D01*
G01*
G37*
D15*
X140000000Y-103500000D03*
X140000000Y-94500000D03*
%TD*%
D16*
%TO.C,RV1*%
X135000000Y-139000000D03*
X135000000Y-141500000D03*
X135000000Y-144000000D03*
D17*
X142000000Y-137100000D03*
X142000000Y-145900000D03*
%TD*%
%TO.C,RV2*%
X142000000Y-131900000D03*
X142000000Y-123100000D03*
D16*
X135000000Y-130000000D03*
X135000000Y-127500000D03*
X135000000Y-125000000D03*
%TD*%
%TO.C,RV3*%
X135000000Y-111000000D03*
X135000000Y-113500000D03*
X135000000Y-116000000D03*
D17*
X142000000Y-109100000D03*
X142000000Y-117900000D03*
%TD*%
M02*
