M48
; DRILL file {KiCad (5.1.10)-1} date 05/06/22 17:00:35
; FORMAT={-:-/ absolute / inch / decimal}
; #@! TF.CreationDate,2022-05-06T17:00:35+02:00
; #@! TF.GenerationSoftware,Kicad,Pcbnew,(5.1.10)-1
; #@! TF.FileFunction,Plated,1,2,PTH
FMAT,2
INCH
T1C0.0197
T2C0.0236
T3C0.0374
T4C0.0394
T5C0.1260
%
G90
G05
T1
X4.6299Y-3.3465
X4.6576Y-3.2796
X4.6576Y-3.4133
X4.7244Y-3.252
X4.7244Y-3.4409
X4.7912Y-3.2796
X4.7912Y-3.4133
X4.8189Y-3.3465
T2
X4.7244Y-3.9764
X5.1181Y-3.8189
T3
X5.5118Y-3.4646
X5.6102Y-3.4646
X5.7087Y-3.4646
T4
X4.2913Y-4.1732
X4.2913Y-4.2732
X4.2913Y-4.3732
X4.2913Y-4.4732
X4.2913Y-4.5732
X4.2913Y-4.6732
X4.2913Y-4.7732
X4.2913Y-4.8732
X4.2913Y-4.9732
X4.2913Y-5.0732
X4.2913Y-5.1732
X4.2913Y-5.2732
X4.2913Y-5.3732
X4.2913Y-5.4732
X4.2913Y-5.5732
X4.4882Y-4.4488
X4.7244Y-4.4488
X4.8913Y-4.1732
X4.8913Y-4.2732
X4.8913Y-4.3732
X4.8913Y-4.4732
X4.8913Y-4.5732
X4.8913Y-4.6732
X4.8913Y-4.7732
X4.8913Y-4.8732
X4.8913Y-4.9732
X4.8913Y-5.0732
X4.8913Y-5.1732
X4.8913Y-5.2732
X4.8913Y-5.3732
X4.8913Y-5.4732
X4.8913Y-5.5732
X5.315Y-4.3701
X5.315Y-4.4685
X5.315Y-4.5669
X5.315Y-4.9213
X5.315Y-5.0197
X5.315Y-5.1181
X5.315Y-5.4724
X5.315Y-5.5709
X5.315Y-5.6693
T5
X4.7244Y-3.3465
T0
M30
