%TF.GenerationSoftware,KiCad,Pcbnew,(5.1.10)-1*%
%TF.CreationDate,2022-05-06T17:00:31+02:00*%
%TF.ProjectId,LTE_HW,4c54455f-4857-42e6-9b69-6361645f7063,rev?*%
%TF.SameCoordinates,Original*%
%TF.FileFunction,Other,Fab,Top*%
%FSLAX46Y46*%
G04 Gerber Fmt 4.6, Leading zero omitted, Abs format (unit mm)*
G04 Created by KiCad (PCBNEW (5.1.10)-1) date 2022-05-06 17:00:31*
%MOMM*%
%LPD*%
G01*
G04 APERTURE LIST*
%TA.AperFunction,Profile*%
%ADD10C,0.050000*%
%TD*%
%ADD11C,0.100000*%
%ADD12C,0.150000*%
%ADD13C,0.060000*%
G04 APERTURE END LIST*
D10*
X150000000Y-145000000D02*
G75*
G02*
X145000000Y-150000000I-5000000J0D01*
G01*
X145000000Y-76000000D02*
G75*
G02*
X150000000Y-81000000I0J-5000000D01*
G01*
X105000000Y-81000000D02*
G75*
G02*
X110000000Y-76000000I5000000J0D01*
G01*
X110000000Y-150000000D02*
G75*
G02*
X105000000Y-145000000I0J5000000D01*
G01*
X145000000Y-76000000D02*
X110000000Y-76000000D01*
X150000000Y-145000000D02*
X150000000Y-81000000D01*
X110000000Y-150000000D02*
X145000000Y-150000000D01*
X105000000Y-81000000D02*
X105000000Y-145000000D01*
D11*
%TO.C,A1*%
X125510000Y-102190000D02*
X125510000Y-145370000D01*
X109000000Y-102190000D02*
X125510000Y-102190000D01*
X107730000Y-103460000D02*
X109000000Y-102190000D01*
X107730000Y-145370000D02*
X107730000Y-103460000D01*
X125510000Y-145370000D02*
X107730000Y-145370000D01*
X112810000Y-147910000D02*
X112810000Y-137750000D01*
X120430000Y-147910000D02*
X112810000Y-147910000D01*
X120430000Y-137750000D02*
X120430000Y-147910000D01*
X112810000Y-137750000D02*
X120430000Y-137750000D01*
%TO.C,J1*%
X145000000Y-86800000D02*
X144375000Y-85800000D01*
X145625000Y-85800000D02*
X145000000Y-86800000D01*
X138750000Y-85800000D02*
X142500000Y-85800000D01*
X138750000Y-90300000D02*
X138750000Y-85800000D01*
X137550000Y-90300000D02*
X138750000Y-90300000D01*
X137550000Y-78800000D02*
X137550000Y-90300000D01*
X142500000Y-78800000D02*
X137550000Y-78800000D01*
X146250000Y-85800000D02*
X142500000Y-85800000D01*
X146250000Y-90300000D02*
X146250000Y-85800000D01*
X147450000Y-90300000D02*
X146250000Y-90300000D01*
X147450000Y-78800000D02*
X147450000Y-90300000D01*
X142500000Y-78800000D02*
X147450000Y-78800000D01*
%TO.C,R1*%
X122325000Y-92600000D02*
X123925000Y-92600000D01*
X122325000Y-93400000D02*
X122325000Y-92600000D01*
X123925000Y-93400000D02*
X122325000Y-93400000D01*
X123925000Y-92600000D02*
X123925000Y-93400000D01*
%TO.C,SW1*%
X134000000Y-94500000D02*
X134000000Y-103500000D01*
X135500000Y-105000000D02*
X144500000Y-105000000D01*
X146000000Y-103500000D02*
X146000000Y-94500000D01*
X144500000Y-93000000D02*
X135500000Y-93000000D01*
X143500000Y-99000000D02*
G75*
G03*
X143500000Y-99000000I-3500000J0D01*
G01*
X134000000Y-94500000D02*
X135500000Y-93000000D01*
X144500000Y-93000000D02*
X146000000Y-94500000D01*
X146000000Y-103500000D02*
X144500000Y-105000000D01*
X135500000Y-105000000D02*
X134000000Y-103500000D01*
%TO.C,RV1*%
X145500000Y-141500000D02*
G75*
G03*
X145500000Y-141500000I-3000000J0D01*
G01*
X136000000Y-136600000D02*
X136000000Y-146400000D01*
X136000000Y-146400000D02*
X148000000Y-146400000D01*
X148000000Y-146400000D02*
X148000000Y-136600000D01*
X148000000Y-136600000D02*
X136000000Y-136600000D01*
%TO.C,RV2*%
X148000000Y-122600000D02*
X136000000Y-122600000D01*
X148000000Y-132400000D02*
X148000000Y-122600000D01*
X136000000Y-132400000D02*
X148000000Y-132400000D01*
X136000000Y-122600000D02*
X136000000Y-132400000D01*
X145500000Y-127500000D02*
G75*
G03*
X145500000Y-127500000I-3000000J0D01*
G01*
%TO.C,RV3*%
X145500000Y-113500000D02*
G75*
G03*
X145500000Y-113500000I-3000000J0D01*
G01*
X136000000Y-108600000D02*
X136000000Y-118400000D01*
X136000000Y-118400000D02*
X148000000Y-118400000D01*
X148000000Y-118400000D02*
X148000000Y-108600000D01*
X148000000Y-108600000D02*
X136000000Y-108600000D01*
%TD*%
%TO.C,A1*%
D12*
X118056666Y-131788095D02*
X118056666Y-131311904D01*
X118342380Y-131883333D02*
X117342380Y-131550000D01*
X118342380Y-131216666D01*
X118342380Y-130883333D02*
X117675714Y-130883333D01*
X117866190Y-130883333D02*
X117770952Y-130835714D01*
X117723333Y-130788095D01*
X117675714Y-130692857D01*
X117675714Y-130597619D01*
X118342380Y-129835714D02*
X117342380Y-129835714D01*
X118294761Y-129835714D02*
X118342380Y-129930952D01*
X118342380Y-130121428D01*
X118294761Y-130216666D01*
X118247142Y-130264285D01*
X118151904Y-130311904D01*
X117866190Y-130311904D01*
X117770952Y-130264285D01*
X117723333Y-130216666D01*
X117675714Y-130121428D01*
X117675714Y-129930952D01*
X117723333Y-129835714D01*
X117675714Y-128930952D02*
X118342380Y-128930952D01*
X117675714Y-129359523D02*
X118199523Y-129359523D01*
X118294761Y-129311904D01*
X118342380Y-129216666D01*
X118342380Y-129073809D01*
X118294761Y-128978571D01*
X118247142Y-128930952D01*
X118342380Y-128454761D02*
X117675714Y-128454761D01*
X117342380Y-128454761D02*
X117390000Y-128502380D01*
X117437619Y-128454761D01*
X117390000Y-128407142D01*
X117342380Y-128454761D01*
X117437619Y-128454761D01*
X117675714Y-127978571D02*
X118342380Y-127978571D01*
X117770952Y-127978571D02*
X117723333Y-127930952D01*
X117675714Y-127835714D01*
X117675714Y-127692857D01*
X117723333Y-127597619D01*
X117818571Y-127550000D01*
X118342380Y-127550000D01*
X118342380Y-126930952D02*
X118294761Y-127026190D01*
X118247142Y-127073809D01*
X118151904Y-127121428D01*
X117866190Y-127121428D01*
X117770952Y-127073809D01*
X117723333Y-127026190D01*
X117675714Y-126930952D01*
X117675714Y-126788095D01*
X117723333Y-126692857D01*
X117770952Y-126645238D01*
X117866190Y-126597619D01*
X118151904Y-126597619D01*
X118247142Y-126645238D01*
X118294761Y-126692857D01*
X118342380Y-126788095D01*
X118342380Y-126930952D01*
X118437619Y-126407142D02*
X118437619Y-125645238D01*
X118342380Y-125407142D02*
X117342380Y-125407142D01*
X118342380Y-124835714D01*
X117342380Y-124835714D01*
X118342380Y-123930952D02*
X117818571Y-123930952D01*
X117723333Y-123978571D01*
X117675714Y-124073809D01*
X117675714Y-124264285D01*
X117723333Y-124359523D01*
X118294761Y-123930952D02*
X118342380Y-124026190D01*
X118342380Y-124264285D01*
X118294761Y-124359523D01*
X118199523Y-124407142D01*
X118104285Y-124407142D01*
X118009047Y-124359523D01*
X117961428Y-124264285D01*
X117961428Y-124026190D01*
X117913809Y-123930952D01*
X117675714Y-123454761D02*
X118342380Y-123454761D01*
X117770952Y-123454761D02*
X117723333Y-123407142D01*
X117675714Y-123311904D01*
X117675714Y-123169047D01*
X117723333Y-123073809D01*
X117818571Y-123026190D01*
X118342380Y-123026190D01*
X118342380Y-122407142D02*
X118294761Y-122502380D01*
X118247142Y-122550000D01*
X118151904Y-122597619D01*
X117866190Y-122597619D01*
X117770952Y-122550000D01*
X117723333Y-122502380D01*
X117675714Y-122407142D01*
X117675714Y-122264285D01*
X117723333Y-122169047D01*
X117770952Y-122121428D01*
X117866190Y-122073809D01*
X118151904Y-122073809D01*
X118247142Y-122121428D01*
X118294761Y-122169047D01*
X118342380Y-122264285D01*
X118342380Y-122407142D01*
X118437619Y-121883333D02*
X118437619Y-121121428D01*
X117675714Y-120978571D02*
X118342380Y-120740476D01*
X117675714Y-120502380D01*
X117342380Y-120216666D02*
X117342380Y-119597619D01*
X117723333Y-119930952D01*
X117723333Y-119788095D01*
X117770952Y-119692857D01*
X117818571Y-119645238D01*
X117913809Y-119597619D01*
X118151904Y-119597619D01*
X118247142Y-119645238D01*
X118294761Y-119692857D01*
X118342380Y-119788095D01*
X118342380Y-120073809D01*
X118294761Y-120169047D01*
X118247142Y-120216666D01*
X118247142Y-119169047D02*
X118294761Y-119121428D01*
X118342380Y-119169047D01*
X118294761Y-119216666D01*
X118247142Y-119169047D01*
X118342380Y-119169047D01*
X118342380Y-118788095D02*
X117675714Y-118264285D01*
X117675714Y-118788095D02*
X118342380Y-118264285D01*
X115516666Y-125764285D02*
X115516666Y-125288095D01*
X115802380Y-125859523D02*
X114802380Y-125526190D01*
X115802380Y-125192857D01*
X115802380Y-124335714D02*
X115802380Y-124907142D01*
X115802380Y-124621428D02*
X114802380Y-124621428D01*
X114945238Y-124716666D01*
X115040476Y-124811904D01*
X115088095Y-124907142D01*
%TO.C,H1*%
X113428571Y-89652380D02*
X113428571Y-88652380D01*
X113761904Y-89366666D01*
X114095238Y-88652380D01*
X114095238Y-89652380D01*
X114714285Y-89652380D02*
X114619047Y-89604761D01*
X114571428Y-89557142D01*
X114523809Y-89461904D01*
X114523809Y-89176190D01*
X114571428Y-89080952D01*
X114619047Y-89033333D01*
X114714285Y-88985714D01*
X114857142Y-88985714D01*
X114952380Y-89033333D01*
X115000000Y-89080952D01*
X115047619Y-89176190D01*
X115047619Y-89461904D01*
X115000000Y-89557142D01*
X114952380Y-89604761D01*
X114857142Y-89652380D01*
X114714285Y-89652380D01*
X115904761Y-88985714D02*
X115904761Y-89652380D01*
X115476190Y-88985714D02*
X115476190Y-89509523D01*
X115523809Y-89604761D01*
X115619047Y-89652380D01*
X115761904Y-89652380D01*
X115857142Y-89604761D01*
X115904761Y-89557142D01*
X116380952Y-88985714D02*
X116380952Y-89652380D01*
X116380952Y-89080952D02*
X116428571Y-89033333D01*
X116523809Y-88985714D01*
X116666666Y-88985714D01*
X116761904Y-89033333D01*
X116809523Y-89128571D01*
X116809523Y-89652380D01*
X117142857Y-88985714D02*
X117523809Y-88985714D01*
X117285714Y-88652380D02*
X117285714Y-89509523D01*
X117333333Y-89604761D01*
X117428571Y-89652380D01*
X117523809Y-89652380D01*
X117857142Y-89652380D02*
X117857142Y-88985714D01*
X117857142Y-88652380D02*
X117809523Y-88700000D01*
X117857142Y-88747619D01*
X117904761Y-88700000D01*
X117857142Y-88652380D01*
X117857142Y-88747619D01*
X118333333Y-88985714D02*
X118333333Y-89652380D01*
X118333333Y-89080952D02*
X118380952Y-89033333D01*
X118476190Y-88985714D01*
X118619047Y-88985714D01*
X118714285Y-89033333D01*
X118761904Y-89128571D01*
X118761904Y-89652380D01*
X119666666Y-88985714D02*
X119666666Y-89795238D01*
X119619047Y-89890476D01*
X119571428Y-89938095D01*
X119476190Y-89985714D01*
X119333333Y-89985714D01*
X119238095Y-89938095D01*
X119666666Y-89604761D02*
X119571428Y-89652380D01*
X119380952Y-89652380D01*
X119285714Y-89604761D01*
X119238095Y-89557142D01*
X119190476Y-89461904D01*
X119190476Y-89176190D01*
X119238095Y-89080952D01*
X119285714Y-89033333D01*
X119380952Y-88985714D01*
X119571428Y-88985714D01*
X119666666Y-89033333D01*
X120142857Y-89652380D02*
X120142857Y-88652380D01*
X120142857Y-89128571D02*
X120714285Y-89128571D01*
X120714285Y-89652380D02*
X120714285Y-88652380D01*
X121333333Y-89652380D02*
X121238095Y-89604761D01*
X121190476Y-89557142D01*
X121142857Y-89461904D01*
X121142857Y-89176190D01*
X121190476Y-89080952D01*
X121238095Y-89033333D01*
X121333333Y-88985714D01*
X121476190Y-88985714D01*
X121571428Y-89033333D01*
X121619047Y-89080952D01*
X121666666Y-89176190D01*
X121666666Y-89461904D01*
X121619047Y-89557142D01*
X121571428Y-89604761D01*
X121476190Y-89652380D01*
X121333333Y-89652380D01*
X122238095Y-89652380D02*
X122142857Y-89604761D01*
X122095238Y-89509523D01*
X122095238Y-88652380D01*
X123000000Y-89604761D02*
X122904761Y-89652380D01*
X122714285Y-89652380D01*
X122619047Y-89604761D01*
X122571428Y-89509523D01*
X122571428Y-89128571D01*
X122619047Y-89033333D01*
X122714285Y-88985714D01*
X122904761Y-88985714D01*
X123000000Y-89033333D01*
X123047619Y-89128571D01*
X123047619Y-89223809D01*
X122571428Y-89319047D01*
X123238095Y-89747619D02*
X124000000Y-89747619D01*
X124238095Y-89652380D02*
X124238095Y-88652380D01*
X124619047Y-88652380D01*
X124714285Y-88700000D01*
X124761904Y-88747619D01*
X124809523Y-88842857D01*
X124809523Y-88985714D01*
X124761904Y-89080952D01*
X124714285Y-89128571D01*
X124619047Y-89176190D01*
X124238095Y-89176190D01*
X125666666Y-89652380D02*
X125666666Y-89128571D01*
X125619047Y-89033333D01*
X125523809Y-88985714D01*
X125333333Y-88985714D01*
X125238095Y-89033333D01*
X125666666Y-89604761D02*
X125571428Y-89652380D01*
X125333333Y-89652380D01*
X125238095Y-89604761D01*
X125190476Y-89509523D01*
X125190476Y-89414285D01*
X125238095Y-89319047D01*
X125333333Y-89271428D01*
X125571428Y-89271428D01*
X125666666Y-89223809D01*
X126571428Y-89652380D02*
X126571428Y-88652380D01*
X126571428Y-89604761D02*
X126476190Y-89652380D01*
X126285714Y-89652380D01*
X126190476Y-89604761D01*
X126142857Y-89557142D01*
X126095238Y-89461904D01*
X126095238Y-89176190D01*
X126142857Y-89080952D01*
X126190476Y-89033333D01*
X126285714Y-88985714D01*
X126476190Y-88985714D01*
X126571428Y-89033333D01*
X119538095Y-85452380D02*
X119538095Y-84452380D01*
X119538095Y-84928571D02*
X120109523Y-84928571D01*
X120109523Y-85452380D02*
X120109523Y-84452380D01*
X121109523Y-85452380D02*
X120538095Y-85452380D01*
X120823809Y-85452380D02*
X120823809Y-84452380D01*
X120728571Y-84595238D01*
X120633333Y-84690476D01*
X120538095Y-84738095D01*
%TO.C,J1*%
X138761904Y-77957142D02*
X138714285Y-78004761D01*
X138571428Y-78052380D01*
X138476190Y-78052380D01*
X138333333Y-78004761D01*
X138238095Y-77909523D01*
X138190476Y-77814285D01*
X138142857Y-77623809D01*
X138142857Y-77480952D01*
X138190476Y-77290476D01*
X138238095Y-77195238D01*
X138333333Y-77100000D01*
X138476190Y-77052380D01*
X138571428Y-77052380D01*
X138714285Y-77100000D01*
X138761904Y-77147619D01*
X139333333Y-78052380D02*
X139238095Y-78004761D01*
X139190476Y-77957142D01*
X139142857Y-77861904D01*
X139142857Y-77576190D01*
X139190476Y-77480952D01*
X139238095Y-77433333D01*
X139333333Y-77385714D01*
X139476190Y-77385714D01*
X139571428Y-77433333D01*
X139619047Y-77480952D01*
X139666666Y-77576190D01*
X139666666Y-77861904D01*
X139619047Y-77957142D01*
X139571428Y-78004761D01*
X139476190Y-78052380D01*
X139333333Y-78052380D01*
X140095238Y-77385714D02*
X140095238Y-78052380D01*
X140095238Y-77480952D02*
X140142857Y-77433333D01*
X140238095Y-77385714D01*
X140380952Y-77385714D01*
X140476190Y-77433333D01*
X140523809Y-77528571D01*
X140523809Y-78052380D01*
X141000000Y-77385714D02*
X141000000Y-78052380D01*
X141000000Y-77480952D02*
X141047619Y-77433333D01*
X141142857Y-77385714D01*
X141285714Y-77385714D01*
X141380952Y-77433333D01*
X141428571Y-77528571D01*
X141428571Y-78052380D01*
X141666666Y-78147619D02*
X142428571Y-78147619D01*
X142857142Y-77052380D02*
X142952380Y-77052380D01*
X143047619Y-77100000D01*
X143095238Y-77147619D01*
X143142857Y-77242857D01*
X143190476Y-77433333D01*
X143190476Y-77671428D01*
X143142857Y-77861904D01*
X143095238Y-77957142D01*
X143047619Y-78004761D01*
X142952380Y-78052380D01*
X142857142Y-78052380D01*
X142761904Y-78004761D01*
X142714285Y-77957142D01*
X142666666Y-77861904D01*
X142619047Y-77671428D01*
X142619047Y-77433333D01*
X142666666Y-77242857D01*
X142714285Y-77147619D01*
X142761904Y-77100000D01*
X142857142Y-77052380D01*
X144142857Y-78052380D02*
X143571428Y-78052380D01*
X143857142Y-78052380D02*
X143857142Y-77052380D01*
X143761904Y-77195238D01*
X143666666Y-77290476D01*
X143571428Y-77338095D01*
X144476190Y-78052380D02*
X145000000Y-77385714D01*
X144476190Y-77385714D02*
X145000000Y-78052380D01*
X145571428Y-77052380D02*
X145666666Y-77052380D01*
X145761904Y-77100000D01*
X145809523Y-77147619D01*
X145857142Y-77242857D01*
X145904761Y-77433333D01*
X145904761Y-77671428D01*
X145857142Y-77861904D01*
X145809523Y-77957142D01*
X145761904Y-78004761D01*
X145666666Y-78052380D01*
X145571428Y-78052380D01*
X145476190Y-78004761D01*
X145428571Y-77957142D01*
X145380952Y-77861904D01*
X145333333Y-77671428D01*
X145333333Y-77433333D01*
X145380952Y-77242857D01*
X145428571Y-77147619D01*
X145476190Y-77100000D01*
X145571428Y-77052380D01*
X146238095Y-77052380D02*
X146857142Y-77052380D01*
X146523809Y-77433333D01*
X146666666Y-77433333D01*
X146761904Y-77480952D01*
X146809523Y-77528571D01*
X146857142Y-77623809D01*
X146857142Y-77861904D01*
X146809523Y-77957142D01*
X146761904Y-78004761D01*
X146666666Y-78052380D01*
X146380952Y-78052380D01*
X146285714Y-78004761D01*
X146238095Y-77957142D01*
X142166666Y-84002380D02*
X142166666Y-84716666D01*
X142119047Y-84859523D01*
X142023809Y-84954761D01*
X141880952Y-85002380D01*
X141785714Y-85002380D01*
X143166666Y-85002380D02*
X142595238Y-85002380D01*
X142880952Y-85002380D02*
X142880952Y-84002380D01*
X142785714Y-84145238D01*
X142690476Y-84240476D01*
X142595238Y-84288095D01*
%TO.C,R1*%
X121863095Y-91355714D02*
X121863095Y-92022380D01*
X121625000Y-90974761D02*
X121386904Y-91689047D01*
X122005952Y-91689047D01*
X122291666Y-91022380D02*
X122958333Y-91022380D01*
X122529761Y-92022380D01*
X123529761Y-91022380D02*
X123625000Y-91022380D01*
X123720238Y-91070000D01*
X123767857Y-91117619D01*
X123815476Y-91212857D01*
X123863095Y-91403333D01*
X123863095Y-91641428D01*
X123815476Y-91831904D01*
X123767857Y-91927142D01*
X123720238Y-91974761D01*
X123625000Y-92022380D01*
X123529761Y-92022380D01*
X123434523Y-91974761D01*
X123386904Y-91927142D01*
X123339285Y-91831904D01*
X123291666Y-91641428D01*
X123291666Y-91403333D01*
X123339285Y-91212857D01*
X123386904Y-91117619D01*
X123434523Y-91070000D01*
X123529761Y-91022380D01*
X124863095Y-92022380D02*
X124529761Y-91546190D01*
X124291666Y-92022380D02*
X124291666Y-91022380D01*
X124672619Y-91022380D01*
X124767857Y-91070000D01*
X124815476Y-91117619D01*
X124863095Y-91212857D01*
X124863095Y-91355714D01*
X124815476Y-91450952D01*
X124767857Y-91498571D01*
X124672619Y-91546190D01*
X124291666Y-91546190D01*
D13*
X123058333Y-93180952D02*
X122925000Y-92990476D01*
X122829761Y-93180952D02*
X122829761Y-92780952D01*
X122982142Y-92780952D01*
X123020238Y-92800000D01*
X123039285Y-92819047D01*
X123058333Y-92857142D01*
X123058333Y-92914285D01*
X123039285Y-92952380D01*
X123020238Y-92971428D01*
X122982142Y-92990476D01*
X122829761Y-92990476D01*
X123439285Y-93180952D02*
X123210714Y-93180952D01*
X123325000Y-93180952D02*
X123325000Y-92780952D01*
X123286904Y-92838095D01*
X123248809Y-92876190D01*
X123210714Y-92895238D01*
%TO.C,SW1*%
D12*
X136952380Y-106504761D02*
X137095238Y-106552380D01*
X137333333Y-106552380D01*
X137428571Y-106504761D01*
X137476190Y-106457142D01*
X137523809Y-106361904D01*
X137523809Y-106266666D01*
X137476190Y-106171428D01*
X137428571Y-106123809D01*
X137333333Y-106076190D01*
X137142857Y-106028571D01*
X137047619Y-105980952D01*
X137000000Y-105933333D01*
X136952380Y-105838095D01*
X136952380Y-105742857D01*
X137000000Y-105647619D01*
X137047619Y-105600000D01*
X137142857Y-105552380D01*
X137380952Y-105552380D01*
X137523809Y-105600000D01*
X137857142Y-105552380D02*
X138095238Y-106552380D01*
X138285714Y-105838095D01*
X138476190Y-106552380D01*
X138714285Y-105552380D01*
X138857142Y-106647619D02*
X139619047Y-106647619D01*
X139857142Y-106552380D02*
X139857142Y-105552380D01*
X140238095Y-105552380D01*
X140333333Y-105600000D01*
X140380952Y-105647619D01*
X140428571Y-105742857D01*
X140428571Y-105885714D01*
X140380952Y-105980952D01*
X140333333Y-106028571D01*
X140238095Y-106076190D01*
X139857142Y-106076190D01*
X141285714Y-105885714D02*
X141285714Y-106552380D01*
X140857142Y-105885714D02*
X140857142Y-106409523D01*
X140904761Y-106504761D01*
X141000000Y-106552380D01*
X141142857Y-106552380D01*
X141238095Y-106504761D01*
X141285714Y-106457142D01*
X141714285Y-106504761D02*
X141809523Y-106552380D01*
X142000000Y-106552380D01*
X142095238Y-106504761D01*
X142142857Y-106409523D01*
X142142857Y-106361904D01*
X142095238Y-106266666D01*
X142000000Y-106219047D01*
X141857142Y-106219047D01*
X141761904Y-106171428D01*
X141714285Y-106076190D01*
X141714285Y-106028571D01*
X141761904Y-105933333D01*
X141857142Y-105885714D01*
X142000000Y-105885714D01*
X142095238Y-105933333D01*
X142571428Y-106552380D02*
X142571428Y-105552380D01*
X143000000Y-106552380D02*
X143000000Y-106028571D01*
X142952380Y-105933333D01*
X142857142Y-105885714D01*
X142714285Y-105885714D01*
X142619047Y-105933333D01*
X142571428Y-105980952D01*
X138666666Y-99404761D02*
X138809523Y-99452380D01*
X139047619Y-99452380D01*
X139142857Y-99404761D01*
X139190476Y-99357142D01*
X139238095Y-99261904D01*
X139238095Y-99166666D01*
X139190476Y-99071428D01*
X139142857Y-99023809D01*
X139047619Y-98976190D01*
X138857142Y-98928571D01*
X138761904Y-98880952D01*
X138714285Y-98833333D01*
X138666666Y-98738095D01*
X138666666Y-98642857D01*
X138714285Y-98547619D01*
X138761904Y-98500000D01*
X138857142Y-98452380D01*
X139095238Y-98452380D01*
X139238095Y-98500000D01*
X139571428Y-98452380D02*
X139809523Y-99452380D01*
X140000000Y-98738095D01*
X140190476Y-99452380D01*
X140428571Y-98452380D01*
X141333333Y-99452380D02*
X140761904Y-99452380D01*
X141047619Y-99452380D02*
X141047619Y-98452380D01*
X140952380Y-98595238D01*
X140857142Y-98690476D01*
X140761904Y-98738095D01*
%TO.C,RV1*%
X137073809Y-149602380D02*
X136740476Y-149126190D01*
X136502380Y-149602380D02*
X136502380Y-148602380D01*
X136883333Y-148602380D01*
X136978571Y-148650000D01*
X137026190Y-148697619D01*
X137073809Y-148792857D01*
X137073809Y-148935714D01*
X137026190Y-149030952D01*
X136978571Y-149078571D01*
X136883333Y-149126190D01*
X136502380Y-149126190D01*
X137264285Y-149697619D02*
X138026190Y-149697619D01*
X138264285Y-149602380D02*
X138264285Y-148602380D01*
X138645238Y-148602380D01*
X138740476Y-148650000D01*
X138788095Y-148697619D01*
X138835714Y-148792857D01*
X138835714Y-148935714D01*
X138788095Y-149030952D01*
X138740476Y-149078571D01*
X138645238Y-149126190D01*
X138264285Y-149126190D01*
X139454761Y-148602380D02*
X139645238Y-148602380D01*
X139740476Y-148650000D01*
X139835714Y-148745238D01*
X139883333Y-148935714D01*
X139883333Y-149269047D01*
X139835714Y-149459523D01*
X139740476Y-149554761D01*
X139645238Y-149602380D01*
X139454761Y-149602380D01*
X139359523Y-149554761D01*
X139264285Y-149459523D01*
X139216666Y-149269047D01*
X139216666Y-148935714D01*
X139264285Y-148745238D01*
X139359523Y-148650000D01*
X139454761Y-148602380D01*
X140169047Y-148602380D02*
X140740476Y-148602380D01*
X140454761Y-149602380D02*
X140454761Y-148602380D01*
X140835714Y-149697619D02*
X141597619Y-149697619D01*
X141788095Y-149554761D02*
X141930952Y-149602380D01*
X142169047Y-149602380D01*
X142264285Y-149554761D01*
X142311904Y-149507142D01*
X142359523Y-149411904D01*
X142359523Y-149316666D01*
X142311904Y-149221428D01*
X142264285Y-149173809D01*
X142169047Y-149126190D01*
X141978571Y-149078571D01*
X141883333Y-149030952D01*
X141835714Y-148983333D01*
X141788095Y-148888095D01*
X141788095Y-148792857D01*
X141835714Y-148697619D01*
X141883333Y-148650000D01*
X141978571Y-148602380D01*
X142216666Y-148602380D01*
X142359523Y-148650000D01*
X142788095Y-149602380D02*
X142788095Y-148935714D01*
X142788095Y-149030952D02*
X142835714Y-148983333D01*
X142930952Y-148935714D01*
X143073809Y-148935714D01*
X143169047Y-148983333D01*
X143216666Y-149078571D01*
X143216666Y-149602380D01*
X143216666Y-149078571D02*
X143264285Y-148983333D01*
X143359523Y-148935714D01*
X143502380Y-148935714D01*
X143597619Y-148983333D01*
X143645238Y-149078571D01*
X143645238Y-149602380D01*
X144550000Y-149602380D02*
X144550000Y-149078571D01*
X144502380Y-148983333D01*
X144407142Y-148935714D01*
X144216666Y-148935714D01*
X144121428Y-148983333D01*
X144550000Y-149554761D02*
X144454761Y-149602380D01*
X144216666Y-149602380D01*
X144121428Y-149554761D01*
X144073809Y-149459523D01*
X144073809Y-149364285D01*
X144121428Y-149269047D01*
X144216666Y-149221428D01*
X144454761Y-149221428D01*
X144550000Y-149173809D01*
X145169047Y-149602380D02*
X145073809Y-149554761D01*
X145026190Y-149459523D01*
X145026190Y-148602380D01*
X145692857Y-149602380D02*
X145597619Y-149554761D01*
X145550000Y-149459523D01*
X145550000Y-148602380D01*
X137452380Y-142095238D02*
X136976190Y-142428571D01*
X137452380Y-142666666D02*
X136452380Y-142666666D01*
X136452380Y-142285714D01*
X136500000Y-142190476D01*
X136547619Y-142142857D01*
X136642857Y-142095238D01*
X136785714Y-142095238D01*
X136880952Y-142142857D01*
X136928571Y-142190476D01*
X136976190Y-142285714D01*
X136976190Y-142666666D01*
X136452380Y-141809523D02*
X137452380Y-141476190D01*
X136452380Y-141142857D01*
X137452380Y-140285714D02*
X137452380Y-140857142D01*
X137452380Y-140571428D02*
X136452380Y-140571428D01*
X136595238Y-140666666D01*
X136690476Y-140761904D01*
X136738095Y-140857142D01*
%TO.C,RV2*%
X137073809Y-135602380D02*
X136740476Y-135126190D01*
X136502380Y-135602380D02*
X136502380Y-134602380D01*
X136883333Y-134602380D01*
X136978571Y-134650000D01*
X137026190Y-134697619D01*
X137073809Y-134792857D01*
X137073809Y-134935714D01*
X137026190Y-135030952D01*
X136978571Y-135078571D01*
X136883333Y-135126190D01*
X136502380Y-135126190D01*
X137264285Y-135697619D02*
X138026190Y-135697619D01*
X138264285Y-135602380D02*
X138264285Y-134602380D01*
X138645238Y-134602380D01*
X138740476Y-134650000D01*
X138788095Y-134697619D01*
X138835714Y-134792857D01*
X138835714Y-134935714D01*
X138788095Y-135030952D01*
X138740476Y-135078571D01*
X138645238Y-135126190D01*
X138264285Y-135126190D01*
X139454761Y-134602380D02*
X139645238Y-134602380D01*
X139740476Y-134650000D01*
X139835714Y-134745238D01*
X139883333Y-134935714D01*
X139883333Y-135269047D01*
X139835714Y-135459523D01*
X139740476Y-135554761D01*
X139645238Y-135602380D01*
X139454761Y-135602380D01*
X139359523Y-135554761D01*
X139264285Y-135459523D01*
X139216666Y-135269047D01*
X139216666Y-134935714D01*
X139264285Y-134745238D01*
X139359523Y-134650000D01*
X139454761Y-134602380D01*
X140169047Y-134602380D02*
X140740476Y-134602380D01*
X140454761Y-135602380D02*
X140454761Y-134602380D01*
X140835714Y-135697619D02*
X141597619Y-135697619D01*
X141788095Y-135554761D02*
X141930952Y-135602380D01*
X142169047Y-135602380D01*
X142264285Y-135554761D01*
X142311904Y-135507142D01*
X142359523Y-135411904D01*
X142359523Y-135316666D01*
X142311904Y-135221428D01*
X142264285Y-135173809D01*
X142169047Y-135126190D01*
X141978571Y-135078571D01*
X141883333Y-135030952D01*
X141835714Y-134983333D01*
X141788095Y-134888095D01*
X141788095Y-134792857D01*
X141835714Y-134697619D01*
X141883333Y-134650000D01*
X141978571Y-134602380D01*
X142216666Y-134602380D01*
X142359523Y-134650000D01*
X142788095Y-135602380D02*
X142788095Y-134935714D01*
X142788095Y-135030952D02*
X142835714Y-134983333D01*
X142930952Y-134935714D01*
X143073809Y-134935714D01*
X143169047Y-134983333D01*
X143216666Y-135078571D01*
X143216666Y-135602380D01*
X143216666Y-135078571D02*
X143264285Y-134983333D01*
X143359523Y-134935714D01*
X143502380Y-134935714D01*
X143597619Y-134983333D01*
X143645238Y-135078571D01*
X143645238Y-135602380D01*
X144550000Y-135602380D02*
X144550000Y-135078571D01*
X144502380Y-134983333D01*
X144407142Y-134935714D01*
X144216666Y-134935714D01*
X144121428Y-134983333D01*
X144550000Y-135554761D02*
X144454761Y-135602380D01*
X144216666Y-135602380D01*
X144121428Y-135554761D01*
X144073809Y-135459523D01*
X144073809Y-135364285D01*
X144121428Y-135269047D01*
X144216666Y-135221428D01*
X144454761Y-135221428D01*
X144550000Y-135173809D01*
X145169047Y-135602380D02*
X145073809Y-135554761D01*
X145026190Y-135459523D01*
X145026190Y-134602380D01*
X145692857Y-135602380D02*
X145597619Y-135554761D01*
X145550000Y-135459523D01*
X145550000Y-134602380D01*
X137452380Y-128095238D02*
X136976190Y-128428571D01*
X137452380Y-128666666D02*
X136452380Y-128666666D01*
X136452380Y-128285714D01*
X136500000Y-128190476D01*
X136547619Y-128142857D01*
X136642857Y-128095238D01*
X136785714Y-128095238D01*
X136880952Y-128142857D01*
X136928571Y-128190476D01*
X136976190Y-128285714D01*
X136976190Y-128666666D01*
X136452380Y-127809523D02*
X137452380Y-127476190D01*
X136452380Y-127142857D01*
X136547619Y-126857142D02*
X136500000Y-126809523D01*
X136452380Y-126714285D01*
X136452380Y-126476190D01*
X136500000Y-126380952D01*
X136547619Y-126333333D01*
X136642857Y-126285714D01*
X136738095Y-126285714D01*
X136880952Y-126333333D01*
X137452380Y-126904761D01*
X137452380Y-126285714D01*
%TO.C,RV3*%
X137073809Y-121602380D02*
X136740476Y-121126190D01*
X136502380Y-121602380D02*
X136502380Y-120602380D01*
X136883333Y-120602380D01*
X136978571Y-120650000D01*
X137026190Y-120697619D01*
X137073809Y-120792857D01*
X137073809Y-120935714D01*
X137026190Y-121030952D01*
X136978571Y-121078571D01*
X136883333Y-121126190D01*
X136502380Y-121126190D01*
X137264285Y-121697619D02*
X138026190Y-121697619D01*
X138264285Y-121602380D02*
X138264285Y-120602380D01*
X138645238Y-120602380D01*
X138740476Y-120650000D01*
X138788095Y-120697619D01*
X138835714Y-120792857D01*
X138835714Y-120935714D01*
X138788095Y-121030952D01*
X138740476Y-121078571D01*
X138645238Y-121126190D01*
X138264285Y-121126190D01*
X139454761Y-120602380D02*
X139645238Y-120602380D01*
X139740476Y-120650000D01*
X139835714Y-120745238D01*
X139883333Y-120935714D01*
X139883333Y-121269047D01*
X139835714Y-121459523D01*
X139740476Y-121554761D01*
X139645238Y-121602380D01*
X139454761Y-121602380D01*
X139359523Y-121554761D01*
X139264285Y-121459523D01*
X139216666Y-121269047D01*
X139216666Y-120935714D01*
X139264285Y-120745238D01*
X139359523Y-120650000D01*
X139454761Y-120602380D01*
X140169047Y-120602380D02*
X140740476Y-120602380D01*
X140454761Y-121602380D02*
X140454761Y-120602380D01*
X140835714Y-121697619D02*
X141597619Y-121697619D01*
X141788095Y-121554761D02*
X141930952Y-121602380D01*
X142169047Y-121602380D01*
X142264285Y-121554761D01*
X142311904Y-121507142D01*
X142359523Y-121411904D01*
X142359523Y-121316666D01*
X142311904Y-121221428D01*
X142264285Y-121173809D01*
X142169047Y-121126190D01*
X141978571Y-121078571D01*
X141883333Y-121030952D01*
X141835714Y-120983333D01*
X141788095Y-120888095D01*
X141788095Y-120792857D01*
X141835714Y-120697619D01*
X141883333Y-120650000D01*
X141978571Y-120602380D01*
X142216666Y-120602380D01*
X142359523Y-120650000D01*
X142788095Y-121602380D02*
X142788095Y-120935714D01*
X142788095Y-121030952D02*
X142835714Y-120983333D01*
X142930952Y-120935714D01*
X143073809Y-120935714D01*
X143169047Y-120983333D01*
X143216666Y-121078571D01*
X143216666Y-121602380D01*
X143216666Y-121078571D02*
X143264285Y-120983333D01*
X143359523Y-120935714D01*
X143502380Y-120935714D01*
X143597619Y-120983333D01*
X143645238Y-121078571D01*
X143645238Y-121602380D01*
X144550000Y-121602380D02*
X144550000Y-121078571D01*
X144502380Y-120983333D01*
X144407142Y-120935714D01*
X144216666Y-120935714D01*
X144121428Y-120983333D01*
X144550000Y-121554761D02*
X144454761Y-121602380D01*
X144216666Y-121602380D01*
X144121428Y-121554761D01*
X144073809Y-121459523D01*
X144073809Y-121364285D01*
X144121428Y-121269047D01*
X144216666Y-121221428D01*
X144454761Y-121221428D01*
X144550000Y-121173809D01*
X145169047Y-121602380D02*
X145073809Y-121554761D01*
X145026190Y-121459523D01*
X145026190Y-120602380D01*
X145692857Y-121602380D02*
X145597619Y-121554761D01*
X145550000Y-121459523D01*
X145550000Y-120602380D01*
X137452380Y-114095238D02*
X136976190Y-114428571D01*
X137452380Y-114666666D02*
X136452380Y-114666666D01*
X136452380Y-114285714D01*
X136500000Y-114190476D01*
X136547619Y-114142857D01*
X136642857Y-114095238D01*
X136785714Y-114095238D01*
X136880952Y-114142857D01*
X136928571Y-114190476D01*
X136976190Y-114285714D01*
X136976190Y-114666666D01*
X136452380Y-113809523D02*
X137452380Y-113476190D01*
X136452380Y-113142857D01*
X136452380Y-112904761D02*
X136452380Y-112285714D01*
X136833333Y-112619047D01*
X136833333Y-112476190D01*
X136880952Y-112380952D01*
X136928571Y-112333333D01*
X137023809Y-112285714D01*
X137261904Y-112285714D01*
X137357142Y-112333333D01*
X137404761Y-112380952D01*
X137452380Y-112476190D01*
X137452380Y-112761904D01*
X137404761Y-112857142D01*
X137357142Y-112904761D01*
%TD*%
M02*
