%TF.GenerationSoftware,KiCad,Pcbnew,(5.1.10)-1*%
%TF.CreationDate,2022-05-06T17:00:31+02:00*%
%TF.ProjectId,LTE_HW,4c54455f-4857-42e6-9b69-6361645f7063,rev?*%
%TF.SameCoordinates,Original*%
%TF.FileFunction,Other,Fab,Bot*%
%FSLAX46Y46*%
G04 Gerber Fmt 4.6, Leading zero omitted, Abs format (unit mm)*
G04 Created by KiCad (PCBNEW (5.1.10)-1) date 2022-05-06 17:00:31*
%MOMM*%
%LPD*%
G01*
G04 APERTURE LIST*
%TA.AperFunction,Profile*%
%ADD10C,0.050000*%
%TD*%
%ADD11C,0.100000*%
%ADD12C,0.150000*%
G04 APERTURE END LIST*
D10*
X150000000Y-145000000D02*
G75*
G02*
X145000000Y-150000000I-5000000J0D01*
G01*
X145000000Y-76000000D02*
G75*
G02*
X150000000Y-81000000I0J-5000000D01*
G01*
X105000000Y-81000000D02*
G75*
G02*
X110000000Y-76000000I5000000J0D01*
G01*
X110000000Y-150000000D02*
G75*
G02*
X105000000Y-145000000I0J5000000D01*
G01*
X145000000Y-76000000D02*
X110000000Y-76000000D01*
X150000000Y-145000000D02*
X150000000Y-81000000D01*
X110000000Y-150000000D02*
X145000000Y-150000000D01*
X105000000Y-81000000D02*
X105000000Y-145000000D01*
D11*
%TO.C,TP2*%
X112730000Y-113635000D02*
X113365000Y-114270000D01*
X112730000Y-111730000D02*
X112730000Y-113635000D01*
X115270000Y-111730000D02*
X112730000Y-111730000D01*
X115270000Y-114270000D02*
X115270000Y-111730000D01*
X113365000Y-114270000D02*
X115270000Y-114270000D01*
%TO.C,TP1*%
X119365000Y-114270000D02*
X121270000Y-114270000D01*
X121270000Y-114270000D02*
X121270000Y-111730000D01*
X121270000Y-111730000D02*
X118730000Y-111730000D01*
X118730000Y-111730000D02*
X118730000Y-113635000D01*
X118730000Y-113635000D02*
X119365000Y-114270000D01*
%TD*%
%TO.C,TP2*%
D12*
X117333333Y-110122380D02*
X116761904Y-110122380D01*
X117047619Y-111122380D02*
X117047619Y-110122380D01*
X116047619Y-111074761D02*
X116142857Y-111122380D01*
X116333333Y-111122380D01*
X116428571Y-111074761D01*
X116476190Y-110979523D01*
X116476190Y-110598571D01*
X116428571Y-110503333D01*
X116333333Y-110455714D01*
X116142857Y-110455714D01*
X116047619Y-110503333D01*
X116000000Y-110598571D01*
X116000000Y-110693809D01*
X116476190Y-110789047D01*
X115619047Y-111074761D02*
X115523809Y-111122380D01*
X115333333Y-111122380D01*
X115238095Y-111074761D01*
X115190476Y-110979523D01*
X115190476Y-110931904D01*
X115238095Y-110836666D01*
X115333333Y-110789047D01*
X115476190Y-110789047D01*
X115571428Y-110741428D01*
X115619047Y-110646190D01*
X115619047Y-110598571D01*
X115571428Y-110503333D01*
X115476190Y-110455714D01*
X115333333Y-110455714D01*
X115238095Y-110503333D01*
X114904761Y-110455714D02*
X114523809Y-110455714D01*
X114761904Y-110122380D02*
X114761904Y-110979523D01*
X114714285Y-111074761D01*
X114619047Y-111122380D01*
X114523809Y-111122380D01*
X114190476Y-111122380D02*
X114190476Y-110122380D01*
X113809523Y-110122380D01*
X113714285Y-110170000D01*
X113666666Y-110217619D01*
X113619047Y-110312857D01*
X113619047Y-110455714D01*
X113666666Y-110550952D01*
X113714285Y-110598571D01*
X113809523Y-110646190D01*
X114190476Y-110646190D01*
X113047619Y-111122380D02*
X113142857Y-111074761D01*
X113190476Y-111027142D01*
X113238095Y-110931904D01*
X113238095Y-110646190D01*
X113190476Y-110550952D01*
X113142857Y-110503333D01*
X113047619Y-110455714D01*
X112904761Y-110455714D01*
X112809523Y-110503333D01*
X112761904Y-110550952D01*
X112714285Y-110646190D01*
X112714285Y-110931904D01*
X112761904Y-111027142D01*
X112809523Y-111074761D01*
X112904761Y-111122380D01*
X113047619Y-111122380D01*
X112285714Y-111122380D02*
X112285714Y-110455714D01*
X112285714Y-110122380D02*
X112333333Y-110170000D01*
X112285714Y-110217619D01*
X112238095Y-110170000D01*
X112285714Y-110122380D01*
X112285714Y-110217619D01*
X111809523Y-110455714D02*
X111809523Y-111122380D01*
X111809523Y-110550952D02*
X111761904Y-110503333D01*
X111666666Y-110455714D01*
X111523809Y-110455714D01*
X111428571Y-110503333D01*
X111380952Y-110598571D01*
X111380952Y-111122380D01*
X111047619Y-110455714D02*
X110666666Y-110455714D01*
X110904761Y-110122380D02*
X110904761Y-110979523D01*
X110857142Y-111074761D01*
X110761904Y-111122380D01*
X110666666Y-111122380D01*
X114547619Y-114261904D02*
X114547619Y-113690476D01*
X113547619Y-113976190D02*
X114547619Y-113976190D01*
X113547619Y-113357142D02*
X114547619Y-113357142D01*
X114547619Y-112976190D01*
X114500000Y-112880952D01*
X114452380Y-112833333D01*
X114357142Y-112785714D01*
X114214285Y-112785714D01*
X114119047Y-112833333D01*
X114071428Y-112880952D01*
X114023809Y-112976190D01*
X114023809Y-113357142D01*
X114452380Y-112404761D02*
X114500000Y-112357142D01*
X114547619Y-112261904D01*
X114547619Y-112023809D01*
X114500000Y-111928571D01*
X114452380Y-111880952D01*
X114357142Y-111833333D01*
X114261904Y-111833333D01*
X114119047Y-111880952D01*
X113547619Y-112452380D01*
X113547619Y-111833333D01*
%TO.C,TP1*%
X123333333Y-110122380D02*
X122761904Y-110122380D01*
X123047619Y-111122380D02*
X123047619Y-110122380D01*
X122047619Y-111074761D02*
X122142857Y-111122380D01*
X122333333Y-111122380D01*
X122428571Y-111074761D01*
X122476190Y-110979523D01*
X122476190Y-110598571D01*
X122428571Y-110503333D01*
X122333333Y-110455714D01*
X122142857Y-110455714D01*
X122047619Y-110503333D01*
X122000000Y-110598571D01*
X122000000Y-110693809D01*
X122476190Y-110789047D01*
X121619047Y-111074761D02*
X121523809Y-111122380D01*
X121333333Y-111122380D01*
X121238095Y-111074761D01*
X121190476Y-110979523D01*
X121190476Y-110931904D01*
X121238095Y-110836666D01*
X121333333Y-110789047D01*
X121476190Y-110789047D01*
X121571428Y-110741428D01*
X121619047Y-110646190D01*
X121619047Y-110598571D01*
X121571428Y-110503333D01*
X121476190Y-110455714D01*
X121333333Y-110455714D01*
X121238095Y-110503333D01*
X120904761Y-110455714D02*
X120523809Y-110455714D01*
X120761904Y-110122380D02*
X120761904Y-110979523D01*
X120714285Y-111074761D01*
X120619047Y-111122380D01*
X120523809Y-111122380D01*
X120190476Y-111122380D02*
X120190476Y-110122380D01*
X119809523Y-110122380D01*
X119714285Y-110170000D01*
X119666666Y-110217619D01*
X119619047Y-110312857D01*
X119619047Y-110455714D01*
X119666666Y-110550952D01*
X119714285Y-110598571D01*
X119809523Y-110646190D01*
X120190476Y-110646190D01*
X119047619Y-111122380D02*
X119142857Y-111074761D01*
X119190476Y-111027142D01*
X119238095Y-110931904D01*
X119238095Y-110646190D01*
X119190476Y-110550952D01*
X119142857Y-110503333D01*
X119047619Y-110455714D01*
X118904761Y-110455714D01*
X118809523Y-110503333D01*
X118761904Y-110550952D01*
X118714285Y-110646190D01*
X118714285Y-110931904D01*
X118761904Y-111027142D01*
X118809523Y-111074761D01*
X118904761Y-111122380D01*
X119047619Y-111122380D01*
X118285714Y-111122380D02*
X118285714Y-110455714D01*
X118285714Y-110122380D02*
X118333333Y-110170000D01*
X118285714Y-110217619D01*
X118238095Y-110170000D01*
X118285714Y-110122380D01*
X118285714Y-110217619D01*
X117809523Y-110455714D02*
X117809523Y-111122380D01*
X117809523Y-110550952D02*
X117761904Y-110503333D01*
X117666666Y-110455714D01*
X117523809Y-110455714D01*
X117428571Y-110503333D01*
X117380952Y-110598571D01*
X117380952Y-111122380D01*
X117047619Y-110455714D02*
X116666666Y-110455714D01*
X116904761Y-110122380D02*
X116904761Y-110979523D01*
X116857142Y-111074761D01*
X116761904Y-111122380D01*
X116666666Y-111122380D01*
X120547619Y-114261904D02*
X120547619Y-113690476D01*
X119547619Y-113976190D02*
X120547619Y-113976190D01*
X119547619Y-113357142D02*
X120547619Y-113357142D01*
X120547619Y-112976190D01*
X120500000Y-112880952D01*
X120452380Y-112833333D01*
X120357142Y-112785714D01*
X120214285Y-112785714D01*
X120119047Y-112833333D01*
X120071428Y-112880952D01*
X120023809Y-112976190D01*
X120023809Y-113357142D01*
X119547619Y-111833333D02*
X119547619Y-112404761D01*
X119547619Y-112119047D02*
X120547619Y-112119047D01*
X120404761Y-112214285D01*
X120309523Y-112309523D01*
X120261904Y-112404761D01*
%TD*%
M02*
