%TF.GenerationSoftware,KiCad,Pcbnew,(5.1.10)-1*%
%TF.CreationDate,2022-05-06T17:00:31+02:00*%
%TF.ProjectId,LTE_HW,4c54455f-4857-42e6-9b69-6361645f7063,rev?*%
%TF.SameCoordinates,Original*%
%TF.FileFunction,Legend,Bot*%
%TF.FilePolarity,Positive*%
%FSLAX46Y46*%
G04 Gerber Fmt 4.6, Leading zero omitted, Abs format (unit mm)*
G04 Created by KiCad (PCBNEW (5.1.10)-1) date 2022-05-06 17:00:31*
%MOMM*%
%LPD*%
G01*
G04 APERTURE LIST*
%ADD10C,0.150000*%
%TA.AperFunction,Profile*%
%ADD11C,0.050000*%
%TD*%
%ADD12C,0.120000*%
G04 APERTURE END LIST*
D10*
X142047619Y-84738095D02*
X143047619Y-84738095D01*
X143047619Y-84500000D01*
X143000000Y-84357142D01*
X142904761Y-84261904D01*
X142809523Y-84214285D01*
X142619047Y-84166666D01*
X142476190Y-84166666D01*
X142285714Y-84214285D01*
X142190476Y-84261904D01*
X142095238Y-84357142D01*
X142047619Y-84500000D01*
X142047619Y-84738095D01*
X143047619Y-83547619D02*
X143047619Y-83452380D01*
X143000000Y-83357142D01*
X142952380Y-83309523D01*
X142857142Y-83261904D01*
X142666666Y-83214285D01*
X142428571Y-83214285D01*
X142238095Y-83261904D01*
X142142857Y-83309523D01*
X142095238Y-83357142D01*
X142047619Y-83452380D01*
X142047619Y-83547619D01*
X142095238Y-83642857D01*
X142142857Y-83690476D01*
X142238095Y-83738095D01*
X142428571Y-83785714D01*
X142666666Y-83785714D01*
X142857142Y-83738095D01*
X142952380Y-83690476D01*
X143000000Y-83642857D01*
X143047619Y-83547619D01*
X144547619Y-83857142D02*
X145023809Y-84190476D01*
X144547619Y-84428571D02*
X145547619Y-84428571D01*
X145547619Y-84047619D01*
X145500000Y-83952380D01*
X145452380Y-83904761D01*
X145357142Y-83857142D01*
X145214285Y-83857142D01*
X145119047Y-83904761D01*
X145071428Y-83952380D01*
X145023809Y-84047619D01*
X145023809Y-84428571D01*
X145071428Y-83428571D02*
X145071428Y-83095238D01*
X144547619Y-82952380D02*
X144547619Y-83428571D01*
X145547619Y-83428571D01*
X145547619Y-82952380D01*
X145071428Y-82190476D02*
X145071428Y-82523809D01*
X144547619Y-82523809D02*
X145547619Y-82523809D01*
X145547619Y-82047619D01*
X144452380Y-81904761D02*
X144452380Y-81142857D01*
X145547619Y-80428571D02*
X145547619Y-80904761D01*
X145071428Y-80952380D01*
X145119047Y-80904761D01*
X145166666Y-80809523D01*
X145166666Y-80571428D01*
X145119047Y-80476190D01*
X145071428Y-80428571D01*
X144976190Y-80380952D01*
X144738095Y-80380952D01*
X144642857Y-80428571D01*
X144595238Y-80476190D01*
X144547619Y-80571428D01*
X144547619Y-80809523D01*
X144595238Y-80904761D01*
X144642857Y-80952380D01*
X145547619Y-80095238D02*
X144547619Y-79761904D01*
X145547619Y-79428571D01*
X139928571Y-85285714D02*
X139928571Y-84523809D01*
X139547619Y-84904761D02*
X140309523Y-84904761D01*
X140547619Y-83571428D02*
X140547619Y-84047619D01*
X140071428Y-84095238D01*
X140119047Y-84047619D01*
X140166666Y-83952380D01*
X140166666Y-83714285D01*
X140119047Y-83619047D01*
X140071428Y-83571428D01*
X139976190Y-83523809D01*
X139738095Y-83523809D01*
X139642857Y-83571428D01*
X139595238Y-83619047D01*
X139547619Y-83714285D01*
X139547619Y-83952380D01*
X139595238Y-84047619D01*
X139642857Y-84095238D01*
X140547619Y-83238095D02*
X139547619Y-82904761D01*
X140547619Y-82571428D01*
D11*
X150000000Y-145000000D02*
G75*
G02*
X145000000Y-150000000I-5000000J0D01*
G01*
X145000000Y-76000000D02*
G75*
G02*
X150000000Y-81000000I0J-5000000D01*
G01*
X105000000Y-81000000D02*
G75*
G02*
X110000000Y-76000000I5000000J0D01*
G01*
X110000000Y-150000000D02*
G75*
G02*
X105000000Y-145000000I0J5000000D01*
G01*
D10*
X112142857Y-109547619D02*
X111809523Y-110023809D01*
X111571428Y-109547619D02*
X111571428Y-110547619D01*
X111952380Y-110547619D01*
X112047619Y-110500000D01*
X112095238Y-110452380D01*
X112142857Y-110357142D01*
X112142857Y-110214285D01*
X112095238Y-110119047D01*
X112047619Y-110071428D01*
X111952380Y-110023809D01*
X111571428Y-110023809D01*
X112571428Y-110071428D02*
X112904761Y-110071428D01*
X113047619Y-109547619D02*
X112571428Y-109547619D01*
X112571428Y-110547619D01*
X113047619Y-110547619D01*
X113809523Y-110071428D02*
X113476190Y-110071428D01*
X113476190Y-109547619D02*
X113476190Y-110547619D01*
X113952380Y-110547619D01*
X114095238Y-109452380D02*
X114857142Y-109452380D01*
X115571428Y-110547619D02*
X115095238Y-110547619D01*
X115047619Y-110071428D01*
X115095238Y-110119047D01*
X115190476Y-110166666D01*
X115428571Y-110166666D01*
X115523809Y-110119047D01*
X115571428Y-110071428D01*
X115619047Y-109976190D01*
X115619047Y-109738095D01*
X115571428Y-109642857D01*
X115523809Y-109595238D01*
X115428571Y-109547619D01*
X115190476Y-109547619D01*
X115095238Y-109595238D01*
X115047619Y-109642857D01*
X115904761Y-110547619D02*
X116238095Y-109547619D01*
X116571428Y-110547619D01*
X118714285Y-109928571D02*
X119476190Y-109928571D01*
X119095238Y-109547619D02*
X119095238Y-110309523D01*
X120428571Y-110547619D02*
X119952380Y-110547619D01*
X119904761Y-110071428D01*
X119952380Y-110119047D01*
X120047619Y-110166666D01*
X120285714Y-110166666D01*
X120380952Y-110119047D01*
X120428571Y-110071428D01*
X120476190Y-109976190D01*
X120476190Y-109738095D01*
X120428571Y-109642857D01*
X120380952Y-109595238D01*
X120285714Y-109547619D01*
X120047619Y-109547619D01*
X119952380Y-109595238D01*
X119904761Y-109642857D01*
X120761904Y-110547619D02*
X121095238Y-109547619D01*
X121428571Y-110547619D01*
D11*
X145000000Y-76000000D02*
X110000000Y-76000000D01*
X150000000Y-145000000D02*
X150000000Y-81000000D01*
X110000000Y-150000000D02*
X145000000Y-150000000D01*
X105000000Y-81000000D02*
X105000000Y-145000000D01*
D12*
%TO.C,TP2*%
X112670000Y-114330000D02*
X114000000Y-114330000D01*
X112670000Y-113000000D02*
X112670000Y-114330000D01*
X112670000Y-111730000D02*
X115330000Y-111730000D01*
X115330000Y-111730000D02*
X115330000Y-111670000D01*
X112670000Y-111730000D02*
X112670000Y-111670000D01*
X112670000Y-111670000D02*
X115330000Y-111670000D01*
%TO.C,TP1*%
X118670000Y-111670000D02*
X121330000Y-111670000D01*
X118670000Y-111730000D02*
X118670000Y-111670000D01*
X121330000Y-111730000D02*
X121330000Y-111670000D01*
X118670000Y-111730000D02*
X121330000Y-111730000D01*
X118670000Y-113000000D02*
X118670000Y-114330000D01*
X118670000Y-114330000D02*
X120000000Y-114330000D01*
%TD*%
%TO.C,TP2*%
D10*
X115261904Y-114782380D02*
X114690476Y-114782380D01*
X114976190Y-115782380D02*
X114976190Y-114782380D01*
X114357142Y-115782380D02*
X114357142Y-114782380D01*
X113976190Y-114782380D01*
X113880952Y-114830000D01*
X113833333Y-114877619D01*
X113785714Y-114972857D01*
X113785714Y-115115714D01*
X113833333Y-115210952D01*
X113880952Y-115258571D01*
X113976190Y-115306190D01*
X114357142Y-115306190D01*
X113404761Y-114877619D02*
X113357142Y-114830000D01*
X113261904Y-114782380D01*
X113023809Y-114782380D01*
X112928571Y-114830000D01*
X112880952Y-114877619D01*
X112833333Y-114972857D01*
X112833333Y-115068095D01*
X112880952Y-115210952D01*
X113452380Y-115782380D01*
X112833333Y-115782380D01*
%TO.C,TP1*%
X121261904Y-114782380D02*
X120690476Y-114782380D01*
X120976190Y-115782380D02*
X120976190Y-114782380D01*
X120357142Y-115782380D02*
X120357142Y-114782380D01*
X119976190Y-114782380D01*
X119880952Y-114830000D01*
X119833333Y-114877619D01*
X119785714Y-114972857D01*
X119785714Y-115115714D01*
X119833333Y-115210952D01*
X119880952Y-115258571D01*
X119976190Y-115306190D01*
X120357142Y-115306190D01*
X118833333Y-115782380D02*
X119404761Y-115782380D01*
X119119047Y-115782380D02*
X119119047Y-114782380D01*
X119214285Y-114925238D01*
X119309523Y-115020476D01*
X119404761Y-115068095D01*
%TD*%
M02*
